<svg id="Layer_1" data-name="Layer 1" xmlns="http://www.w3.org/2000/svg" viewBox="0 0 95.5 44.2"><title>acne</title><path d="M69.4,45.9a4,4,0,0,1,0-1.1h0v-.2c0-3.8-4.6-6.8-10.6-6.8-5.5,0-9.9,2.5-10.5,5.9h-.1c-.1.8-.3,1.5-.4,2.2-15.3,2.4-35.5,9.3-35.5,17.9C12.3,74,33.2,82,59.9,82V79c-26.7,0-44.6-7.9-44.6-15.2,0-5.2,14.8-12,31.8-14.8-1.4,5.1-3.8,8.6-11.1,12.4l1.4,2.7c8.8-4.5,11.4-9.1,12.9-15.5a13.48,13.48,0,0,0,8.5,2.7,13.66,13.66,0,0,0,8.3-2.5c2,5.5,7.7,12.3,14,14.4l1-2.8c-5-1.7-9.6-7.1-11.6-11.4,18.2,2.6,34.3,9.5,34.3,14.9h3C107.7,54.9,85.7,48,69.4,45.9ZM58.8,48.4c-4.5,0-7.6-2-7.6-3.8s3.1-3.8,7.6-3.8,7.6,2,7.6,3.8S63.3,48.4,58.8,48.4Z" transform="translate(-12.3 -37.8)" fill="#1d0e4c"/><path d="M29.7,60.9l-.1-3a7,7,0,0,0-6.3,4.6,5.83,5.83,0,0,0,3.3,7.1,10.4,10.4,0,0,0,2.9.5,4.11,4.11,0,0,1,2.4.6c.3.4.5.9.8,1.3l.1.2a4.81,4.81,0,0,0,4.1,2.1,5.08,5.08,0,0,0,1.7-.3l-1-2.8a1.9,1.9,0,0,1-2.2-.7c-.3-.5-.6-1.1-.9-1.5h-.3c-1.2-1.5-3-1.6-4.5-1.7a7.52,7.52,0,0,1-1.9-.3,2.91,2.91,0,0,1-1.6-3.4A3.85,3.85,0,0,1,29.7,60.9Z" transform="translate(-12.3 -37.8)" fill="#1d0e4c"/><path d="M94.9,58.9a9,9,0,0,0-3.6-2.8l-1.2,2.7a6.72,6.72,0,0,1,2.5,2c.1.2.2.3.3.5a1.14,1.14,0,0,1-.3.8l-.1.1c-.8,1.7-1.8,3.3-3.1,3.5a5.32,5.32,0,0,1-2.1-.2,7,7,0,0,0-3.8,0,6.6,6.6,0,0,0-2.9,2.2,9.43,9.43,0,0,1-1,1,4.12,4.12,0,0,1-4.4.5L74.1,72a6.58,6.58,0,0,0,3,.7,6.9,6.9,0,0,0,4.5-1.6,15.93,15.93,0,0,0,1.3-1.3,6.36,6.36,0,0,1,1.6-1.4,5.64,5.64,0,0,1,2.2.1,8.52,8.52,0,0,0,3.2.2c2.9-.5,4.4-3.5,5.2-5.1a5.13,5.13,0,0,0,.7-2.4V61A3.12,3.12,0,0,0,94.9,58.9Z" transform="translate(-12.3 -37.8)" fill="#1d0e4c"/><path d="M59.9,71.1a1.42,1.42,0,0,1-1.1.1,20.16,20.16,0,0,1-3.2-1.8l-.2-.1A8.83,8.83,0,0,0,43.7,73l2.6,1.4A6,6,0,0,1,54,71.9,21.22,21.22,0,0,0,57.6,74l.2.1a4.48,4.48,0,0,0,3.6-.3,3.92,3.92,0,0,0,1.7-2.1l-2.9-.8C60.1,70.9,60.1,71,59.9,71.1Z" transform="translate(-12.3 -37.8)" fill="#1d0e4c"/></svg>