<svg id="Layer_1" data-name="Layer 1" xmlns="http://www.w3.org/2000/svg" viewBox="0 0 120 120"><title>acne</title><ellipse cx="58.81" cy="44.63" rx="9.07" ry="5.25" style="fill:none;stroke:#50439b;stroke-miterlimit:10;stroke-width:3px"/><path d="M60,80.62c-25.49,0-46.15-7.48-46.15-16.7,0-7.13,18.51-14.3,35.89-16.7" style="fill:none;stroke:#50439b;stroke-miterlimit:10;stroke-width:3px"/><path d="M68.08,47.23c18.3,2.22,38.07,9.33,38.07,16.7" style="fill:none;stroke:#50439b;stroke-miterlimit:10;stroke-width:3px"/><path d="M49.74,44.06c-1.51,8.38-2.87,13.54-13,18.77" style="fill:none;stroke:#50439b;stroke-miterlimit:10;stroke-width:3px"/><path d="M81.53,61.85C74,59.3,67.31,49.29,67.88,44.63" style="fill:none;stroke:#50439b;stroke-miterlimit:10;stroke-width:3px"/><path d="M29.64,59.45A5.34,5.34,0,0,0,24.74,63a4.41,4.41,0,0,0,2.4,5.31c1.94.75,4.55,0,5.88,1.62a16.25,16.25,0,0,1,.89,1.51,3.46,3.46,0,0,0,4,1.28" style="fill:none;stroke:#50439b;stroke-miterlimit:10;stroke-width:3px"/><path d="M90.75,57.42a7.82,7.82,0,0,1,3,2.35,2.78,2.78,0,0,1,.66,1.42,3.38,3.38,0,0,1-.51,1.74c-.93,1.86-2.14,3.94-4.19,4.32-1.87.35-3.85-.89-5.65-.28-1.44.48-2.26,2-3.42,2.94a5.63,5.63,0,0,1-5.94.7" style="fill:none;stroke:#50439b;stroke-miterlimit:10;stroke-width:3px"/><path d="M45,73.66a7.39,7.39,0,0,1,9.74-3.08,23.7,23.7,0,0,0,3.47,2c1.27.43,3,0,3.34-1.3" style="fill:none;stroke:#50439b;stroke-miterlimit:10;stroke-width:3px"/></svg>