<svg id="Layer_1" data-name="Layer 1" xmlns="http://www.w3.org/2000/svg" viewBox="0 0 120 120"><title>bacteria</title><path d="M37.11,94.37c1.06-1.42,2.27-2.93,4-3.31.89-.19,3.41.42,3.22-2.25" style="fill:none;stroke:#50439b;stroke-miterlimit:10;stroke-width:3px"/><path d="M39.05,82.86a3.42,3.42,0,0,0,2.33,1,1.37,1.37,0,0,0,.88-.22,1.7,1.7,0,0,0,.43-.61l1.57-3.13" style="fill:none;stroke:#50439b;stroke-miterlimit:10;stroke-width:3px"/><path d="M51.54,79.33c.16.69,2,2.52,2.67,2.38.48-.1.7-.65.89-1.1A6.19,6.19,0,0,1,59.74,77" style="fill:none;stroke:#50439b;stroke-miterlimit:10;stroke-width:3px"/><path d="M29.32,83.18c0-1.53.31-3.42,1.75-3.92a6.92,6.92,0,0,1,2.21-.06,4.21,4.21,0,0,0,2.16-.62" style="fill:none;stroke:#50439b;stroke-miterlimit:10;stroke-width:3px"/><path d="M59.93,50.63c.35-.56.8-1.19,1.46-1.24.87-.07,1.47.85,2.28,1.15a1.77,1.77,0,0,0,2.13-.83" style="fill:none;stroke:#50439b;stroke-miterlimit:10;stroke-width:3px"/><path d="M73.39,30.45a4.68,4.68,0,0,0-1.68,3.92,5.9,5.9,0,0,1,.07,2.28c-.24.73-3.06,2.4-4.67.3" style="fill:none;stroke:#50439b;stroke-miterlimit:10;stroke-width:3px"/><path d="M54.27,70.84c.64-1.07,1.22-4,3.82-4" style="fill:none;stroke:#50439b;stroke-miterlimit:10;stroke-width:3px"/><path d="M72.32,65.58A4,4,0,0,0,71.78,63c-.84-1.1-2.53-1.1-3.84-.64a8.17,8.17,0,0,0-5.07,5.37" style="fill:none;stroke:#50439b;stroke-miterlimit:10;stroke-width:3px"/><path d="M66.77,57.58c1.54-1.36,4.45-1.7,5.06-3.66.48-1.55-.4-3,1.88-3.9" style="fill:none;stroke:#50439b;stroke-miterlimit:10;stroke-width:3px"/><path d="M78.09,50a5.85,5.85,0,0,1,1.79-2.13,2,2,0,0,1,2.56.24c.17.21.29.49.54.6a1,1,0,0,0,.52,0A8.84,8.84,0,0,0,86.36,48" style="fill:none;stroke:#50439b;stroke-miterlimit:10;stroke-width:3px"/><path d="M76.71,37.47c2.72-2.76,2.63,1.79,5,1.24,1.33-.32,3.92-3.39,4.73-4.5" style="fill:none;stroke:#50439b;stroke-miterlimit:10;stroke-width:3px"/><path d="M78.84,29.17a4.08,4.08,0,0,1,4.33-2.3,8,8,0,0,1,3.7,2.27" style="fill:none;stroke:#50439b;stroke-miterlimit:10;stroke-width:3px"/><path d="M95.15,33.23a2.07,2.07,0,0,0-1.47,2.5c.13.44.41.83.53,1.28.57,2.06-2.28,3.65-2.29,5.78" style="fill:none;stroke:#50439b;stroke-miterlimit:10;stroke-width:3px"/><path d="M67.6,45c1.5-2.09,3.46-.35,3.92-.18a3.33,3.33,0,0,0,2,0,6.21,6.21,0,0,0,3.43-2.27" style="fill:none;stroke:#50439b;stroke-miterlimit:10;stroke-width:3px"/><path d="M35.23,70.65a11.06,11.06,0,0,1,.5-2.66,3.72,3.72,0,0,1,1.66-2.06c.64-.34,1.4-.41,2-.74,1.25-.64,1.83-2.07,2.4-3.36s1.41-2.66,2.79-2.94" style="fill:none;stroke:#50439b;stroke-miterlimit:10;stroke-width:3px"/><path d="M39.93,72.59a26.7,26.7,0,0,1,3.92-2.09,1.26,1.26,0,0,1,.76.66,16.1,16.1,0,0,0,1.25,2.34.73.73,0,0,0,.36.26.84.84,0,0,0,.53-.11l1.84-.85" style="fill:none;stroke:#50439b;stroke-miterlimit:10;stroke-width:3px"/><path d="M53.24,61.32c.59-.43,1.24-1,1.24-1.7a2.38,2.38,0,0,0-.34-1c-.76-1.5-1.46-3.3-.68-4.79a13.17,13.17,0,0,1,1.26-1.63,4.91,4.91,0,0,0,.33-5.2,2.07,2.07,0,0,1-.3-.67" style="fill:none;stroke:#50439b;stroke-miterlimit:10;stroke-width:3px"/><path d="M35.45,100.1c14.1,2.55,20.71-11.54,28.64-20.27L79.42,62.95c2.47-2.73,17.3-19.06,18.34-20.82a15.35,15.35,0,0,0-1-16.73,15.35,15.35,0,0,0-15.9-5.29c-3.48,1-6.47,3.16-9.33,5.36A268.77,268.77,0,0,0,29.34,65.85c-5,5.94-10.29,11-8.87,19.33C21.68,92.32,28.34,98.82,35.45,100.1Z" style="fill:none;stroke:#50439b;stroke-miterlimit:10;stroke-width:3px"/></svg>