<svg id="Layer_1" data-name="Layer 1" xmlns="http://www.w3.org/2000/svg" viewBox="0 0 82.47 83.65"><title>bacteria</title><path d="M38.3,95.3l-2.4-1.8c1.3-1.7,2.7-3.4,4.9-3.9a3.08,3.08,0,0,1,1-.1,3.75,3.75,0,0,0,1.1-.1v-.5l3-.2a3.51,3.51,0,0,1-.8,2.7,4.32,4.32,0,0,1-3.2,1.1h-.4C40.2,92.8,39.3,94,38.3,95.3Z" transform="translate(-18.64 -18.25)" fill="#1d0e4c"/><path d="M41.5,85.4h-.3A4.71,4.71,0,0,1,37.9,84L40,81.9a2.73,2.73,0,0,0,1.2.6l1.6-3.1,2.7,1.3L44,83.8a4.44,4.44,0,0,1-.8,1.1L43,85A3.31,3.31,0,0,1,41.5,85.4Z" transform="translate(-18.64 -18.25)" fill="#1d0e4c"/><path d="M54.2,83.2c-1.7,0-3.8-2.5-4.1-3.5L53,79v-.1c.1.2.5.6.8,1a7.64,7.64,0,0,1,5.7-4.3l.5,3a4.67,4.67,0,0,0-3.5,2.7,3,3,0,0,1-2,2A.37.37,0,0,0,54.2,83.2Zm.2-2.9Z" transform="translate(-18.64 -18.25)" fill="#1d0e4c"/><path d="M30.8,83.2h-3c0-3.6,1.5-4.9,2.8-5.3l.2-.1a7.48,7.48,0,0,1,2.6-.1,2.84,2.84,0,0,0,1.3-.4l1.6,2.6a6,6,0,0,1-2.9.8h-.2a4.3,4.3,0,0,0-1.6,0C31.1,80.9,30.8,81.9,30.8,83.2Z" transform="translate(-18.64 -18.25)" fill="#1d0e4c"/><path d="M64.2,52.1a4.25,4.25,0,0,1-1.1-.2,3.22,3.22,0,0,1-1.3-.8c-.1-.1-.2-.2-.3-.2a1.07,1.07,0,0,0-.3.5l-2.5-1.6a3.46,3.46,0,0,1,2.6-1.9,3.32,3.32,0,0,1,2.4.9c.2.1.4.3.5.3a.37.37,0,0,0,.3-.1l2.6,1.4A3.24,3.24,0,0,1,64.2,52.1Z" transform="translate(-18.64 -18.25)" fill="#1d0e4c"/><path d="M69.1,39.5a4,4,0,0,1-3.2-1.6l2.4-1.8a.91.91,0,0,0,.8.4,1.9,1.9,0,0,0,1.2-.4,5.28,5.28,0,0,0-.1-1.3v-.2a6.41,6.41,0,0,1,2.2-5.2l1.9,2.3a2.88,2.88,0,0,0-1.1,2.6,8.17,8.17,0,0,1,.1,2.7l-.1.2a4.29,4.29,0,0,1-3.3,2.3A2.15,2.15,0,0,0,69.1,39.5Z" transform="translate(-18.64 -18.25)" fill="#1d0e4c"/><path d="M55.6,71.6,53,70.1a4.88,4.88,0,0,0,.3-.7c.6-1.4,1.7-4,4.8-4v3c-.9,0-1.4.7-2,2.2A4.67,4.67,0,0,0,55.6,71.6Z" transform="translate(-18.64 -18.25)" fill="#1d0e4c"/><path d="M64.3,68.2l-2.9-.9a10,10,0,0,1,6-6.4c1.7-.6,4.2-.7,5.5,1.1l.1.1a5.43,5.43,0,0,1,.7,3.5l-3-.4a2,2,0,0,0-.3-1.5,2.38,2.38,0,0,0-2.1-.1A7.63,7.63,0,0,0,64.3,68.2Z" transform="translate(-18.64 -18.25)" fill="#1d0e4c"/><path d="M67.8,58.7l-2-2.2A7.93,7.93,0,0,1,68.3,55c1-.5,1.9-.9,2.1-1.5a3.08,3.08,0,0,0,.1-1,3.84,3.84,0,0,1,2.6-3.9l1.1,2.8c-.7.3-.7.3-.7,1.2a5.55,5.55,0,0,1-.3,1.7c-.6,1.8-2.3,2.7-3.7,3.3A12.55,12.55,0,0,0,67.8,58.7Z" transform="translate(-18.64 -18.25)" fill="#1d0e4c"/><path d="M79.4,50.7l-2.7-1.3a7.29,7.29,0,0,1,2.2-2.7,3.49,3.49,0,0,1,4.5.4l.1.1h0a7.27,7.27,0,0,0,2.1-.6l1.2,2.8a11.56,11.56,0,0,1-3.2.8,2,2,0,0,1-1.1,0l-.2-.1a2.24,2.24,0,0,1-1-.9h0a.64.64,0,0,0-.6,0A3.24,3.24,0,0,0,79.4,50.7Z" transform="translate(-18.64 -18.25)" fill="#1d0e4c"/><path d="M81.3,40.3a3.82,3.82,0,0,1-2.9-1.7l-.3-.3a1.38,1.38,0,0,1-.4.3l-2.1-2.1a3.52,3.52,0,0,1,2.7-1.3,3.58,3.58,0,0,1,2.4,1.6c.2.2.5.6.6.6.7-.2,2.8-2.4,3.9-3.9l2.4,1.8s-3.3,4.5-5.6,5.1C81.8,40.2,81.5,40.3,81.3,40.3Z" transform="translate(-18.64 -18.25)" fill="#1d0e4c"/><path d="M85.8,30.2a5.94,5.94,0,0,0-2.9-1.8,2.77,2.77,0,0,0-2.7,1.5l-2.7-1.3a5.57,5.57,0,0,1,5.9-3.1h.2A9.59,9.59,0,0,1,88,28.2Z" transform="translate(-18.64 -18.25)" fill="#1d0e4c"/><path d="M93.4,42.8h-3a6.2,6.2,0,0,1,1.5-3.6c.6-.8,1-1.4.9-1.8a.76.76,0,0,0-.2-.4,6.89,6.89,0,0,1-.3-.8,3.68,3.68,0,0,1,2.5-4.4l.8,2.9a.57.57,0,0,0-.4.7c0,.1.1.2.1.3.1.3.3.6.4.9.5,1.8-.5,3.2-1.3,4.3A4.38,4.38,0,0,0,93.4,42.8Z" transform="translate(-18.64 -18.25)" fill="#1d0e4c"/><path d="M72.5,46.5a7.72,7.72,0,0,1-1.5-.2l-.6-.3c-1.1-.7-1.3-.5-1.6-.1l-2.4-1.7c.9-1.3,2.7-2.5,5.6-.8a.1.1,0,0,1,.1.1,1.7,1.7,0,0,0,1,0,5.45,5.45,0,0,0,2.7-1.7l2.4,1.8a7.75,7.75,0,0,1-4.3,2.8C73.5,46.4,73,46.5,72.5,46.5Z" transform="translate(-18.64 -18.25)" fill="#1d0e4c"/><path d="M36.7,70.7l-3-.2a15.94,15.94,0,0,1,.6-3,5.13,5.13,0,0,1,2.3-2.9,5.54,5.54,0,0,1,1.3-.5,2.54,2.54,0,0,1,.7-.2c.8-.4,1.2-1.4,1.7-2.5l.1-.2c.4-.8,1.5-3.3,3.9-3.8l.6,2.9c-.6.1-1.2.8-1.7,2.1l-.1.2c-.6,1.4-1.3,3.1-3,3.9a10.41,10.41,0,0,1-1.2.5,4.87,4.87,0,0,0-.7.3,1.86,1.86,0,0,0-.9,1.2A6,6,0,0,0,36.7,70.7Z" transform="translate(-18.64 -18.25)" fill="#1d0e4c"/><path d="M46.3,75.3H46l-.3-.1a2.1,2.1,0,0,1-1.1-.8,22.47,22.47,0,0,1-1.2-2.1c-.9.5-1.9,1-2.7,1.5l-1.6-2.5a32.33,32.33,0,0,1,4.1-2.2l.5-.2.5.2a3.33,3.33,0,0,1,1.7,1.4c.2.5.5,1,.7,1.5l1.2-.6,1.3,2.7-1.7.9A2,2,0,0,1,46.3,75.3Z" transform="translate(-18.64 -18.25)" fill="#1d0e4c"/><path d="M54.1,62.5l-1.8-2.4a4.68,4.68,0,0,0,.6-.5c0-.1-.1-.1-.1-.2l-.1-.1c-.9-1.8-1.8-4.1-.7-6.2l.1-.1c.4-.6.9-1.2,1.3-1.7a3.39,3.39,0,0,0,.2-3.5,3.7,3.7,0,0,1-.5-1.1L56,46c0,.1,0,.1.1.2l.1.1a6.43,6.43,0,0,1-.4,6.8l-.1.1a17.1,17.1,0,0,0-1.1,1.4c-.4.9.1,2.2.7,3.3a3,3,0,0,1,.5,1.6v.2C56,61.2,54.6,62.2,54.1,62.5Z" transform="translate(-18.64 -18.25)" fill="#1d0e4c"/><path d="M38.7,101.9a23.8,23.8,0,0,1-3.6-.3h0c-7.8-1.4-14.9-8.5-16.2-16.1-1.4-8.2,3.2-13.6,7.7-18.8.5-.6,1-1.1,1.5-1.7A271.42,271.42,0,0,1,70.5,24.4a29.78,29.78,0,0,1,9.8-5.6,16.94,16.94,0,0,1,17.5,5.8A16.86,16.86,0,0,1,98.9,43c-.5.8-2.8,3.7-17.9,20.4L65,81c-1.6,1.8-3.2,3.8-4.9,6C54.8,93.9,48.6,101.9,38.7,101.9ZM84.8,21.1a10.6,10.6,0,0,0-3.5.5c-3.2.9-6,2.9-8.8,5.1a270.17,270.17,0,0,0-42,40.1L29,68.6c-4.4,5.1-8.2,9.5-7,16.4,1.1,6.5,7.1,12.5,13.8,13.7h0C46,100.5,52.1,92.7,58,85a77.54,77.54,0,0,1,5-6.1L79,61.3C93.4,45.4,96.2,42,96.5,41.4a14,14,0,0,0-.9-15.1A14,14,0,0,0,84.8,21.1Z" transform="translate(-18.64 -18.25)" fill="#1d0e4c"/></svg>