<svg id="Layer_1" data-name="Layer 1" xmlns="http://www.w3.org/2000/svg" viewBox="0 0 99.2 51.8"><title>blood</title><path d="M51.7,60.7c-13.2,0-23.5,5.4-23.5,12.2S38.5,85.1,51.7,85.1s23.5-5.4,23.5-12.2S64.9,60.7,51.7,60.7Zm0,21.4c-12.3,0-20.5-4.8-20.5-9.2s8.3-9.2,20.5-9.2,20.5,4.8,20.5,9.2S64,82.1,51.7,82.1Z" transform="translate(-10.4 -33.3)" fill="#1d0e4c"/><path d="M53.7,76a25.64,25.64,0,0,1-6.2-.7l-.7,2.9a30.84,30.84,0,0,0,6.8.8h.2c8.3,0,14.5-3.1,14.5-7.2h-3C65.2,73.5,60.7,76,53.7,76Z" transform="translate(-10.4 -33.3)" fill="#1d0e4c"/><path d="M57.4,45.5c0-6.8-10.3-12.2-23.5-12.2S10.4,38.7,10.4,45.5,20.7,57.7,33.9,57.7,57.4,52.4,57.4,45.5Zm-44,0c0-4.4,8.3-9.2,20.5-9.2s20.5,4.8,20.5,9.2-8.3,9.2-20.5,9.2S13.4,50,13.4,45.5Z" transform="translate(-10.4 -33.3)" fill="#1d0e4c"/><path d="M35.9,51.6c8.3,0,14.5-3.1,14.5-7.2h-3c0,1.7-4.5,4.2-11.5,4.2a25.64,25.64,0,0,1-6.2-.7L29,50.8a30.84,30.84,0,0,0,6.8.8Z" transform="translate(-10.4 -33.3)" fill="#1d0e4c"/><path d="M86.1,37.9c-13.2,0-23.5,5.4-23.5,12.2S72.9,62.3,86.1,62.3s23.5-5.4,23.5-12.2S99.3,37.9,86.1,37.9Zm0,21.4c-12.3,0-20.5-4.8-20.5-9.2s8.3-9.2,20.5-9.2,20.5,4.8,20.5,9.2S98.4,59.3,86.1,59.3Z" transform="translate(-10.4 -33.3)" fill="#1d0e4c"/><path d="M88.1,53.2h-.2a25.39,25.39,0,0,1-6.1-.7l-.7,2.9a30.84,30.84,0,0,0,6.8.8h.2c8.3,0,14.5-3.1,14.5-7.2h-3C99.6,50.7,95.1,53.2,88.1,53.2Z" transform="translate(-10.4 -33.3)" fill="#1d0e4c"/></svg>