<svg id="Layer_1" data-name="Layer 1" xmlns="http://www.w3.org/2000/svg" viewBox="0 0 120 120"><title>blood</title><ellipse cx="34.89" cy="47.13" rx="22.04" ry="10.71" style="fill:none;stroke:#50439b;stroke-miterlimit:10;stroke-width:3px"/><path d="M45,41.88c3,1.2,4.87,2.92,4.87,4.84,0,3.62-6.7,6.55-15,6.55-5.64,0-10.56-1.37-13.11-3.39" style="fill:none;stroke:#50439b;stroke-miterlimit:10;stroke-width:3px"/><ellipse cx="85.11" cy="50.28" rx="22.04" ry="10.71" style="fill:none;stroke:#50439b;stroke-miterlimit:10;stroke-width:3px"/><path d="M95.2,45c3,1.2,4.87,2.92,4.87,4.84,0,3.62-6.7,6.55-15,6.55C79.47,56.42,74.56,55.05,72,53" style="fill:none;stroke:#50439b;stroke-miterlimit:10;stroke-width:3px"/><ellipse cx="51.74" cy="72.87" rx="22.04" ry="10.71" style="fill:none;stroke:#50439b;stroke-miterlimit:10;stroke-width:3px"/><path d="M61.83,67.62c3,1.2,4.87,2.92,4.87,4.84,0,3.62-6.7,6.55-15,6.55-5.64,0-10.56-1.37-13.11-3.39" style="fill:none;stroke:#50439b;stroke-miterlimit:10;stroke-width:3px"/></svg>