<svg id="Layer_1" data-name="Layer 1" xmlns="http://www.w3.org/2000/svg" viewBox="0 0 120 120"><title>brain</title><path d="M56.71,30.46c0-4.71.71-11.24-2.78-13.26-3.33-1.93-7.72,2.54-10,6.35-3,5-8.34.63-10.62,7.4C30.7,38.7,24,38.81,24.93,44.89a51.86,51.86,0,0,1,0,5.48c.13,3.81-7.15,6.71-7.32,10.52-.13,2.81,2.3,5.31,2.51,8.11.23,3-2.06,5.86-1.45,8.79.66,3.17,4.43,5.24,5.72,8.27,1.07,2.53.56,5.87,3.2,7.38,1.22.7,2.79.76,4.12,1.29C34.86,96,35.91,99.61,39,101s6.72.43,9.84,1.48c5,1.68,6.84.64,7.37-4.64.35-3.5.55-16.63.42-20.22q-.54-15.25-.18-30.5C56.58,41.52,56.67,36.1,56.71,30.46Z" style="fill:none;stroke:#50439b;stroke-linecap:square;stroke-linejoin:bevel;stroke-width:3px"/><path d="M31.19,69.82c.12-3.4-6.09-1.49-4.73-6.4" style="fill:none;stroke:#50439b;stroke-linecap:square;stroke-linejoin:bevel;stroke-width:3px"/><path d="M39.78,33.14c1.38,1.07,3.73,3.85,3.88,5.59.19,2.19-.76,4.33-.75,6.52a2.76,2.76,0,0,0,.35,1.52" style="fill:none;stroke:#50439b;stroke-linecap:square;stroke-linejoin:bevel;stroke-width:3px"/><path d="M49.49,77.4c.31-3-2.62-3.42-2.6-5.32a4.9,4.9,0,0,1,1.87-3.75" style="fill:none;stroke:#50439b;stroke-linecap:square;stroke-linejoin:bevel;stroke-width:3px"/><path d="M33.8,79.46c3.46.2,2-6.21,4.43-6.21,2.8,0,2.91,4.48,3.6,7.16" style="fill:none;stroke:#50439b;stroke-linecap:square;stroke-linejoin:bevel;stroke-width:3px"/><path d="M36.05,58.21a1.24,1.24,0,0,1,.86.19,1.32,1.32,0,0,1,.38.65c.55,1.68.46,3.64,1.57,5a3.59,3.59,0,0,0,4.65.68" style="fill:none;stroke:#50439b;stroke-linecap:square;stroke-linejoin:bevel;stroke-width:3px"/><path d="M35.67,40.4a2.4,2.4,0,0,0-1.43.77,3.84,3.84,0,0,0-1,3.32c.14.73.49,1.41.67,2.13a3.7,3.7,0,0,1-.46,3.09,2.46,2.46,0,0,1-2.85.9" style="fill:none;stroke:#50439b;stroke-linecap:square;stroke-linejoin:bevel;stroke-width:3px"/><path d="M49.69,24.76c-1.14.68-.66,2.66,0,3.78.8,1.27,2.42,2.12,2.57,3.62a5,5,0,0,1-1,2.76A2.83,2.83,0,0,0,51,37.73" style="fill:none;stroke:#50439b;stroke-linecap:square;stroke-linejoin:bevel;stroke-width:3px"/><path d="M44.05,54.1a5.55,5.55,0,0,1,5.37,2.11,11.59,11.59,0,0,1,1.23,2.62" style="fill:none;stroke:#50439b;stroke-linecap:square;stroke-linejoin:bevel;stroke-width:3px"/><path d="M32.58,86.26a3.79,3.79,0,0,0,2.08,1.93c.93.37,2,.41,2.87.8" style="fill:none;stroke:#50439b;stroke-linecap:square;stroke-linejoin:bevel;stroke-width:3px"/><path d="M47.59,85.78c.81,1.8.07,3.82-.16,5.77a12.64,12.64,0,0,0-.23,2.71,2.44,2.44,0,0,0,1.44,2.14" style="fill:none;stroke:#50439b;stroke-linecap:square;stroke-linejoin:bevel;stroke-width:3px"/><path d="M63.29,30.46c0-4.71-.71-11.24,2.78-13.26,3.33-1.93,7.72,2.54,10,6.35,3,5,8.34.63,10.62,7.4C89.3,38.7,96,38.81,95.07,44.89a51.86,51.86,0,0,0,0,5.48c-.13,3.81,7.15,6.71,7.32,10.52.13,2.81-2.3,5.31-2.51,8.11-.23,3,2.06,5.86,1.45,8.79-.66,3.17-4.43,5.24-5.72,8.27-1.07,2.53-.56,5.87-3.2,7.38-1.22.7-2.79.76-4.12,1.29C85.14,96,84.09,99.61,81,101s-6.72.43-9.84,1.48c-5,1.68-6.84.64-7.37-4.64-.35-3.5-.55-16.63-.42-20.22q.54-15.25.18-30.5C63.42,41.52,63.33,36.1,63.29,30.46Z" style="fill:none;stroke:#50439b;stroke-linecap:square;stroke-linejoin:bevel;stroke-width:3px"/><path d="M88.81,69.82c-.12-3.4,6.09-1.49,4.73-6.4" style="fill:none;stroke:#50439b;stroke-linecap:square;stroke-linejoin:bevel;stroke-width:3px"/><path d="M80.22,33.14c-1.38,1.07-3.73,3.85-3.88,5.59-.19,2.19.76,4.33.75,6.52a2.76,2.76,0,0,1-.35,1.52" style="fill:none;stroke:#50439b;stroke-linecap:square;stroke-linejoin:bevel;stroke-width:3px"/><path d="M70.51,77.4c-.31-3,2.62-3.42,2.6-5.32a4.9,4.9,0,0,0-1.87-3.75" style="fill:none;stroke:#50439b;stroke-linecap:square;stroke-linejoin:bevel;stroke-width:3px"/><path d="M86.2,79.46c-3.46.2-2-6.21-4.43-6.21-2.8,0-2.91,4.48-3.6,7.16" style="fill:none;stroke:#50439b;stroke-linecap:square;stroke-linejoin:bevel;stroke-width:3px"/><path d="M83.95,58.21a1.24,1.24,0,0,0-.86.19,1.32,1.32,0,0,0-.38.65c-.55,1.68-.46,3.64-1.57,5a3.59,3.59,0,0,1-4.65.68" style="fill:none;stroke:#50439b;stroke-linecap:square;stroke-linejoin:bevel;stroke-width:3px"/><path d="M84.33,40.4a2.4,2.4,0,0,1,1.43.77,3.84,3.84,0,0,1,1,3.32c-.14.73-.49,1.41-.67,2.13a3.7,3.7,0,0,0,.46,3.09,2.46,2.46,0,0,0,2.85.9" style="fill:none;stroke:#50439b;stroke-linecap:square;stroke-linejoin:bevel;stroke-width:3px"/><path d="M70.31,24.76c1.14.68.66,2.66,0,3.78-.8,1.27-2.42,2.12-2.57,3.62a5,5,0,0,0,1,2.76A2.83,2.83,0,0,1,69,37.73" style="fill:none;stroke:#50439b;stroke-linecap:square;stroke-linejoin:bevel;stroke-width:3px"/><path d="M75.95,54.1a5.55,5.55,0,0,0-5.37,2.11,11.59,11.59,0,0,0-1.23,2.62" style="fill:none;stroke:#50439b;stroke-linecap:square;stroke-linejoin:bevel;stroke-width:3px"/><path d="M87.42,86.26a3.79,3.79,0,0,1-2.08,1.93c-.93.37-2,.41-2.87.8" style="fill:none;stroke:#50439b;stroke-linecap:square;stroke-linejoin:bevel;stroke-width:3px"/><path d="M72.41,85.78c-.81,1.8-.07,3.82.16,5.77a12.64,12.64,0,0,1,.23,2.71,2.44,2.44,0,0,1-1.44,2.14" style="fill:none;stroke:#50439b;stroke-linecap:square;stroke-linejoin:bevel;stroke-width:3px"/></svg>