<svg id="Layer_1" data-name="Layer 1" xmlns="http://www.w3.org/2000/svg" viewBox="0 0 87.92 89.55"><title>brain</title><path d="M52.4,104.7a14.21,14.21,0,0,1-4-.8,13.18,13.18,0,0,0-4.1-.5,15.59,15.59,0,0,1-5.9-1,11.75,11.75,0,0,1-4.1-3.5,8.64,8.64,0,0,0-3.1-2.7,8.33,8.33,0,0,0-1.5-.4,10.14,10.14,0,0,1-2.8-.9C24.5,93.4,24,91,23.6,89a14,14,0,0,0-.6-2.4,12,12,0,0,0-2.5-3.3c-1.4-1.5-2.9-3.1-3.4-5.3a10.78,10.78,0,0,1,.7-5.4,10,10,0,0,0,.7-3.6,12.76,12.76,0,0,0-1.1-3.3,10.72,10.72,0,0,1-1.4-5c.1-2.5,2.2-4.4,4.2-6.2,1.6-1.4,3.2-2.9,3.2-4.2v-.1a46.84,46.84,0,0,0,0-5.3c-.6-4,1.6-6,3.7-7.9a15.38,15.38,0,0,0,4.7-6.6c1.5-4.5,4.4-5,6.7-5.5,1.7-.3,3-.5,4-2.2,3-5,8-9.2,12-6.9,3.8,2.2,3.7,7.7,3.6,12.5v2h0c0,5.3-.1,10.8-.3,16.7-.2,10.1-.2,20.3.2,30.4.1,3.6-.1,16.8-.4,20.4-.2,2.1-.7,4.8-2.6,6A3.61,3.61,0,0,1,52.4,104.7Zm-26-54.3c0,2.6-2.1,4.5-4.1,6.4-1.5,1.4-3.1,2.9-3.2,4.1a7.8,7.8,0,0,0,1.1,3.6,12.1,12.1,0,0,1,1.4,4.3,14.49,14.49,0,0,1-.8,4.7,6.94,6.94,0,0,0-.6,3.9,9.86,9.86,0,0,0,2.6,3.9,15.49,15.49,0,0,1,3,4.1,16.66,16.66,0,0,1,.8,3c.4,1.9.6,3,1.8,3.7a5.31,5.31,0,0,0,1.9.6c.6.2,1.3.3,2,.6a11.06,11.06,0,0,1,4.3,3.6,8.51,8.51,0,0,0,3,2.7,14,14,0,0,0,4.7.8,17.73,17.73,0,0,1,5,.7c2.1.7,3.5.8,4.1.4s1.1-1.7,1.3-3.8c.3-3.4.5-16.5.4-20-.4-10.2-.4-20.4-.2-30.6.1-5.9.2-11.3.3-16.6V28.4c.1-3.8.2-8.6-2.1-9.9-2-1.2-5.7,2.1-8,5.8-1.7,2.9-4.1,3.3-6.1,3.6s-3.5.6-4.4,3.5c-1.3,4-3.7,6.1-5.5,7.9-2.1,2-3.1,3-2.8,5.4v.1A34.92,34.92,0,0,1,26.4,50.4ZM56.7,30.5Z" transform="translate(-15.99 -15.15)" fill="#1d0e4c"/><path d="M32.6,71.4l-3-.1.1-1.5c0-.3,0-.4-1.4-1S23.9,67.1,25,63l.4-1.4,2.9.8-.4,1.4c-.4,1.4-.1,1.6,1.5,2.2,1.3.5,3.4,1.3,3.3,3.9Z" transform="translate(-15.99 -15.15)" fill="#1d0e4c"/><path d="M42.7,48.8,42,47.5a3.72,3.72,0,0,1-.5-2.3,17.5,17.5,0,0,1,.4-3.2,11.23,11.23,0,0,0,.3-3.1c-.1-1.1-2-3.5-3.3-4.5l-1.2-.9,1.8-2.4,1.2.9c1.5,1.1,4.2,4.2,4.5,6.6a13.28,13.28,0,0,1-.4,4,12.59,12.59,0,0,0-.4,2.7,1.08,1.08,0,0,0,.2.8l.7,1.3Z" transform="translate(-15.99 -15.15)" fill="#1d0e4c"/><path d="M50.8,79l-3-.3.2-1.5c.1-1-.3-1.4-1-2.1a4.23,4.23,0,0,1-1.6-3,6.31,6.31,0,0,1,2.4-4.9l1.2-.9,1.9,2.4-1.2.9a3.32,3.32,0,0,0-1.3,2.6c0,.2.3.5.7.9A5.4,5.4,0,0,1,51,77.7Z" transform="translate(-15.99 -15.15)" fill="#1d0e4c"/><path d="M40.8,82.2l-.4-1.5c-.1-.6-.3-1.2-.4-1.9-.4-2.1-.8-3.9-1.6-4.1a6.22,6.22,0,0,0-.4,1.6c-.4,1.7-1.1,4.8-4.2,4.6l-1.5-.1.2-3,1.5.1c.4,0,.7-.3,1.2-2.3.4-1.6.9-3.9,3.2-3.9,3.5,0,4.2,3.9,4.7,6.6a8.47,8.47,0,0,0,.4,1.7l.4,1.5Z" transform="translate(-15.99 -15.15)" fill="#1d0e4c"/><path d="M41.6,66.8A5.12,5.12,0,0,1,37.7,65a7.58,7.58,0,0,1-1.5-3.9c-.1-.5-.2-1-.3-1.4l-1.2.2-.4-3,1.5-.2a3.13,3.13,0,0,1,1.9.4l.2.2a2.58,2.58,0,0,1,.8,1.3c.2.7.3,1.3.5,2a7.35,7.35,0,0,0,.8,2.5,2.25,2.25,0,0,0,2.7.4l1.3-.8,1.6,2.5-1.3.8A5.3,5.3,0,0,1,41.6,66.8Zm-5.8-7.4Z" transform="translate(-15.99 -15.15)" fill="#1d0e4c"/><path d="M31.4,52.3a5.85,5.85,0,0,1-1.3-.2l-1.4-.5,1-2.8,1.4.5a1,1,0,0,0,1.1-.4,2.25,2.25,0,0,0,.2-1.8l-.3-.9a5.73,5.73,0,0,1-.4-1.4,5.17,5.17,0,0,1,1.4-4.6A4,4,0,0,1,35.4,39l1.5-.2.4,3-1.5.2a.55.55,0,0,0-.5.3,2.32,2.32,0,0,0-.6,2.1l.3.9c.1.4.3.7.4,1.1a5.11,5.11,0,0,1-.7,4.3A4.55,4.55,0,0,1,31.4,52.3Z" transform="translate(-15.99 -15.15)" fill="#1d0e4c"/><path d="M50.3,39.7l-.6-1.4a4.42,4.42,0,0,1,.4-4.3,3.39,3.39,0,0,0,.7-1.8,3.48,3.48,0,0,0-1-1.3,10,10,0,0,1-1.3-1.5c-1.2-2-1.4-4.7.5-5.9l1.3-.8,1.5,2.6-1.3.7a2.45,2.45,0,0,0,.5,1.8,7.3,7.3,0,0,0,.9,1A5.76,5.76,0,0,1,53.8,32v.2a6.86,6.86,0,0,1-1.3,3.6,1.47,1.47,0,0,0-.1,1.3l.6,1.4Z" transform="translate(-15.99 -15.15)" fill="#1d0e4c"/><path d="M49.7,60.7l-.5-1.4a14.72,14.72,0,0,0-1-2.2,4.11,4.11,0,0,0-3.9-1.5l-1.5.3-.5-3,1.5-.3a6.93,6.93,0,0,1,6.8,2.7l.1.1a10.32,10.32,0,0,1,1.4,3l.5,1.4Z" transform="translate(-15.99 -15.15)" fill="#1d0e4c"/><path d="M38.3,91l-1.4-.6a10.38,10.38,0,0,0-1.2-.3,4.94,4.94,0,0,1-1.6-.5,5.12,5.12,0,0,1-2.9-2.7l-.6-1.4,2.7-1.3.6,1.4a2.54,2.54,0,0,0,1.3,1.2,10.38,10.38,0,0,0,1.2.3,12.09,12.09,0,0,1,1.8.5l1.4.6Z" transform="translate(-15.99 -15.15)" fill="#1d0e4c"/><path d="M49.4,98.4,48,97.8a3.72,3.72,0,0,1-2.3-3.5c0-1,.1-2,.2-3,.1-.5.1-1,.2-1.5.2-1.3.5-2.5,0-3.4L45.6,85l2.7-1.2.6,1.4a8.47,8.47,0,0,1,.2,5.2,6.75,6.75,0,0,0-.2,1.4v.1a9.74,9.74,0,0,0-.2,2.4.84.84,0,0,0,.6.8l1.4.6Z" transform="translate(-15.99 -15.15)" fill="#1d0e4c"/><path d="M67.6,104.7a5,5,0,0,1-2.7-.7c-1.9-1.2-2.4-3.9-2.6-6-.4-3.6-.6-16.8-.4-20.4.4-10.1.4-20.3.2-30.4-.1-5.9-.2-11.4-.3-16.7h0v-2c-.1-4.8-.2-10.3,3.6-12.5,4-2.3,9.1,1.9,12,6.9,1,1.7,2.3,1.9,4,2.2,2.3.4,5.2.9,6.7,5.5a14.24,14.24,0,0,0,4.7,6.6c2.1,2,4.3,4,3.7,7.9a46.85,46.85,0,0,0,0,5.3v.1c0,1.3,1.6,2.7,3.2,4.2,2,1.8,4,3.7,4.2,6.2a10.39,10.39,0,0,1-1.4,5,10.69,10.69,0,0,0-1.1,3.3,10,10,0,0,0,.7,3.6,10.78,10.78,0,0,1,.7,5.4c-.4,2.2-1.9,3.8-3.4,5.3a12.52,12.52,0,0,0-2.5,3.3,8.44,8.44,0,0,0-.6,2.4c-.4,1.9-.9,4.4-3.2,5.7a10.14,10.14,0,0,1-2.8.9c-.6.1-1.1.3-1.6.4a7.89,7.89,0,0,0-3.1,2.7,11.75,11.75,0,0,1-4.1,3.5,15,15,0,0,1-5.9,1,17,17,0,0,0-4.1.5A12.9,12.9,0,0,1,67.6,104.7ZM64.8,30.5c0,5.3.1,10.7.3,16.6.2,10.2.2,20.4-.2,30.6-.1,3.5.1,16.6.4,20,.2,2.1.6,3.4,1.3,3.8s2,.3,4.1-.4a16.79,16.79,0,0,1,5-.7,11.91,11.91,0,0,0,4.7-.8,8.51,8.51,0,0,0,3-2.7,11.84,11.84,0,0,1,4.3-3.6,15.19,15.19,0,0,1,2-.6,8.5,8.5,0,0,0,1.9-.6c1.1-.6,1.4-1.8,1.8-3.7a16.66,16.66,0,0,1,.8-3,15.49,15.49,0,0,1,3-4.1c1.2-1.3,2.3-2.5,2.6-3.9a9.3,9.3,0,0,0-.6-3.9,10.6,10.6,0,0,1-.8-4.7,12.1,12.1,0,0,1,1.4-4.3,7.8,7.8,0,0,0,1.1-3.6c-.1-1.3-1.6-2.7-3.2-4.1-2.1-1.9-4.2-3.8-4.1-6.4a52.3,52.3,0,0,1,0-5.6v-.1c.4-2.3-.6-3.4-2.8-5.4a17.2,17.2,0,0,1-5.5-7.9c-1-2.8-2.3-3.1-4.4-3.5-1.9-.3-4.4-.8-6.1-3.6-2.2-3.7-5.9-7-8-5.8s-2.1,6-2.1,9.9A14.77,14.77,0,0,1,64.8,30.5Zm0,0Z" transform="translate(-15.99 -15.15)" fill="#1d0e4c"/><path d="M87.4,71.4l-.1-1.5c-.1-2.6,2-3.4,3.3-3.9,1.5-.6,1.9-.7,1.5-2.2l-.4-1.4,2.9-.8L95,63c1.1,4-1.7,5.2-3.3,5.8-1.4.6-1.4.7-1.4,1l.1,1.5Z" transform="translate(-15.99 -15.15)" fill="#1d0e4c"/><path d="M77.3,48.8l-2.6-1.5.7-1.3a1.85,1.85,0,0,0,.2-.7,14.52,14.52,0,0,0-.4-2.8,17.52,17.52,0,0,1-.4-4c.2-2.4,3-5.5,4.5-6.6l1.2-.9,1.8,2.4-1.2.9c-1.3,1-3.2,3.5-3.3,4.5a11.23,11.23,0,0,0,.3,3.1,16.56,16.56,0,0,1,.4,3.3,4.42,4.42,0,0,1-.5,2.2Z" transform="translate(-15.99 -15.15)" fill="#1d0e4c"/><path d="M69.2,79,69,77.6A5.4,5.4,0,0,1,70.9,73c.4-.4.7-.7.7-.9a3.32,3.32,0,0,0-1.3-2.6l-1.2-.9L71,66.2l1.2.9A6.31,6.31,0,0,1,74.6,72,4.26,4.26,0,0,1,73,75.1c-.8.8-1.1,1.2-1,2.1l.2,1.5Z" transform="translate(-15.99 -15.15)" fill="#1d0e4c"/><path d="M79.2,82.2l-2.9-.7.4-1.5a13.63,13.63,0,0,1,.4-1.7c.5-2.6,1.2-6.5,4.7-6.5,2.3,0,2.8,2.4,3.2,3.9.5,2,.7,2.3,1.2,2.3l1.5-.1.2,3-1.6.1c-3.2.2-3.9-2.9-4.2-4.6-.1-.5-.3-1.2-.4-1.6-.8.2-1.2,2-1.6,4.1-.1.7-.3,1.3-.4,1.9Z" transform="translate(-15.99 -15.15)" fill="#1d0e4c"/><path d="M78.4,66.8a5.3,5.3,0,0,1-2.7-.8l-1.3-.8L76,62.7l1.3.8a2,2,0,0,0,2.7-.4,5.67,5.67,0,0,0,.8-2.5,8.35,8.35,0,0,1,.5-2,2.22,2.22,0,0,1,.8-1.3l.2-.2a2.56,2.56,0,0,1,1.9-.4l1.5.2-.4,3-1.2-.2c-.1.4-.2.9-.3,1.4A7.58,7.58,0,0,1,82.3,65,5.12,5.12,0,0,1,78.4,66.8Zm5.8-7.4Z" transform="translate(-15.99 -15.15)" fill="#1d0e4c"/><path d="M88.6,52.3a3.73,3.73,0,0,1-3.2-1.7,5.28,5.28,0,0,1-.7-4.4c.1-.3.2-.7.3-1a9.44,9.44,0,0,1,.3-.9,2.42,2.42,0,0,0-.6-2,.86.86,0,0,0-.6-.3l-1.5-.2.4-3,1.5.2a3.6,3.6,0,0,1,2.3,1.3,5.47,5.47,0,0,1,1.4,4.6c-.1.5-.3,1-.4,1.4s-.2.5-.3.8a2.09,2.09,0,0,0,.3,1.9.91.91,0,0,0,1.1.3l1.4-.5,1,2.8-1.4.4A3.08,3.08,0,0,1,88.6,52.3Z" transform="translate(-15.99 -15.15)" fill="#1d0e4c"/><path d="M69.7,39.7,67,38.5l.6-1.4a1.5,1.5,0,0,0-.1-1.3,6.25,6.25,0,0,1-1.3-3.5v-.2a4.74,4.74,0,0,1,1.9-3.2,7.3,7.3,0,0,0,.9-1,2.63,2.63,0,0,0,.4-1.7l-1.2-.7,1.5-2.6,1.3.8c1.9,1.1,1.7,3.9.5,5.8-.4.6-.9,1.1-1.3,1.6a3.48,3.48,0,0,0-1,1.3,3.59,3.59,0,0,0,.7,1.8,4.18,4.18,0,0,1,.4,4.3Z" transform="translate(-15.99 -15.15)" fill="#1d0e4c"/><path d="M70.3,60.7l-2.9-.9.5-1.4a13.48,13.48,0,0,1,1.4-3l.1-.1a7.13,7.13,0,0,1,6.8-2.7l1.5.3-.5,3-1.5-.3a3.91,3.91,0,0,0-3.9,1.5,8.75,8.75,0,0,0-1,2.2Z" transform="translate(-15.99 -15.15)" fill="#1d0e4c"/><path d="M81.7,91l-1.2-2.7,1.4-.6a6.07,6.07,0,0,1,1.8-.5c.4-.1.8-.2,1.1-.3a2.19,2.19,0,0,0,1.3-1.2l.6-1.4,2.7,1.3L88.8,87a5.48,5.48,0,0,1-2.9,2.7,9.36,9.36,0,0,1-1.6.4c-.4.1-.9.2-1.2.3Z" transform="translate(-15.99 -15.15)" fill="#1d0e4c"/><path d="M70.6,98.4l-1.2-2.7,1.4-.6c.3-.1.5-.5.6-.8a9.74,9.74,0,0,0-.2-2.4v-.1c-.1-.5-.1-.9-.2-1.4a8.47,8.47,0,0,1,.2-5.2l.6-1.4L74.5,85l-.6,1.4a6.49,6.49,0,0,0,0,3.4,7.72,7.72,0,0,1,.2,1.5,10.12,10.12,0,0,1,.2,3A4.19,4.19,0,0,1,72,97.8Z" transform="translate(-15.99 -15.15)" fill="#1d0e4c"/></svg>