<svg id="Layer_1" data-name="Layer 1" xmlns="http://www.w3.org/2000/svg" viewBox="0 0 120 120"><title>brain</title><path d="M55.46,30.46c0-4.71.71-11.24-2.78-13.26-3.33-1.93-7.72,2.54-10,6.35-3,5-8.34.63-10.62,7.4-2.61,7.75-9.33,7.85-8.38,13.94a51.86,51.86,0,0,1,0,5.48c.13,3.81-7.15,6.71-7.32,10.52-.13,2.81,2.3,5.31,2.51,8.11.23,3-2.06,5.86-1.45,8.79C18,81,21.81,83,23.1,86.07c1.07,2.53.56,5.87,3.2,7.38,1.22.7,2.79.76,4.12,1.29,3.19,1.27,4.24,4.88,7.34,6.31s6.72.43,9.84,1.48c5,1.68,6.84.64,7.37-4.64.35-3.5.55-16.63.42-20.22q-.54-15.25-.18-30.5C55.33,41.52,55.42,36.1,55.46,30.46Z" style="fill:none;stroke:#50439b;stroke-linecap:square;stroke-linejoin:bevel;stroke-width:3px"/><path d="M35.11,82.47c-2.29-.64-8.69-2.69-8.69-5.07,0-4,3.43-5.24,3.51-7.59.12-3.4-6.09-1.49-4.73-6.4" style="fill:none;stroke:#50439b;stroke-linecap:square;stroke-linejoin:bevel;stroke-width:3px"/><path d="M38.53,33.14c1.38,1.07,3.73,3.85,3.88,5.59.19,2.19-.76,4.33-.75,6.52A2.76,2.76,0,0,0,42,46.76c.79,1.21,4.85.64,6.26,5.67" style="fill:none;stroke:#50439b;stroke-linecap:square;stroke-linejoin:bevel;stroke-width:3px"/><path d="M39.52,95.22c2.75,1.36,4.79-1.26,5-4,.17-2.43-4.88-6.37-1.65-8.71,1.54-1.12,5.05-1.86,5.39-5.07.31-3-2.62-3.42-2.6-5.32a4.9,4.9,0,0,1,1.87-3.75" style="fill:none;stroke:#50439b;stroke-linecap:square;stroke-linejoin:bevel;stroke-width:3px"/><path d="M33.55,76.46c3.46.2,2-6.21,4.43-6.21,2.8,0,2.91,4.48,3.6,7.16" style="fill:none;stroke:#50439b;stroke-linecap:square;stroke-linejoin:bevel;stroke-width:3px"/><path d="M25.21,56.56c1.39.49,2,2.19,3.36,2.79,2,.88,4.07-1,6.23-1.14a1.24,1.24,0,0,1,.86.19A1.32,1.32,0,0,1,36,59c.55,1.68.46,3.64,1.57,5a3.59,3.59,0,0,0,4.65.68" style="fill:none;stroke:#50439b;stroke-linecap:square;stroke-linejoin:bevel;stroke-width:3px"/><path d="M37.07,41.34c-.88-.37-1.7-1-2.65-.94a2.4,2.4,0,0,0-1.43.77,3.84,3.84,0,0,0-1,3.32c.14.73.49,1.41.67,2.13a3.7,3.7,0,0,1-.46,3.09,2.46,2.46,0,0,1-2.85.9" style="fill:none;stroke:#50439b;stroke-linecap:square;stroke-linejoin:bevel;stroke-width:3px"/><path d="M48.44,24.76c-1.14.68-.66,2.66,0,3.78.8,1.27,2.42,2.12,2.57,3.62a5,5,0,0,1-1,2.76,2.83,2.83,0,0,0-.29,2.81" style="fill:none;stroke:#50439b;stroke-linecap:square;stroke-linejoin:bevel;stroke-width:3px"/><path d="M49.57,43.16c-.85-.78-2.23-1.4-3.06-.61" style="fill:none;stroke:#50439b;stroke-linecap:square;stroke-linejoin:bevel;stroke-width:3px"/><path d="M49.41,60.77A5.55,5.55,0,0,1,44,58.65c-1.62-2.11-2-8.62-7.19-6.63" style="fill:none;stroke:#50439b;stroke-linecap:square;stroke-linejoin:bevel;stroke-width:3px"/><path d="M28.44,86.42a3,3,0,0,0,1.39,2.42,3.79,3.79,0,0,0,2.81.44c1-.21,1.85-.75,2.83-.94a2.14,2.14,0,0,1,2.5,1.1" style="fill:none;stroke:#50439b;stroke-linecap:square;stroke-linejoin:bevel;stroke-width:3px"/><path d="M49.34,85.78c.81,1.8.07,3.82-.16,5.77A12.64,12.64,0,0,0,49,94.26a2.44,2.44,0,0,0,1.44,2.14" style="fill:none;stroke:#50439b;stroke-linecap:square;stroke-linejoin:bevel;stroke-width:3px"/><path d="M61.39,30.46c0-4.71-.71-11.24,2.78-13.26,3.33-1.93,7.72,2.54,10,6.35,3,5,8.34.63,10.62,7.4,2.61,7.75,9.33,7.85,8.38,13.94a51.86,51.86,0,0,0,0,5.48c-.13,3.81,7.15,6.71,7.32,10.52.13,2.81-2.3,5.31-2.51,8.11-.23,3,2.06,5.86,1.45,8.79C98.81,81,95,83,93.76,86.07c-1.07,2.53-.56,5.87-3.2,7.38-1.22.7-2.79.76-4.12,1.29C83.24,96,82.19,99.61,79.1,101s-6.72.43-9.84,1.48c-5,1.68-6.84.64-7.37-4.64-.35-3.5-.55-16.63-.42-20.22q.54-15.25.18-30.5C61.53,41.52,61.44,36.1,61.39,30.46Z" style="fill:none;stroke:#50439b;stroke-linecap:square;stroke-linejoin:bevel;stroke-width:3px"/><path d="M81.74,82.47c2.29-.64,8.69-2.69,8.69-5.07,0-4-3.43-5.24-3.51-7.59-.12-3.4,6.09-1.49,4.73-6.4" style="fill:none;stroke:#50439b;stroke-linecap:square;stroke-linejoin:bevel;stroke-width:3px"/><path d="M78.33,33.14c-1.38,1.07-3.73,3.85-3.88,5.59-.19,2.19.76,4.33.75,6.52a2.76,2.76,0,0,1-.35,1.52c-.79,1.21-4.85.64-6.26,5.67" style="fill:none;stroke:#50439b;stroke-linecap:square;stroke-linejoin:bevel;stroke-width:3px"/><path d="M77.34,95.22c-2.75,1.36-4.79-1.26-5-4-.17-2.43,4.88-6.37,1.65-8.71-1.54-1.12-5.05-1.86-5.39-5.07-.31-3,2.62-3.42,2.6-5.32a4.9,4.9,0,0,0-1.87-3.75" style="fill:none;stroke:#50439b;stroke-linecap:square;stroke-linejoin:bevel;stroke-width:3px"/><path d="M83.3,76.46c-3.46.2-2-6.21-4.43-6.21-2.8,0-2.91,4.48-3.6,7.16" style="fill:none;stroke:#50439b;stroke-linecap:square;stroke-linejoin:bevel;stroke-width:3px"/><path d="M91.64,56.56c-1.39.49-2,2.19-3.36,2.79-2,.88-4.07-1-6.23-1.14a1.24,1.24,0,0,0-.86.19,1.32,1.32,0,0,0-.38.65c-.55,1.68-.46,3.64-1.57,5a3.59,3.59,0,0,1-4.65.68" style="fill:none;stroke:#50439b;stroke-linecap:square;stroke-linejoin:bevel;stroke-width:3px"/><path d="M79.78,41.34c.88-.37,1.7-1,2.65-.94a2.4,2.4,0,0,1,1.43.77,3.84,3.84,0,0,1,1,3.32c-.14.73-.49,1.41-.67,2.13a3.7,3.7,0,0,0,.46,3.09,2.46,2.46,0,0,0,2.85.9" style="fill:none;stroke:#50439b;stroke-linecap:square;stroke-linejoin:bevel;stroke-width:3px"/><path d="M68.42,24.76c1.14.68.66,2.66,0,3.78-.8,1.27-2.42,2.12-2.57,3.62a5,5,0,0,0,1,2.76,2.83,2.83,0,0,1,.29,2.81" style="fill:none;stroke:#50439b;stroke-linecap:square;stroke-linejoin:bevel;stroke-width:3px"/><path d="M67.29,43.16c.85-.78,2.23-1.4,3.06-.61" style="fill:none;stroke:#50439b;stroke-linecap:square;stroke-linejoin:bevel;stroke-width:3px"/><path d="M67.44,60.77a5.55,5.55,0,0,0,5.37-2.11C74.44,56.54,74.77,50,80,52" style="fill:none;stroke:#50439b;stroke-linecap:square;stroke-linejoin:bevel;stroke-width:3px"/><path d="M88.41,86.42A3,3,0,0,1,87,88.84a3.79,3.79,0,0,1-2.81.44c-1-.21-1.85-.75-2.83-.94a2.14,2.14,0,0,0-2.5,1.1" style="fill:none;stroke:#50439b;stroke-linecap:square;stroke-linejoin:bevel;stroke-width:3px"/><path d="M67.51,85.78c-.81,1.8-.07,3.82.16,5.77a12.64,12.64,0,0,1,.23,2.71,2.44,2.44,0,0,1-1.44,2.14" style="fill:none;stroke:#50439b;stroke-linecap:square;stroke-linejoin:bevel;stroke-width:3px"/></svg>