<svg id="Layer_1" data-name="Layer 1" xmlns="http://www.w3.org/2000/svg" viewBox="0 0 120 120"><title>cell</title><path d="M22,62.66C17.81,73.5,25.67,81.43,33.71,89.48,40.27,96,56.31,100.6,65.77,99.32c6.8-.92,35.78.36,33.6-35.35-.67-11-8.67-11-14.18-17.83-4.92-6.12-4.89-17-12-20.22s-13.15-6.74-20.8-5c-3.76.87-23.41,4.85-30.22,15.38C17.37,43.72,24.8,55.59,22,62.66Z" style="fill:none;stroke:#50439b;stroke-linecap:square;stroke-linejoin:bevel;stroke-width:3px"/><path d="M56.36,48.58C56,50.41,58.13,52,60,52.15a3.57,3.57,0,0,0,3.65-3.4,3.7,3.7,0,0,0-3.53-3.59,3.85,3.85,0,0,0-3.75,3.42" style="fill:none;stroke:#50439b;stroke-linecap:square;stroke-linejoin:bevel;stroke-width:3px"/><path d="M51.3,43.25a15.88,15.88,0,0,0-2.38,6.09,7,7,0,0,0,2,6,9.86,9.86,0,0,0,3.47,1.79c4,1.37,8.68,2.23,12.25,0a8.89,8.89,0,0,0,3.94-6.56,10.67,10.67,0,0,0-2.18-7.42C63.6,36.87,55.32,36.46,51.3,43.25Z" style="fill:none;stroke:#50439b;stroke-linecap:square;stroke-linejoin:bevel;stroke-width:3px"/><path d="M43.72,48.57a13.15,13.15,0,0,0,9.15,13.66,19.22,19.22,0,0,1,6,3.13c1.54,2.67-1.33,4.55-4.18,3.41A33.67,33.67,0,0,1,40.84,58.19a6.18,6.18,0,0,0-2.56-2.49c-1.13,1.52-.7,5.12.42,6.65C41.6,66.29,47,70,52.54,73.38" style="fill:none;stroke:#50439b;stroke-linecap:square;stroke-linejoin:bevel;stroke-width:3px"/><path d="M67.25,63.56c2.49.11,4.31-2.27,5.46-4.49s3.18-7.91,3.63-8.25a1.8,1.8,0,0,1,2.52,1,4.68,4.68,0,0,1-.1,3c-.56,2-6.47,12.53-6,13,.84.93,3.15,1.33,4,.39a26.51,26.51,0,0,0,6-11.44" style="fill:none;stroke:#50439b;stroke-linecap:square;stroke-linejoin:bevel;stroke-width:3px"/><path d="M66.16,83.33a6.56,6.56,0,0,0-4.3,2.25c-1,1.35-.69,3.63.85,4.23a4.3,4.3,0,0,0,2.72-.17l7.25-2.09a7.37,7.37,0,0,0,2.38-1,5.54,5.54,0,0,0,1.21-1.31,11.15,11.15,0,0,0,1.83-4.34A1.68,1.68,0,0,0,78,79.66a1.61,1.61,0,0,0-.86-.55c-3-1-3.79,0-5.64,1.5S68.93,82.81,66.16,83.33Z" style="fill:none;stroke:#50439b;stroke-linecap:square;stroke-linejoin:bevel;stroke-width:3px"/><path d="M31.57,65.59c-1.32.81-1.12,2.9-.14,4.1s2.45,1.89,3.6,2.93a7.65,7.65,0,0,1,2.42,4.45c.19,1.17.17,2.53,1.08,3.29a2.32,2.32,0,0,0,3.17-.54,3.73,3.73,0,0,0,.37-3.43,10.42,10.42,0,0,0-1.88-3C38.87,71.72,34.23,64,31.57,65.59Z" style="fill:none;stroke:#50439b;stroke-linecap:square;stroke-linejoin:bevel;stroke-width:3px"/><path d="M35,39.57a23.69,23.69,0,0,1,11.14-5.35" style="fill:none;stroke:#50439b;stroke-linecap:square;stroke-linejoin:bevel;stroke-width:3px"/><path d="M29,50.33A3.66,3.66,0,0,0,32.39,49" style="fill:none;stroke:#50439b;stroke-linecap:square;stroke-linejoin:bevel;stroke-width:3px"/><path d="M68.35,33.84c2,.47,2.54,2.95,2.74,5" style="fill:none;stroke:#50439b;stroke-linecap:square;stroke-linejoin:bevel;stroke-width:3px"/><path d="M82.75,70.91a5.14,5.14,0,0,0,4.9-3.77" style="fill:none;stroke:#50439b;stroke-linecap:square;stroke-linejoin:bevel;stroke-width:3px"/><path d="M48,83l.29,3.1" style="fill:none;stroke:#50439b;stroke-linecap:square;stroke-linejoin:bevel;stroke-width:3px"/></svg>