<svg id="Layer_1" data-name="Layer 1" xmlns="http://www.w3.org/2000/svg" viewBox="0 0 81.96 81.98"><title>cell</title><path d="M62.3,101c-10.1,0-23.8-4.7-29.7-10.5-8.1-8.1-16.6-16.6-12-28.4h0c1.1-2.8.3-6.7-.5-10.8-1.1-5.5-2.2-11.3.8-15.8,4.5-7,14.8-12.3,30.5-15.9l.6-.1c7.3-1.6,13.1,1.1,19.3,4a25.57,25.57,0,0,0,2.4,1.1c4.8,2.2,6.7,7.3,8.5,12.2,1.1,3,2.3,6.2,4.1,8.5a27.65,27.65,0,0,0,5.9,5.1c4,2.8,8.1,5.7,8.6,13.6,2.1,33.9-23.1,35.9-32.6,36.7-.9.1-1.7.1-2.3.2C64.8,101,63.6,101,62.3,101ZM23.4,63.2c-3.9,10,3.5,17.4,11.4,25.2,6,5.9,21.5,10.7,30.8,9.4a15.74,15.74,0,0,1,2.5-.2c9.5-.8,31.7-2.6,29.8-33.5-.4-6.5-3.4-8.6-7.3-11.3a28,28,0,0,1-6.5-5.7,33.65,33.65,0,0,1-4.6-9.3c-1.7-4.5-3.2-8.8-6.9-10.5a27.18,27.18,0,0,0-2.5-1.1c-6-2.8-11.1-5.2-17.4-3.8l-.6.1c-14.9,3.4-24.6,8.3-28.6,14.6-2.3,3.6-1.3,8.7-.3,13.6C24,55.3,24.8,59.6,23.4,63.2Z" transform="translate(-18.96 -19.02)" fill="#1d0e4c"/><path d="M60.1,53.7H60a5.79,5.79,0,0,1-4.3-2.3,4.13,4.13,0,0,1-.7-1.5h-.2l.1-1a1.27,1.27,0,0,1,.1-.6v-.1a.76.76,0,0,1,.1-.4l.2-1h.1a5.42,5.42,0,0,1,4.8-3.2,5.24,5.24,0,0,1,5.1,5v.1A5.4,5.4,0,0,1,60.1,53.7Zm-2.3-4.6a1.69,1.69,0,0,0,.2.5,3.09,3.09,0,0,0,2.1,1.1,2.05,2.05,0,0,0,2-1.9A2.34,2.34,0,0,0,60,46.7a2.23,2.23,0,0,0-2.1,1.8v.3Z" transform="translate(-18.96 -19.02)" fill="#1d0e4c"/><path d="M61.4,60a25.06,25.06,0,0,1-7.5-1.4,12,12,0,0,1-3.9-2l-.1-.1a8.54,8.54,0,0,1-2.4-7.3,18.35,18.35,0,0,1,2.6-6.7,10.85,10.85,0,0,1,8.8-5.6,13.07,13.07,0,0,1,10.8,5.4,12.24,12.24,0,0,1,2.5,8.5,10.65,10.65,0,0,1-4.6,7.7A12.92,12.92,0,0,1,61.4,60Zm-9.5-5.8a8,8,0,0,0,2.9,1.5c4.9,1.7,8.5,1.7,11,.2A7.32,7.32,0,0,0,69,50.5a9.33,9.33,0,0,0-1.9-6.4C65,41.2,62,39.6,59,39.8A8,8,0,0,0,52.6,44v.1a15.51,15.51,0,0,0-2.2,5.5A5.53,5.53,0,0,0,51.9,54.2Zm-.6-11Z" transform="translate(-18.96 -19.02)" fill="#1d0e4c"/><path d="M53,75.4l-1.3-.8c-5.3-3.2-11.1-7.1-14.3-11.4-1.5-2-2-6.3-.4-8.4l1.9-.4a7.47,7.47,0,0,1,3.1,3,31.85,31.85,0,0,0,13.2,10,2.39,2.39,0,0,0,2.4-.2c.1-.1.3-.3,0-.8a17.71,17.71,0,0,0-5.3-2.7A14.53,14.53,0,0,1,42.1,48.5l.1-1.5,3,.3-.1,1.5a11.53,11.53,0,0,0,8.1,12.1,21.31,21.31,0,0,1,6.5,3.4l.4.4a3.88,3.88,0,0,1-.2,4.5,5.08,5.08,0,0,1-5.8,1A36,36,0,0,1,39.6,59.1l-.1-.2c-.1-.2-.3-.4-.4-.6a6.32,6.32,0,0,0,.8,3.2c2.9,3.9,8.7,7.8,13.4,10.6l1.3.8Z" transform="translate(-18.96 -19.02)" fill="#1d0e4c"/><path d="M75.2,70.2h0a5.33,5.33,0,0,1-3.6-1.4c-.9-.9-.6-1.6,2.9-8.6,1.1-2.3,2.6-5.1,2.8-5.8v-.1a3.42,3.42,0,0,0,.1-2l-.1-.1c-.3.7-.8,2-1.2,2.9-.7,1.7-1.4,3.6-2,4.7-2.3,4.5-5,5.4-6.9,5.3L65.7,65l.1-3,1.5.1c1.8,0,3.3-2.3,4.1-3.7.5-1,1.2-2.8,1.9-4.4,1.3-3.3,1.6-3.9,2.2-4.3l.2-.1a3.13,3.13,0,0,1,2.5-.2A3.33,3.33,0,0,1,80.1,51c.1.1.1.3.2.4a6.1,6.1,0,0,1-.1,4,47.14,47.14,0,0,1-3,6.3c-.9,1.8-2.1,4.2-2.7,5.5.5.1,1,.2,1.2,0a24.35,24.35,0,0,0,5.6-10.8l.4-1.5,2.9.7-.4,1.5a28.69,28.69,0,0,1-6.3,12.1A3.47,3.47,0,0,1,75.2,70.2Zm-1.4-3.4Z" transform="translate(-18.96 -19.02)" fill="#1d0e4c"/><path d="M63.8,91.5a7.72,7.72,0,0,1-1.5-.2l-.2-.1a3.49,3.49,0,0,1-2.2-2.5,4.69,4.69,0,0,1,.7-4l.1-.1a8.15,8.15,0,0,1,5.2-2.8,7.62,7.62,0,0,0,4.3-2.1l.8-.6c1.6-1.4,3.1-2.5,6.5-1.4a3.36,3.36,0,0,1,1.6,1l.2.3a3.6,3.6,0,0,1,.2,2.3,11.26,11.26,0,0,1-2.1,4.9,5.72,5.72,0,0,1-1.5,1.6l-.1.1A8.62,8.62,0,0,1,73,89l-7.1,2A5.37,5.37,0,0,1,63.8,91.5Zm-.6-3.1a3.28,3.28,0,0,0,1.7-.1l.1-.1,7.2-2.1a5.45,5.45,0,0,0,1.9-.8,6.47,6.47,0,0,0,.8-.9,9.1,9.1,0,0,0,1.6-3.8v-.1c-1.9-.6-2.3-.4-3.7.8l-.7.7a10.56,10.56,0,0,1-5.7,2.8h-.1A5.85,5.85,0,0,0,63,86.5a2.2,2.2,0,0,0-.2,1.4C62.9,88,63,88.3,63.2,88.4Zm3-5.1Z" transform="translate(-18.96 -19.02)" fill="#1d0e4c"/><path d="M39.8,82.3a3.32,3.32,0,0,1-2.1-.7l-.1-.1a4.84,4.84,0,0,1-1.5-3.6c0-.2-.1-.4-.1-.6a6.34,6.34,0,0,0-1.9-3.6,11.32,11.32,0,0,0-1.3-1,11.67,11.67,0,0,1-2.4-2.1,5.12,5.12,0,0,1-1.1-3.9,3.39,3.39,0,0,1,1.6-2.4h0c3.4-2,7.2,3.4,9.7,7q.6.75.9,1.2a9.77,9.77,0,0,1,2.1,3.4,5.42,5.42,0,0,1-.5,4.8A4.54,4.54,0,0,1,39.8,82.3Zm-.4-3.1a.91.91,0,0,0,1.1-.2,2.29,2.29,0,0,0,.2-2,8.21,8.21,0,0,0-1.6-2.5c-.3-.4-.6-.8-1-1.4-3.8-5.5-5.2-6.2-5.7-6.1a1.09,1.09,0,0,0-.2.4,2,2,0,0,0,.4,1.5,9,9,0,0,0,1.8,1.5A18.26,18.26,0,0,1,36,71.7,9.33,9.33,0,0,1,38.9,77c0,.2.1.5.1.7A5.41,5.41,0,0,0,39.4,79.2Z" transform="translate(-18.96 -19.02)" fill="#1d0e4c"/><path d="M34.8,41.7l-2-2.3,1.1-1a25.51,25.51,0,0,1,11.8-5.7l1.5-.3.5,2.9-1.5.3a21.09,21.09,0,0,0-10.4,5Z" transform="translate(-18.96 -19.02)" fill="#1d0e4c"/><path d="M29.5,51.9a1.7,1.7,0,0,1-.7-.1l-1.5-.2.4-3,1.5.2a2.17,2.17,0,0,0,2-.8l.9-1.2,2.3,1.9-.9,1.2A4.79,4.79,0,0,1,29.5,51.9Z" transform="translate(-18.96 -19.02)" fill="#1d0e4c"/><path d="M69.7,40.5,69.6,39c-.2-2.2-.8-3.5-1.6-3.7L66.5,35l.7-2.9,1.5.3c3.3.8,3.8,4.9,3.9,6.3l.1,1.5Z" transform="translate(-18.96 -19.02)" fill="#1d0e4c"/><path d="M81.3,72.4v-3h1.5a3.72,3.72,0,0,0,3.5-2.7l.4-1.4,2.9.8-.4,1.4a6.85,6.85,0,0,1-6.3,4.9Z" transform="translate(-18.96 -19.02)" fill="#1d0e4c"/><rect x="46.6" y="81.5" width="3" height="6.1" transform="translate(-26.63 -14.17) rotate(-5.35)" fill="#1d0e4c"/></svg>