<svg id="Layer_1" data-name="Layer 1" xmlns="http://www.w3.org/2000/svg" viewBox="0 0 120 120"><title>cough</title><path d="M28.07,57.44c6.41-3,14.4-2.9,21.33-.28,3.3,1.25,7.16,3.15,10.8,3.18" style="fill:none;stroke:#50439b;stroke-miterlimit:10;stroke-width:3px"/><path d="M60.08,51.77c-3.15,0-6-2.87-5.76-5.25s1.34-4.86,0-7.07c-1.93-3.29-8-3.81-12.38-2.72C31.23,39.38,24.72,49.08,28.07,57.44c.78,1.93.27,4.63,2.09,6.13,2.47,2,6.17,2.86,9.67,3.58a138.44,138.44,0,0,0,19.87,3.07" style="fill:none;stroke:#50439b;stroke-miterlimit:10;stroke-width:3px"/><path d="M59.87,18.67c-2.53.11-10.36,0-12.68.71a22,22,0,0,0-5.51,2.84C34.9,26.74,29.23,32.57,27.52,39.37A31.49,31.49,0,0,0,26.89,48q.1,3.39.38,6.78" style="fill:none;stroke:#50439b;stroke-miterlimit:10;stroke-width:3px"/><path d="M28.4,58.63c.55,2.31,1.64,8,2.58,10.3C31.48,70.1,32,72,33.08,73c1.26,1.17,3.11,3.32,5,3.88,6.88,2.06,15,1.85,22.39,1.55" style="fill:none;stroke:#50439b;stroke-miterlimit:10;stroke-width:3px"/><path d="M60.37,13.61c-3.66,0-8.36-3-14-3-3.16,0-6.08,2.44-8.07,4.27C32.44,20.29,29.45,30.36,28,37.69" style="fill:none;stroke:#50439b;stroke-linecap:square;stroke-linejoin:bevel;stroke-width:3px"/><path d="M32.1,29.94a135.14,135.14,0,0,1,28.34-2" style="fill:none;stroke:#50439b;stroke-miterlimit:10;stroke-width:3px"/><path d="M59.85,18.61q0,4.31.23,8.62" style="fill:none;stroke:#50439b;stroke-miterlimit:10;stroke-width:3px"/><path d="M48.17,20q.44,3.79.64,7.58" style="fill:none;stroke:#50439b;stroke-miterlimit:10;stroke-width:3px"/><path d="M39.43,23.82a20.86,20.86,0,0,0,.48,4.52" style="fill:none;stroke:#50439b;stroke-miterlimit:10;stroke-width:3px"/><path d="M91.49,57.44c-6.41-3-14.4-2.9-21.33-.28-3.3,1.25-7.16,3.15-10.8,3.18" style="fill:none;stroke:#50439b;stroke-miterlimit:10;stroke-width:3px"/><path d="M59.48,51.77c3.15,0,6-2.87,5.76-5.25s-1.34-4.86,0-7.07c1.93-3.29,8-3.81,12.38-2.72,10.76,2.65,17.27,12.34,13.91,20.71-.78,1.93-.27,4.63-2.09,6.13-2.47,2-6.17,2.86-9.67,3.58A143.35,143.35,0,0,1,59.5,70.21" style="fill:none;stroke:#50439b;stroke-miterlimit:10;stroke-width:3px"/><path d="M59.69,18.67c2.53.11,10.36,0,12.68.71a22,22,0,0,1,5.51,2.84C84.67,26.74,90.33,32.57,92,39.37A31.49,31.49,0,0,1,92.68,48q-.1,3.39-.38,6.78" style="fill:none;stroke:#50439b;stroke-miterlimit:10;stroke-width:3px"/><path d="M91.16,58.63c-.55,2.31-1.64,8-2.58,10.3-.49,1.18-1.06,3.09-2.09,4-1.26,1.17-3.11,3.32-5,3.88-6.88,2.06-14,1.85-21.31,1.55" style="fill:none;stroke:#50439b;stroke-miterlimit:10;stroke-width:3px"/><path d="M61.35,13.61c6.84-.19,7-3.17,11.82-3,3.16.13,6.08,2.44,8.07,4.27,5.87,5.39,8.87,15.46,10.28,22.78" style="fill:none;stroke:#50439b;stroke-miterlimit:10;stroke-width:3px"/><path d="M87.47,29.94a135.14,135.14,0,0,0-28.34-2" style="fill:none;stroke:#50439b;stroke-miterlimit:10;stroke-width:3px"/><path d="M71.4,20q-.44,3.79-.64,7.58" style="fill:none;stroke:#50439b;stroke-miterlimit:10;stroke-width:3px"/><path d="M80.13,23.82a20.86,20.86,0,0,1-.48,4.52" style="fill:none;stroke:#50439b;stroke-miterlimit:10;stroke-width:3px"/><path d="M23.56,75.25a135.18,135.18,0,0,1-7.29,21.67,106,106,0,0,0,28.27-8.16l2.67,20.62A102.51,102.51,0,0,0,62.92,93.21,109,109,0,0,0,82,107.39l3.24-17.06a44.79,44.79,0,0,0,18.48,4s-6.15-16.55-4.86-20.42" style="fill:none;stroke:#50439b;stroke-miterlimit:10;stroke-width:3px"/></svg>