<?xml version="1.0" encoding="utf-8"?>
<!-- Generator: Adobe Illustrator 21.0.0, SVG Export Plug-In . SVG Version: 6.00 Build 0)  -->
<svg version="1.1" id="Layer_1" xmlns="http://www.w3.org/2000/svg" xmlns:xlink="http://www.w3.org/1999/xlink" x="0px" y="0px"
	 viewBox="0 0 120 120" style="enable-background:new 0 0 120 120;" xml:space="preserve">
<style type="text/css">
	.st0{fill:#1D0E4C;}
</style>
<title>cough</title>
<path class="st0" d="M60.2,61.8c-3.2,0-6.5-1.3-9.4-2.5c-0.7-0.3-1.3-0.5-1.9-0.8c-6.8-2.6-14.3-2.5-20.2,0.2l-1.3-2.7
	c6.5-3.1,14.9-3.2,22.5-0.3c0.6,0.2,1.3,0.5,2,0.8c2.8,1.1,5.6,2.3,8.3,2.3L60.2,61.8z"/>
<path class="st0" d="M59.6,71.7c-6.7-0.5-13.5-1.6-20.1-3.1c-3.9-0.8-7.6-1.7-10.3-3.9c-1.6-1.3-1.9-3.3-2.1-4.8
	c-0.1-0.7-0.2-1.4-0.4-1.9c-1.5-3.9-1.3-8.1,0.8-12.1c2.6-5.1,7.9-9.1,14.1-10.6c5.1-1.3,11.7-0.5,14,3.4c1.3,2.1,0.9,4.3,0.5,6.2
	c-0.1,0.6-0.2,1.2-0.3,1.7c-0.1,0.6,0.3,1.3,0.9,2c0.9,1,2.2,1.6,3.4,1.6v3c-2.1,0-4.2-1-5.6-2.6c-1.2-1.3-1.8-2.9-1.6-4.3
	c0.1-0.7,0.2-1.4,0.3-2c0.3-1.6,0.6-3-0.1-4.1c-1.4-2.5-6.7-3-10.7-2c-5.4,1.3-10,4.7-12.2,9.1c-1.6,3.2-1.9,6.6-0.6,9.6
	c0.3,0.9,0.5,1.8,0.6,2.6c0.2,1.4,0.4,2.3,1.1,2.9c2.2,1.7,5.5,2.5,9,3.3c6.5,1.5,13.1,2.5,19.7,3L59.6,71.7z"/>
<path class="st0" d="M25.8,54.9c-0.2-2.3-0.3-4.6-0.4-6.9c-0.2-3,0-6,0.7-9c1.6-6.5,6.7-12.7,14.8-18.1c1.8-1.3,3.8-2.3,5.8-3
	c1.9-0.6,5.8-0.7,10.5-0.7c1.1,0,2,0,2.6-0.1l0.1,3c-0.6,0-1.6,0-2.7,0.1c-3,0-8,0.1-9.6,0.6c-1.8,0.6-3.5,1.5-5.1,2.6
	c-5.2,3.5-11.8,9.1-13.6,16.3c-0.6,2.6-0.8,5.4-0.6,8.2c0.1,2.3,0.2,4.5,0.4,6.8L25.8,54.9z"/>
<path class="st0" d="M52.9,80.1c-5.4,0-10.5-0.4-15.3-1.8c-1.9-0.6-3.5-2.2-4.8-3.5c-0.3-0.3-0.5-0.5-0.8-0.7
	c-1.1-1-1.7-2.5-2.1-3.8c-0.1-0.3-0.2-0.6-0.3-0.8c-0.8-1.9-1.5-5.4-2.2-8.3c-0.2-0.9-0.4-1.7-0.5-2.2l2.9-0.7
	c0.1,0.6,0.3,1.4,0.5,2.3c0.6,2.6,1.3,6.2,2,7.8c0.1,0.3,0.2,0.6,0.4,0.9c0.4,0.9,0.8,2.1,1.4,2.6c0.3,0.2,0.5,0.5,0.8,0.8
	c1,1,2.4,2.4,3.6,2.7c6.5,1.9,14,1.8,21.9,1.5l0.1,3C58,80,55.4,80.1,52.9,80.1z"/>
<path class="st0" d="M29.2,39.5l-2.9-0.6l0.3-1.5c1.5-7.6,4.6-17.9,10.8-23.6c2.5-2.3,5.6-4.7,9.1-4.7c3.4,0,6.3,1,9,1.8
	c2,0.6,3.7,1.2,5,1.2h1.5v3h-1.5c-1.9,0-3.9-0.6-6-1.3c-2.4-0.8-5.1-1.7-8-1.7c-2.5,0-5.1,2.1-7.1,3.9c-5.6,5.1-8.4,14.8-9.8,22
	L29.2,39.5z"/>
<path class="st0" d="M32.4,31.4l-0.5-3c9.4-1.7,19.1-2.4,28.7-2l-0.1,3C51,29.1,41.6,29.8,32.4,31.4z"/>
<path class="st0" d="M58.6,27.3c-0.2-2.9-0.2-5.8-0.2-8.7h3c0,2.8,0.1,5.7,0.2,8.5L58.6,27.3z"/>
<path class="st0" d="M47.3,27.7c-0.1-2.5-0.3-5-0.6-7.5l3-0.3c0.3,2.5,0.5,5.1,0.6,7.7L47.3,27.7z"/>
<path class="st0" d="M38.4,28.7c-0.3-1.6-0.5-3.2-0.5-4.8l3,0c0,1.4,0.1,2.8,0.4,4.2L38.4,28.7z"/>
<path class="st0" d="M59.4,61.8l0-3c2.7,0,5.5-1.2,8.3-2.3c0.7-0.3,1.3-0.5,2-0.8c7.6-2.9,16-2.7,22.5,0.3l-1.3,2.7
	C85,56.1,77.5,56,70.7,58.6c-0.6,0.2-1.3,0.5-1.9,0.8C65.9,60.5,62.6,61.8,59.4,61.8z"/>
<path class="st0" d="M59.6,71.7l-0.2-3c6.7-0.5,13.5-1.5,20.1-3c3.5-0.7,6.9-1.5,9.1-3.3c0.7-0.5,0.8-1.5,1-2.9
	c0.1-0.9,0.3-1.8,0.6-2.6c1.2-3,1-6.4-0.6-9.6c-2.2-4.3-6.8-7.7-12.2-9.1c-4-1-9.3-0.4-10.7,2c-0.7,1.2-0.4,2.5-0.1,4.2
	c0.1,0.6,0.3,1.3,0.3,2c0.1,1.4-0.5,3-1.6,4.3c-1.5,1.6-3.6,2.6-5.6,2.6v-3c1.2,0,2.5-0.6,3.4-1.6c0.6-0.7,0.9-1.4,0.9-2
	c-0.1-0.6-0.2-1.1-0.3-1.7c-0.4-1.9-0.8-4.1,0.5-6.3c2.3-3.9,8.9-4.7,14-3.4c6.3,1.5,11.6,5.5,14.2,10.6c2,4,2.3,8.2,0.7,12.1
	c-0.2,0.5-0.3,1.2-0.4,1.9c-0.2,1.5-0.5,3.5-2.1,4.8c-2.7,2.2-6.4,3.1-10.3,3.9C73.4,70.1,66.5,71.2,59.6,71.7z"/>
<path class="st0" d="M93.8,54.9l-3-0.2c0.2-2.2,0.3-4.5,0.4-6.7c0.2-2.8-0.1-5.6-0.6-8.3c-1.8-7.2-8.3-12.8-13.5-16.2
	c-1.6-1.1-3.3-2-5.2-2.7c-1.5-0.5-6.5-0.5-9.5-0.6c-1.1,0-2.1,0-2.7-0.1l0.1-3c0.6,0,1.6,0,2.6,0.1c4.6,0.1,8.6,0.2,10.4,0.7
	c2.2,0.7,4.1,1.8,5.9,3.1c8,5.3,13.1,11.6,14.7,18c0.7,3,0.9,6,0.7,9.1C94.1,50.3,94,52.6,93.8,54.9z"/>
<path class="st0" d="M67.4,80.1c-2.5,0-4.9-0.1-7.3-0.2l0.1-3c6.5,0.3,13.9,0.6,20.8-1.5c1.2-0.3,2.6-1.7,3.6-2.7
	c0.3-0.3,0.6-0.6,0.8-0.8c0.6-0.5,1.1-1.8,1.4-2.7c0.1-0.3,0.2-0.5,0.3-0.8c0.7-1.6,1.4-5.2,2-7.8c0.2-0.9,0.4-1.7,0.5-2.3l2.9,0.7
	c-0.1,0.6-0.3,1.3-0.5,2.2c-0.6,2.9-1.4,6.5-2.2,8.3c-0.1,0.2-0.2,0.5-0.3,0.7c-0.5,1.3-1.1,2.9-2.2,3.8c-0.2,0.2-0.5,0.4-0.7,0.7
	c-1.3,1.3-2.9,2.9-4.8,3.5C77.1,79.7,72.1,80.1,67.4,80.1z"/>
<path class="st0" d="M90,37.9c-1.1-5.9-3.9-16.5-9.8-22c-1-0.9-4.1-3.8-7.1-3.9c-1.9-0.1-2.8,0.4-4.2,1.1c-1.6,0.8-3.6,1.8-7.5,1.9
	l-0.1-3c3.3-0.1,4.8-0.9,6.3-1.6c1.5-0.7,3-1.5,5.6-1.4c3.7,0.2,6.9,2.7,9,4.7c6.2,5.7,9.3,16,10.7,23.6L90,37.9z"/>
<path class="st0" d="M87.2,31.4c-9.2-1.6-18.7-2.3-28-2l-0.1-3c9.6-0.3,19.2,0.3,28.7,2L87.2,31.4z"/>
<path class="st0" d="M72.3,27.7l-3-0.2c0.1-2.6,0.4-5.1,0.6-7.7l3,0.3C72.6,22.6,72.4,25.2,72.3,27.7z"/>
<path class="st0" d="M81.1,28.7L78.2,28c0.3-1.4,0.5-2.8,0.4-4.2l3,0C81.6,25.4,81.5,27.1,81.1,28.7z"/>
<path class="st0" d="M46.1,112.3l-2.8-21.3c-8.6,3.6-17.6,6.2-26.8,7.5l-2.7,0.4l1.1-2.5c3-6.9,5.4-14.1,7.2-21.4l2.9,0.7
	c-1.6,6.6-3.7,13.1-6.3,19.4c8.7-1.5,17.2-4,25.2-7.6l1.8-0.8l2.6,19.9c4.9-4.3,9.4-9,13.4-14.2l1-1.3l1.2,1.1
	c5.2,4.8,10.9,9.2,17,12.9l3.2-16.8l1.7,0.8c5,2.3,10.3,3.5,15.7,3.8c-1.8-5-5.3-15.8-4.1-19.3l2.8,0.9c-0.8,2.3,2.4,12.8,4.8,19.4
	l0.8,2l-2.2,0c-6,0-11.8-1.1-17.4-3.4l-3.3,17.3l-1.8-1.1c-6.5-3.8-12.6-8.3-18.1-13.3c-4.4,5.5-9.5,10.6-14.9,15.1L46.1,112.3z"/>
</svg>
