<svg id="Layer_1" data-name="Layer 1" xmlns="http://www.w3.org/2000/svg" viewBox="0 0 58.51 104.51"><title>cream</title><path d="M87.2,52.5l-1.3-4.2-.1-.3c-2.7-5.1-9.4-7.8-13.8-7.1-.8-.3-1.9-.7-3.1-1.2-3.3-1.3-7-2.8-9.8-2.4l.1-8.8c.1-5.1.1-9.9.2-15.8a5.75,5.75,0,0,0-1-4l-.1-.1a4.21,4.21,0,0,0-3.1-1.5,6.47,6.47,0,0,0-4.3,1.3l-.4.3a21.9,21.9,0,0,0-2.3,2.1,6.37,6.37,0,0,0-4.4-1.5,7.45,7.45,0,0,0-5.7,4,15.11,15.11,0,0,0-1.5,5.8c-1.7,14.7-1.8,28.5-1.9,43.2,0,2.3,0,4.7-.1,7-3.2,4.3-4.3,12.2-3.6,16.3a69.38,69.38,0,0,0,3,10.9,84.14,84.14,0,0,1,2.7,9.3,36.42,36.42,0,0,1,.4,5.7l3,.1a34.94,34.94,0,0,0-.4-6.4,68.67,68.67,0,0,0-2.8-9.7A74,74,0,0,1,34,85c-.7-3.3.2-10.5,3-14,4.4-2.3,10.5-5.5,14.7-7.6h.1v-.1a35.74,35.74,0,0,1,4.3-2,20.24,20.24,0,0,1,5.5-.7l7.7-.3h.1a8.24,8.24,0,0,1,3.5.4A1.6,1.6,0,0,1,74,62.1c-.2.6-1.3,1.2-1.7,1.4A32,32,0,0,1,62.5,67a10.68,10.68,0,0,0-3.6,1l-.1.1c-.6.3-.9.9-1.9,2.6a42.58,42.58,0,0,1-7.6,10l2,2.2c.4-.3.7-.7,1.1-1,0,3.1,0,5.6.2,9.3l3-.1c-.2-5-.3-7.7-.1-12.8a55.75,55.75,0,0,0,4-6.1,14.62,14.62,0,0,1,.9-1.5,6.37,6.37,0,0,1,.7-.2,2.1,2.1,0,0,1,.4,1.1v.2a58.38,58.38,0,0,0,6.7,16.1l2.6-1.6a52,52,0,0,1-6.3-15.2l-.3-1.2A35.06,35.06,0,0,0,74,66.3a5.77,5.77,0,0,0,3.2-3.6v-.2a4.55,4.55,0,0,0-1-3.2,14.56,14.56,0,0,0,5,1.5h.2l-.1-3c-.7.1-2.7-.7-4.1-1.3a26.61,26.61,0,0,0-3.9-1.4,9.78,9.78,0,0,1,3.5-4.2l-1.5-2.6a13.08,13.08,0,0,0-5.7,9.1h-.2l-7.4.2a43.36,43.36,0,0,1,1.4-6c.6-2.1,1.6-4.7,3.6-6.1a13.29,13.29,0,0,1,5.2-1.7c3.4-.6,8.8,1.6,10.9,5.4l1.2,4c2.2,9.4,2.6,12.2,1.3,21.2-.7,5.1-2.6,17-3.8,21.3a29.48,29.48,0,0,1-4.1,8.7c-1.5,2.3-2.8,4.3-2.8,7.1h3c0-1.9,1-3.4,2.3-5.5a30.78,30.78,0,0,0,4.5-9.6c1.2-4.4,3.1-16.5,3.8-21.6C89.9,65.4,89.5,62.2,87.2,52.5ZM38.7,27.2A6.53,6.53,0,0,0,44,30.4c.4,0,.7-.1,1.1-.1-.1,1.5-.1,3-.2,4.6a167.71,167.71,0,0,1-1.3,18.5c-1.3.2-2.7.4-4,.7l.6,2.9a48.74,48.74,0,0,1,10.1-1L49,61.3c-4,2-8.9,4.6-11.7,6.1v-5C37.7,50.4,37.8,39,38.7,27.2Zm8.2-8.9a8.17,8.17,0,0,0,2.6-.6,5,5,0,0,0,1.3-1.1c.2-.2.3-.4.5-.5h.2A4.36,4.36,0,0,1,54.3,18c.8,1.3.7,2.7.1,3.2a6.13,6.13,0,0,0-.6.4,5.58,5.58,0,0,0-1.6,1.2,5.4,5.4,0,0,0-1,2.2,2.82,2.82,0,0,1-.4,1.1h0c-.4.6-2.2.8-3.5.9a20.24,20.24,0,0,0-2.6.4c-1.4.4-3.3-.6-4-3-.4-1.4-.1-2.1,1.6-3.2.6-.4,1.1-.8,1.6-1.2a8.85,8.85,0,0,1,1.7-1.2C45.8,18.4,46.3,18.4,46.9,18.3Zm6,27.6L51.2,53c-1.5,0-2.9,0-4.4.1A164.84,164.84,0,0,0,48,35c.1-1.7.1-3.4.2-5.1,1.9-.2,3.9-.6,5-2a6.35,6.35,0,0,0,.9-2.1,2.82,2.82,0,0,1,.4-1.1,6.82,6.82,0,0,1,.7-.5,6.07,6.07,0,0,0,1-.7h0c0,1.6,0,3.3-.1,4.9L56,38.8C54.1,40.7,53.4,43.5,52.9,45.9Zm-.5-35,.4-.4a3.07,3.07,0,0,1,2.1-.6,1.43,1.43,0,0,1,1,.4,2.82,2.82,0,0,1,.4,2v3.5c-1.6-2-4.3-3.4-6.3-2.4A11.23,11.23,0,0,1,52.4,10.9ZM40.7,14.7a4.68,4.68,0,0,1,3.4-2.4,2.7,2.7,0,0,1,2.1.7,1.23,1.23,0,0,1,.5.8c-.1.5-.2,1-.3,1.6A7.06,7.06,0,0,0,44,16a15.94,15.94,0,0,0-2.1,1.5c-.5.4-.9.8-1.3,1.1a5.77,5.77,0,0,0-1,.8A10.49,10.49,0,0,1,40.7,14.7ZM65.4,43h0c-2.9,2-4.1,5.2-4.9,7.8a58.82,58.82,0,0,0-1.6,7,22.54,22.54,0,0,0-3.6.6,21.66,21.66,0,0,0-2.6,1.2l.9-3.8a2,2,0,0,0,.3-1.1l1.9-8.1c.5-2.3,1.1-4.7,2.7-6,1.3-1.1,5.5.4,8.5,1.6A6,6,0,0,0,65.4,43Z" transform="translate(-30.8 -7.09)" fill="#1d0e4c"/></svg>