<svg id="Layer_1" data-name="Layer 1" xmlns="http://www.w3.org/2000/svg" viewBox="0 0 120 120"><title>cream</title><path d="M50.35,81.81c5.3-4.81,8.53-12,9.23-12.38a11.21,11.21,0,0,1,3.26-.86,32.7,32.7,0,0,0,10.33-3.68c1.07-.6,2.2-1.39,2.42-2.55a3,3,0,0,0-2.1-3.09,10,10,0,0,0-4.14-.43l-7.74.29a22.65,22.65,0,0,0-5.81.72c-2.26.69-19.79,10-19.79,10-3.15,3.69-4.32,11.56-3.66,15.58,1.19,7.2,4.17,13,5.63,20.21a29.33,29.33,0,0,1,.39,6" style="fill:none;stroke:#50439b;stroke-miterlimit:10;stroke-width:3px"/><path d="M76.44,111.55c0-4.8,4.61-7,6.83-15.42,1.18-4.49,3.13-16.85,3.8-21.45,1.38-9.39.92-12.52-1.3-21.79l-1.28-4.24c-2.34-4.39-8.54-7.05-12.59-6.32a14.36,14.36,0,0,0-5.72,1.92c-2.27,1.57-3.44,4.28-4.25,6.92a44.21,44.21,0,0,0-1.54,6.94" style="fill:none;stroke:#50439b;stroke-miterlimit:10;stroke-width:3px"/><path d="M71.08,59.2c-1-2.88,1.92-8.05,4.8-9.66" style="fill:none;stroke:#50439b;stroke-miterlimit:10;stroke-width:3px"/><path d="M81.11,59.2c-2.13.1-7.22-2.93-9.35-2.84" style="fill:none;stroke:#50439b;stroke-miterlimit:10;stroke-width:3px"/><path d="M61.88,69.05A3.92,3.92,0,0,1,63,71.36a56.56,56.56,0,0,0,6.51,15.69" style="fill:none;stroke:#50439b;stroke-miterlimit:10;stroke-width:3px"/><path d="M54,78.05c-.14,5.17-.12,7.91.12,13.08" style="fill:none;stroke:#50439b;stroke-miterlimit:10;stroke-width:3px"/><path d="M57.58,39.39c.1-9.93.19-16.94.28-26.87a4.57,4.57,0,0,0-.72-3.07c-1.21-1.46-3.86-1.22-5.29,0s-3.31,2.65-3.66,4.42C45.94,25.29,47.07,43.38,45,54.79" style="fill:none;stroke:#50439b;stroke-miterlimit:10;stroke-width:3px"/><path d="M48.2,13.91c0-1.84-2.22-3.27-4.23-3.1A6,6,0,0,0,39.39,14,14.44,14.44,0,0,0,38,19.34c-2,17.09-1.81,33.24-2,50.44" style="fill:none;stroke:#50439b;stroke-miterlimit:10;stroke-width:3px"/><path d="M52.34,54.93c.26-.2-.21-.48-.55-.49a44.72,44.72,0,0,0-11.72,1" style="fill:none;stroke:#50439b;stroke-miterlimit:10;stroke-width:3px"/><path d="M71.9,42.33c-3.64-1-11.43-5.37-14.32-2.94-2,1.65-2.65,4.32-3.24,6.81l-4,16.89" style="fill:none;stroke:#50439b;stroke-miterlimit:10;stroke-width:3px"/><path d="M52,26.86c.66-.89.63-2.35,1.33-3.2.5-.61,1.33-.84,1.94-1.33,1.21-1,1.4-3.18.23-5.11s-3.68-3.21-5-2.42c-.67.39-1,1.18-1.68,1.56-1.17.67-2.9.25-4.09.94s-2.19,1.77-3.34,2.54c-1.48,1-3,2.31-2.16,4.91,1,3.13,3.66,4.62,5.86,4C47.09,28.17,50.77,28.52,52,26.86Z" style="fill:#fff;stroke:#50439b;stroke-miterlimit:10;stroke-width:3px"/></svg>