<svg id="Layer_1" data-name="Layer 1" xmlns="http://www.w3.org/2000/svg" viewBox="0 0 96.34 94.2"><title>dizziness</title><path d="M61.9,107.8c-12.7,0-23.6-5.2-35.8-16.6C14.9,80.6,9.8,63.5,13.4,47.6c3.2-14.4,15.4-27.4,31.7-34l1.1,2.8C30.8,22.6,19.3,34.8,16.3,48.2c-3.3,15,1.4,31,11.9,40.8,12.5,11.7,24.8,18.7,44.4,14.6,5.9-1.2,25.7-7.6,32.4-38.7,2.9-13.5-4.5-28.9-17.6-36.6-4.7-2.7-22.9-7.2-35.3-3.1C37.8,30,27.1,47.8,29.3,63.3c2.1,15.2,16.3,27.8,31.6,28.1,14.8.3,28.8-11.3,32.7-26.9,2-8.1-4-16.1-6.3-18.2-5.7-5.4-12.1-8.9-18.5-10.1-7.2-1.4-14.6.1-19.8,4.2-7.6,5.9-10.1,17.4-5.7,26.2C47.5,75.2,58,80.4,67.7,78.9a16.47,16.47,0,0,0,7.9-3.4c3.4-2.9,6.9-6,6.9-15.4A12,12,0,0,0,77.9,51a17.17,17.17,0,0,0-13.6-3.9,11.36,11.36,0,0,0-9,12.5,11.5,11.5,0,0,0,12.4,9.2A5.77,5.77,0,0,0,71,67.4c2.1-2,1.2-5.9.8-7.1-.3-.9-1.4-4-3.6-4.3l.4-3c2.7.3,5,2.7,6.1,6.4,1.3,4.2.6,8-1.7,10.2a9,9,0,0,1-5,2.2A14.41,14.41,0,0,1,52.3,60.2v-.1A14.44,14.44,0,0,1,63.7,44.2a20.59,20.59,0,0,1,16.1,4.5,14.79,14.79,0,0,1,5.7,11.4c0,10.7-4.4,14.6-8,17.7a19,19,0,0,1-9.4,4.1C57,83.7,45.4,77.9,40.6,68s-2.1-23.2,6.6-29.9c5.8-4.6,14.1-6.3,22.2-4.7A41.15,41.15,0,0,1,89.3,44.3c2.8,2.6,9.5,11.6,7.2,21.1C92.3,82.3,76.9,94.9,60.8,94.5c-16.7-.3-32.2-14.1-34.5-30.6C24,47.1,35.6,27.8,51.1,22.6c13.4-4.5,32.5.3,37.8,3.3,14.2,8.3,22.2,25,19,39.8A67.68,67.68,0,0,1,97.4,90.1c-6.4,9-14.6,14.6-24.3,16.6A62.46,62.46,0,0,1,61.9,107.8Z" transform="translate(-12.26 -13.6)" fill="#1d0e4c"/></svg>