<svg id="Layer_1" data-name="Layer 1" xmlns="http://www.w3.org/2000/svg" viewBox="0 0 120 120"><title>dizziness</title><path d="M68.32,54.64c2.53.32,4.11,2.9,4.85,5.33.89,2.94.95,6.54-1.28,8.66a7.45,7.45,0,0,1-4.15,1.79A13,13,0,0,1,53.68,60,13,13,0,0,1,63.91,45.76c9.17-1.57,20,5.15,20,14.45,0,9.76-3.65,13.22-7.49,16.55a17.24,17.24,0,0,1-8.58,3.7c-10.24,1.66-21.35-3.79-25.94-13.09s-2-21.7,6.17-28.08c5.82-4.55,13.78-5.88,21-4.45s13.81,5.43,19.19,10.5C90.6,47.54,97.24,56,95,65c-3.9,15.55-18.16,28.32-34.19,28S30,79.53,27.78,63.65s8.64-34.6,23.82-39.72c13.06-4.4,31.64.34,36.53,3.18,13.06,7.6,21.5,23.4,18.31,38.17S93.59,100.9,72.9,105.14c-19.28,4-32.06-2.21-45.69-15C16,79.66,11.51,62.94,14.87,47.91,18.29,32.65,31.19,20.83,45.69,15" style="fill:none;stroke:#50439b;stroke-miterlimit:10;stroke-width:3px"/></svg>