<svg id="Layer_1" data-name="Layer 1" xmlns="http://www.w3.org/2000/svg" viewBox="0 0 120 120"><title>dizziness</title><path d="M65.77,56.59c1.71.21,2.78,2,3.28,3.6.6,2,.64,4.42-.86,5.85a5,5,0,0,1-2.8,1.21,8.76,8.76,0,0,1-9.5-7.05,8.76,8.76,0,0,1,6.91-9.61c6.19-1.06,13.5,3.48,13.5,9.76,0,6.59-2.47,8.93-5.06,11.18a11.65,11.65,0,0,1-5.8,2.5A17,17,0,0,1,47.9,65.18c-3.11-6.28-1.36-14.66,4.17-19a17.69,17.69,0,0,1,14.2-3,26.89,26.89,0,0,1,13,7.09c1.58,1.49,6.07,7.21,4.54,13.31-2.63,10.5-12.27,19.13-23.1,18.91S39.86,73.4,38.38,62.68s5.83-23.37,16.09-26.83c8.82-3,21.38.23,24.68,2.15C88,43.13,93.68,53.8,91.52,63.78S82.84,87.84,68.86,90.7C55.84,93.37,47.2,89.21,38,80.6,30.4,73.49,27.39,62.2,29.66,52c2.31-10.31,11-18.29,20.82-22.26,14.56-5.89,33.4-3,42.62,9.7,7.9,10.89,7.08,26.28,1.24,38.4-3.52,7.3-8.84,13.93-15.94,17.84-9.56,5.27-21.66,5-31.53.37s-17.53-13.36-22-23.31a38.51,38.51,0,0,1-3.75-16.25c.16-10.31,5.95-20.07,14.15-26.32S53.83,21,64.13,20.45c5.3-.28,10.74.08,15.67,2.07" style="fill:none;stroke:#50439b;stroke-miterlimit:10;stroke-width:3px"/></svg>