<svg id="Layer_1" data-name="Layer 1" xmlns="http://www.w3.org/2000/svg" viewBox="0 0 81.19 80.8"><title>headache</title><path d="M99.2,78.8a7.55,7.55,0,0,0-4.8-3.1.37.37,0,0,1-.3-.1,34.66,34.66,0,0,0-38-29.3A34.3,34.3,0,0,0,25.7,75.6a7.51,7.51,0,0,0-6.4,7.3,7.4,7.4,0,0,0,2.1,5.3,7.8,7.8,0,0,0,5.2,2.3h.1a36.32,36.32,0,0,0,4.2,9.2l2.5-1.6a32.41,32.41,0,0,1-4.2-9.5L29,87.1l-1.4.3a2.77,2.77,0,0,1-.9.1,4.39,4.39,0,0,1-3.1-1.3A4.63,4.63,0,0,1,22.3,83a4.46,4.46,0,0,1,4.5-4.4h1.5l.1-1.3a31.65,31.65,0,0,1,62.9,0l.1,1.3H93a2.77,2.77,0,0,1,.9.1,4,4,0,0,1,2.8,1.9,4.38,4.38,0,0,1,.7,3.3,4,4,0,0,1-1.9,2.8,4.38,4.38,0,0,1-3.3.7l-1.4-.3-.3,1.4a31.31,31.31,0,0,1-4.4,9.9l2.5,1.7A32.08,32.08,0,0,0,93,90.5a8,8,0,0,0,4.2-1.3,7.55,7.55,0,0,0,3.1-4.8A7,7,0,0,0,99.2,78.8Z" transform="translate(-19.3 -19.3)" fill="#1d0e4c"/><rect x="28.68" y="33.52" width="3" height="17.8" transform="translate(-36.7 2) rotate(-30.63)" fill="#1d0e4c"/><path d="M48.5,42.5C45.6,34.8,42.7,27,40,19.3l-2.8,1c2.7,7.7,5.6,15.6,8.5,23.3Z" transform="translate(-19.3 -19.3)" fill="#1d0e4c"/><path d="M40.8,76.9,40,79.8a25.73,25.73,0,0,0,7.3,1,30.72,30.72,0,0,0,5.3-.5l-.6-3A23.57,23.57,0,0,1,40.8,76.9Z" transform="translate(-19.3 -19.3)" fill="#1d0e4c"/><path d="M67.2,76.9l-.8,2.9a25.73,25.73,0,0,0,7.3,1,30.72,30.72,0,0,0,5.3-.5l-.6-2.9A24.92,24.92,0,0,1,67.2,76.9Z" transform="translate(-19.3 -19.3)" fill="#1d0e4c"/><rect x="38.7" y="5.2" width="3" height="15.3" fill="#1d0e4c"/><rect x="79.79" y="40.97" width="17.8" height="3" transform="matrix(0.51, -0.86, 0.86, 0.51, -12.33, 77.86)" fill="#1d0e4c"/><path d="M81.8,20.3l-2.8-1c-2.7,7.7-5.6,15.5-8.5,23.2l2.8,1.1C76.2,35.9,79.1,28,81.8,20.3Z" transform="translate(-19.3 -19.3)" fill="#1d0e4c"/></svg>