<svg id="Layer_1" data-name="Layer 1" xmlns="http://www.w3.org/2000/svg" viewBox="0 0 120 120"><title>headache</title><path d="M87.43,99.21A32.9,32.9,0,0,0,92,88.88a5.94,5.94,0,1,0,1-11.78l-.2,0a33.05,33.05,0,0,0-65.7,0l-.2,0a5.94,5.94,0,1,0,1,11.78,32.89,32.89,0,0,0,4.36,9.94" style="fill:none;stroke:#50439b;stroke-miterlimit:10;stroke-width:3px"/><path d="M34.77,50.12,25.68,34.77" style="fill:none;stroke:#50439b;stroke-miterlimit:10;stroke-width:3px"/><path d="M47.09,43.07q-4.37-11.59-8.51-23.27" style="fill:none;stroke:#50439b;stroke-miterlimit:10;stroke-width:3px"/><path d="M40.37,78.33a24.79,24.79,0,0,0,11.91.46" style="fill:none;stroke:#50439b;stroke-miterlimit:10;stroke-width:3px"/><path d="M66.8,78.33a24.79,24.79,0,0,0,11.91.46" style="fill:none;stroke:#50439b;stroke-miterlimit:10;stroke-width:3px"/><line x1="59.49" y1="39.77" x2="59.49" y2="24.45" style="fill:none;stroke:#50439b;stroke-miterlimit:10;stroke-width:3px"/><path d="M84.21,50.12l9.09-15.35" style="fill:none;stroke:#50439b;stroke-miterlimit:10;stroke-width:3px"/><path d="M71.9,43.07q4.37-11.59,8.51-23.27" style="fill:none;stroke:#50439b;stroke-miterlimit:10;stroke-width:3px"/></svg>