<svg id="Layer_1" data-name="Layer 1" xmlns="http://www.w3.org/2000/svg" viewBox="0 0 120 120"><title>heart</title><path d="M57.51,52.78a23.62,23.62,0,0,1-.86-7.36,10.5,10.5,0,0,1,.42-2.77A6.74,6.74,0,0,1,68.59,40.3" style="fill:none;stroke:#50439b;stroke-linecap:square;stroke-linejoin:bevel;stroke-width:3px"/><path d="M76.74,36.14A13.21,13.21,0,0,0,66,29.08a19.38,19.38,0,0,0-12.64,3.74,17.6,17.6,0,0,0-4.74,4.71C44.82,43.35,47.26,50,49,56.71" style="fill:none;stroke:#50439b;stroke-linecap:square;stroke-linejoin:bevel;stroke-width:3px"/><path d="M31.66,45.11a39,39,0,0,1-1.38-6.17,18.16,18.16,0,0,1,2.54-12.71" style="fill:none;stroke:#50439b;stroke-linecap:square;stroke-linejoin:bevel;stroke-width:3px"/><path d="M42.15,29.64c-1.93,3.2-1.69,10.32-1.18,14" style="fill:none;stroke:#50439b;stroke-linecap:square;stroke-linejoin:bevel;stroke-width:3px"/><path d="M32.83,20.67c3.76-1.56,8.29-.31,11.32,2.42s4.71,7.78,5.47,11.78" style="fill:none;stroke:#50439b;stroke-linecap:square;stroke-linejoin:bevel;stroke-width:3px"/><path d="M49.62,7.33c-.48,6.1,4,21.07,5,22.78" style="fill:none;stroke:#50439b;stroke-linecap:square;stroke-linejoin:bevel;stroke-width:3px"/><path d="M33.81,14a11.47,11.47,0,0,1,10.63,2.72,69.72,69.72,0,0,1,.39-9.51" style="fill:none;stroke:#50439b;stroke-linecap:square;stroke-linejoin:bevel;stroke-width:3px"/><path d="M61.14,12.28A56.43,56.43,0,0,1,62.19,29" style="fill:none;stroke:#50439b;stroke-linecap:square;stroke-linejoin:bevel;stroke-width:3px"/><path d="M68.15,13a108,108,0,0,1-.52,15.23" style="fill:none;stroke:#50439b;stroke-linecap:square;stroke-linejoin:bevel;stroke-width:3px"/><path d="M71.74,30.31C72.88,25.5,77.31,19.49,82.23,19" style="fill:none;stroke:#50439b;stroke-linecap:square;stroke-linejoin:bevel;stroke-width:3px"/><path d="M75.88,33.63a10.48,10.48,0,0,1,9.39-9.13" style="fill:none;stroke:#50439b;stroke-linecap:square;stroke-linejoin:bevel;stroke-width:3px"/><path d="M58.84,52.39c5-9.78,23.16-19.8,32.29-18-2,0-3.69,2.44-3.28,6.06s1.2,6.1,3.28,6.1c2.81,0,3.4-4.45,3.4-6.73,0-2.75-.59-5.42-3.39-5.42" style="fill:none;stroke:#50439b;stroke-linecap:square;stroke-linejoin:bevel;stroke-width:3px"/><path d="M32.83,26.23c.23-1.72,4-1.93,6.08-1.37,3.39.9,4.68,2.64,3.38,4.9-.34.59-2.92,1-5.26.35S32.6,28,32.83,26.23Z" style="fill:none;stroke:#50439b;stroke-linecap:square;stroke-linejoin:bevel;stroke-width:3px"/><path d="M44.73,58c-1.28.84-2.64,1.95-2.73,3.47-.08,1.3.81,2.47,1,3.77a3.52,3.52,0,0,1-2.11,3.59" style="fill:none;stroke:#50439b;stroke-linecap:square;stroke-linejoin:bevel;stroke-width:3px"/><path d="M45,60.33a5.72,5.72,0,0,0,4.09,4.57c1.38.36,3,.24,4.06,1.17,1.3,1.11,1.18,3.11,1,4.8" style="fill:none;stroke:#50439b;stroke-linecap:square;stroke-linejoin:bevel;stroke-width:3px"/><path d="M68.59,54c-2,5.25,2.91,16.5,1.07,20.64A6.31,6.31,0,0,1,65,78.23c-1.42.24-3,0-4.21.79-1.56,1-1.45,2.54-2.56,4.75-.64,1.27-4-.75-5.09,1.06-.71,1.23,1.84,4.65-2.81,5.86" style="fill:none;stroke:#50439b;stroke-linecap:square;stroke-linejoin:bevel;stroke-width:3px"/><path d="M67.56,77.93c2.16,1.72-1.23,5.68-2.08,6.7l-3.11,3.75a22.38,22.38,0,0,0-3.26,4.68,7.54,7.54,0,0,0-.54,5.55c.37,1.09,1.08,2,1.48,3.12a3.07,3.07,0,0,1-.38,3.24" style="fill:none;stroke:#50439b;stroke-linecap:square;stroke-linejoin:bevel;stroke-width:3px"/><path d="M65.62,87a5.32,5.32,0,0,1,.49,2.43,7.12,7.12,0,0,0,.8,3.77c.73,1.08,2.48,1.56,3.32.57" style="fill:none;stroke:#50439b;stroke-linecap:square;stroke-linejoin:bevel;stroke-width:3px"/><path d="M49,66.4a3.94,3.94,0,0,0-.81,2.19,18.61,18.61,0,0,0-.05,4.5,8.63,8.63,0,0,1,.09,2.37c-.28,1.67-1.7,2.89-3,3.95" style="fill:none;stroke:#50439b;stroke-linecap:square;stroke-linejoin:bevel;stroke-width:3px"/><path d="M45.3,46.51c-7.76-5.09-13-3.3-17.51,5-3.51,6.45-3.25,23.92,2.29,31.84,7.75,11.08,19,22.1,23.24,26.09,5.52,5.16,14.17,3.31,16.58,1.25,3.45-3,12.8-19.28,14.61-23.76C86.9,81,88.74,74.28,86.27,68.42a5.6,5.6,0,0,1-.57-1.76,5.73,5.73,0,0,1,.54-2.24,12.85,12.85,0,0,0-5.89-15.14" style="fill:none;stroke:#50439b;stroke-linecap:square;stroke-linejoin:bevel;stroke-width:3px"/><path d="M90.19,46.51c-2.46,0-7.49-.31-9.61.7a12,12,0,0,0-5.44,4.62" style="fill:none;stroke:#50439b;stroke-linecap:square;stroke-linejoin:bevel;stroke-width:3px"/><path d="M26.26,69.59a16.74,16.74,0,0,1,9.09-12.87c5-2.71,12.15,1.18,14.23,1.2,0,0,9-6.08,16.89-6.08,8.59,0,14.66,3.11,18.8,13.76" style="fill:none;stroke:#50439b;stroke-linecap:square;stroke-linejoin:bevel;stroke-width:3px"/><path d="M69.57,65.59c1.94-.06,4.25.05,5.31,1.68.77,1.18.56,2.72.32,4.11l-.73,4.29a15.5,15.5,0,0,0-.33,3.9,5.22,5.22,0,0,0,1.57,3.49,3.18,3.18,0,0,0,3.63.49" style="fill:none;stroke:#50439b;stroke-linecap:square;stroke-linejoin:bevel;stroke-width:3px"/></svg>