<svg id="Layer_1" data-name="Layer 1" xmlns="http://www.w3.org/2000/svg" viewBox="0 0 72.08 108.6"><title>heart</title><path d="M34.2,15.5a9.69,9.69,0,0,1,9.2,2.4l2.5-1.1a57.91,57.91,0,0,1,.4-9.3L46.5,6l-3-.3L43.3,7c-.2,2.2-.4,4.5-.4,6.7a12.55,12.55,0,0,0-9.5-1.2l-1.4.4.7,2.9Z" transform="translate(-23.92 -5.7)" fill="#1d0e4c"/><path d="M91.3,32.9c-3.7-.7-8.5.3-13.4,2.3-.2-.3-.4-.7-.6-1v-.4a8.84,8.84,0,0,1,8-7.8l1.5-.1-.3-3-1.4.1a12.1,12.1,0,0,0-10.3,8.3l-1.5-1.2c1.2-4.4,5.1-9.2,9-9.6l1.5-.1-.3-3-1.5.1c-5.2.5-9.7,5.9-11.4,11.1a8.8,8.8,0,0,0-1.5-.5,109.81,109.81,0,0,0,.5-15.2l-.1-1.5-3,.1.1,1.5a100.43,100.43,0,0,1-.5,14.5H63.7a58.4,58.4,0,0,0-1.2-15.6l-.3-1.5-2.9.6.3,1.5a56.59,56.59,0,0,1,1.1,15.4A20.07,20.07,0,0,0,56,29.5l-.1-.2c-.9-1.6-5.2-16.2-4.8-21.9L51.2,6l-3-.2-.1,1.5c-.5,6.5,4.1,21.8,5.2,23.7l.1.1-.9.6a22,22,0,0,0-1.8,1.4c-.8-3.4-2.4-8.1-5.6-11-3.7-3.3-8.8-4.4-12.9-2.7l-1.4.6,1.1,2.8,1.4-.6A9.65,9.65,0,0,1,43,24.3c3.2,2.9,4.6,8.6,5,10.9l.1.4c-.3.4-.6.7-.9,1.1a13.89,13.89,0,0,0-2.3,7.9c-.9-.5-1.8-1-2.7-1.4-.2-3.3-.4-9.2.9-12.2.2-.2.4-.3.5-.5a6.12,6.12,0,0,0,.5-1.2l.1-.2h-.1a3.69,3.69,0,0,0-.2-2.4c-.6-1.5-2.2-2.6-4.7-3.3-1.7-.5-4.9-.6-6.6.6-.1.1-.2.1-.2.2h-.1l-.1.2a3.07,3.07,0,0,0-.8,1.3,19.41,19.41,0,0,0-2.6,13.5,45.56,45.56,0,0,0,1.4,6.4,23.38,23.38,0,0,0-3.8,5.3C22.6,58,23,76.1,28.8,84.3c8.1,11.6,20,23.1,23.4,26.3a14.81,14.81,0,0,0,10.2,3.7c3.6,0,6.8-1.1,8.4-2.5,3.8-3.3,13.3-20,15-24.3,2.3-5.7,4.5-13,1.8-19.7l-.1-.1a5.64,5.64,0,0,1-.4-1.2,4.19,4.19,0,0,1,.4-1.5l.1-.2a14.47,14.47,0,0,0-5.9-16.5c1.7-.5,4.9-.4,7-.4h3c3.2-.4,4.3-4.4,4.3-8.2C96,34.3,93.5,33,91.3,32.9ZM49.9,38.4a15,15,0,0,1,4.4-4.3,17.26,17.26,0,0,1,9.2-3.4h.1a8.84,8.84,0,0,1,2.3,0,11.8,11.8,0,0,1,9.3,5.9,55.41,55.41,0,0,0-5.3,3l-.1-.1A9.35,9.35,0,0,0,66.1,37a8.28,8.28,0,0,0-10.4,5.4,11.15,11.15,0,0,0-.5,3.1A27.37,27.37,0,0,0,56,53a41.92,41.92,0,0,0-5.7,2.9c-.1-.5-.3-1-.4-1.5C48.3,48.4,46.8,43,49.9,38.4Zm17.4,2.7A37.51,37.51,0,0,0,58.4,50a17.82,17.82,0,0,1-.3-4.6,8.52,8.52,0,0,1,.3-2.3A5.2,5.2,0,0,1,65,39.7,5.94,5.94,0,0,1,67.3,41.1ZM34.5,26.4a7.78,7.78,0,0,1,4.1-.1c2.2.6,2.6,1.3,2.7,1.5v.4l-.4.6a8.41,8.41,0,0,1-3.5-.1c-1.8-.5-2.9-1.4-3.1-2Zm-1.7,3.1a8.11,8.11,0,0,0,3.8,2,12.82,12.82,0,0,0,3,.4h.1a37.86,37.86,0,0,0-.4,10.4,10.65,10.65,0,0,0-4,.1,8,8,0,0,0-2.5,1.1,41,41,0,0,1-1-4.8A16.1,16.1,0,0,1,32.8,29.5ZM29.1,52.2c2.2-4,4.4-6.2,6.9-6.9,2.3-.6,5.1.2,8.5,2.4l1,.6q.6,3.3,1.5,6.6c.1.3.1.5.2.8-3.4-1.1-8.4-2.6-12.5-.4A18.71,18.71,0,0,0,27,62.6C27.1,58.3,27.9,54.4,29.1,52.2Zm54,34.2c-1.8,4.4-11.1,20.5-14.2,23.2-1.8,1.5-9.6,3.5-14.6-1.2-3.4-3.2-15.1-14.5-23-25.9-2-2.9-3.2-6.9-3.9-11.2h.1l.2-1.5A15,15,0,0,1,36,58.1c1.9-1,4.4-.9,6.6-.4a5.44,5.44,0,0,0-2.2,3.7,6.09,6.09,0,0,0,.6,2.8c.2.5.3.9.4,1.2a2.09,2.09,0,0,1-1.2,2.1l-1.3.5,1.2,2.8,1.4-.6a5.1,5.1,0,0,0,3-5.2,8.5,8.5,0,0,0-.6-1.9,5.62,5.62,0,0,1-.4-1.5c0-.2.1-.3.1-.5a7,7,0,0,0,3.9,4.8,4.7,4.7,0,0,0-.8,2.6,20.08,20.08,0,0,0,0,4.9,12.1,12.1,0,0,1,.1,1.9c-.2,1.1-1.3,2.1-2.5,3l-1.2.9L45,81.5l1.2-.9a8.31,8.31,0,0,0,3.5-5,8.07,8.07,0,0,0-.1-2.7,18.73,18.73,0,0,1,0-4.1v-.1a2.39,2.39,0,0,1,.5-1.4l.5-.6a3,3,0,0,1,1.5.5c.7.6.6,2.1.5,3.5l-.2,1.5,3,.3.2-1.5c.2-1.5.5-4.4-1.5-6.1a7.19,7.19,0,0,0-3.5-1.3c-.4-.1-.8-.1-1.1-.2a4.06,4.06,0,0,1-3-3.4l-.2-1.3.2-.1a12.77,12.77,0,0,0,3.1.7l.9-.3c.1-.1,8.7-5.8,16-5.8h.8v.1c-1.2,3.1-.3,7.6.5,11.9.6,3.3,1.3,7,.6,8.6a4.8,4.8,0,0,1-3.5,2.7,4.87,4.87,0,0,1-1.2.1,6.54,6.54,0,0,0-3.5.9A5.34,5.34,0,0,0,57.9,81a9.38,9.38,0,0,1-.6,1.5,2.49,2.49,0,0,1-.8-.1c-1.3-.2-3.4-.4-4.5,1.4a3.62,3.62,0,0,0-.2,2.5c.2,1.5.3,2.1-1.7,2.6l-1.5.4.8,2.9,1.5-.4c4.6-1.2,4.1-4.5,3.9-5.9,0-.2-.1-.5-.1-.6a3.93,3.93,0,0,1,1.5.1c1.1.1,2.8.3,3.6-1.2.4-.9.7-1.6.9-2.2.4-1.1.6-1.6,1.1-1.9a4.14,4.14,0,0,1,2.1-.4,7.72,7.72,0,0,0,1.5-.2,8.33,8.33,0,0,0,1.5-.4v.1c0,.5-.2,1.6-2.4,4.3l-3.1,3.7a24.94,24.94,0,0,0-3.5,5,8.67,8.67,0,0,0-.6,6.7,9.82,9.82,0,0,0,.8,1.8,13.92,13.92,0,0,1,.6,1.3l.1.1a1.53,1.53,0,0,1-.2,1.7l-.9,1.2,2.3,1.9.9-1.2a4.62,4.62,0,0,0,.6-4.8,8.86,8.86,0,0,0-.8-1.7,4.88,4.88,0,0,1-.6-1.3,6.05,6.05,0,0,1,.4-4.4,18.52,18.52,0,0,1,3.1-4.4l.9-1.1a5.16,5.16,0,0,1,.2,1.1,8.18,8.18,0,0,0,1,4.6l.1.1a4.35,4.35,0,0,0,3.1,1.8h.2a3.19,3.19,0,0,0,2.4-1.1l1-1.1-2.3-1.9-1,1.1c-.1.1-.6,0-.9-.4a5.83,5.83,0,0,1-.6-2.9,8.15,8.15,0,0,0-.6-3.1l-.4-.8.1-.1c1.5-1.8,3.3-4.2,3.1-6.5a3.36,3.36,0,0,0-.5-1.4A8.07,8.07,0,0,0,71.1,75c.9-2,.6-4.9,0-8.1,1.1.1,2.2.3,2.6,1s.3,1.9.1,3L73,75.4a20.24,20.24,0,0,0-.4,4.3,6.92,6.92,0,0,0,2,4.5,4.72,4.72,0,0,0,3.2,1.2,5.85,5.85,0,0,0,2.2-.5l1.3-.7L80,81.5l-1.3.7a1.85,1.85,0,0,1-1.9-.2,3.41,3.41,0,0,1-1.1-2.5,21.86,21.86,0,0,1,.3-3.6l.7-4.3c.2-1.3.6-3.4-.5-5.2-1.3-2.1-4-2.4-5.7-2.4-.7-3.5-1.3-7.4-.5-9.5l.4-.9c5.6.8,10.1,3.8,13.5,12.5l.4,1.1a6.36,6.36,0,0,0,.6,1.8C87.2,74.7,85.2,81.3,83.1,86.4Zm2.2-24.5a20.3,20.3,0,0,0-8.7-9.5A10,10,0,0,1,78.8,50l.9.5A11.76,11.76,0,0,1,85.3,61.9ZM80,45.8A14,14,0,0,0,73.9,51l-.2.3a26.08,26.08,0,0,0-7.2-1,28.44,28.44,0,0,0-5,.6c5.1-7.2,17.2-14.3,25.6-15.2a9.43,9.43,0,0,0-.7,4.9,17.16,17.16,0,0,0,.9,4.4C84.2,44.9,81.6,45.1,80,45.8ZM91.4,45H91c-.9-.3-1.4-2.7-1.6-4.7a4.8,4.8,0,0,1,.9-3.9,2.18,2.18,0,0,1,.8-.5h.1c.6,0,1.9,0,1.9,3.9C93,42.2,92.4,44.7,91.4,45Z" transform="translate(-23.92 -5.7)" fill="#1d0e4c"/></svg>