<svg id="Layer_1" data-name="Layer 1" xmlns="http://www.w3.org/2000/svg" viewBox="0 0 92.39 91.04"><title>hormone</title><path d="M86.6,52.7a65.79,65.79,0,0,1,7.1-10.9l-2.3-1.9A60.14,60.14,0,0,0,84,51.3ZM103,44.8a3.85,3.85,0,0,0,3-3,4.7,4.7,0,0,0-1.2-4.7,3.37,3.37,0,0,0-3.6-.6v-.9l-.7,1.2a3,3,0,0,0-.7.5L91.4,22.6A4,4,0,0,0,93.5,20a4.7,4.7,0,0,0-1.2-4.7,3.47,3.47,0,0,0-3.8-.5,4.7,4.7,0,0,0-2.9,4.3v.2H68.9a4.79,4.79,0,0,0-1.3-4,3.47,3.47,0,0,0-3.8-.5,4.7,4.7,0,0,0-2.9,4.3,2.2,2.2,0,0,0,.1.8,4,4,0,0,0,1.8,2.7L55.4,34.2a5.55,5.55,0,0,0-1.7.3A4.88,4.88,0,0,0,50.8,38H33.9a4.6,4.6,0,0,0-1.4-3.4,3.47,3.47,0,0,0-3.8-.5,4.7,4.7,0,0,0-2.9,4.3,2,2,0,0,0,.1.8,3.9,3.9,0,0,0,1.7,2.6L20,55a3.71,3.71,0,0,0-2.5-.4,2.61,2.61,0,0,0-.8.3,4.86,4.86,0,0,0-2.9,4.3,2,2,0,0,0,.1.8,4,4,0,0,0,4.6,3.2c.4-.1.7-.2,1-.3l8.4,14.5a4.58,4.58,0,0,0-2.1,3.9,2.77,2.77,0,0,0,.1.9,3.94,3.94,0,0,0,1.7,2.5,4.28,4.28,0,0,0,2.2.6,2,2,0,0,0,.8-.1,3.85,3.85,0,0,0,3-3,7.72,7.72,0,0,0,.2-1.5H48.6v.5a2.77,2.77,0,0,0,.1.9,3.94,3.94,0,0,0,1.7,2.5,4,4,0,0,0,3,.6,3.51,3.51,0,0,0,1.4-.6l7.3,13.2a4.55,4.55,0,0,0-1.9,3.7,2.77,2.77,0,0,0,.1.9,3.94,3.94,0,0,0,1.7,2.5,4.28,4.28,0,0,0,2.2.6,2,2,0,0,0,.8-.1,3.85,3.85,0,0,0,3-3,5,5,0,0,0,.2-1.2H84.6v.2a2.77,2.77,0,0,0,.1.9,4,4,0,0,0,4.7,3.1,3.85,3.85,0,0,0,3-3,5,5,0,0,0-.9-4.5,2.65,2.65,0,0,0-.6-.5l8-13.8c.2.2.4.3.6.5a4.28,4.28,0,0,0,2.2.6,2,2,0,0,0,.8-.1,4.12,4.12,0,0,0,3.1-3,4.9,4.9,0,0,0-1.1-4.7,3.68,3.68,0,0,0-3.8-.6h0a7.46,7.46,0,0,0-1.2.7L92,64a4.53,4.53,0,0,0,1.1-1.9,4.82,4.82,0,0,0-.5-3.9,4.23,4.23,0,0,0-.5-.7l7.8-13.6A3,3,0,0,0,103,44.8Zm-1.8-4.5a2.19,2.19,0,0,1,.9-1c.5-.2.6-.1.7,0a2,2,0,0,1,.3,1.8,1.09,1.09,0,0,1-.8.8,1,1,0,0,1-1.1-.6ZM18.5,59.8a1.47,1.47,0,0,1-.6.5.92.92,0,0,1-1.1-.8v-.2a1.71,1.71,0,0,1,1.1-1.6h.3c.1,0,.2.1.3.1s.2.2.2.4l.2,1.1Zm82.2,20.7.3-.5-.1-.1a2.7,2.7,0,0,1,.8-.7c.5-.2.6-.1.7,0a1.71,1.71,0,0,1,.3,1.6v.1a1.09,1.09,0,0,1-.8.8.87.87,0,0,1-1.1-.7v-.2A.37.37,0,0,1,100.7,80.5Zm-11.1-63c.5-.2.6-.1.7,0a1.85,1.85,0,0,1,.3,1.7,1.07,1.07,0,0,1-1.3.8H89l-.1-.2c-.1-.2-.2-.3-.3-.5v-.2A1.78,1.78,0,0,1,89.6,17.5Zm-24.7,0a.76.76,0,0,1,.4-.1c.2,0,.2.1.3.1a1.85,1.85,0,0,1,.3,1.7,2.19,2.19,0,0,1-.3.5l-.3.3-.4.1c-.2,0-.5,0-.6-.2a.6.6,0,0,1-.3-.6V19C63.8,18.4,64.3,17.8,64.9,17.5ZM54.7,37.3c.5-.2.6-.1.7,0a1.85,1.85,0,0,1,.3,1.7,1.17,1.17,0,0,1-1.1.9h-.1l-.8-1h0A1.78,1.78,0,0,1,54.7,37.3Zm-24.9-.4a.76.76,0,0,1,.4-.1c.2,0,.2.1.3.1a1.85,1.85,0,0,1,.3,1.7c0,.1-.1.2-.1.3l-.3.6h-.7a1,1,0,0,1-.9-.8v-.2A1.78,1.78,0,0,1,29.8,36.9Zm.8,44.6a1.09,1.09,0,0,1-.8.8.87.87,0,0,1-1.1-.7v-.2a1.71,1.71,0,0,1,1.1-1.6c.1,0,.2-.1.4-.1h.2l.2.3A1.93,1.93,0,0,1,30.6,81.5Zm22.9-.1v.2a1.09,1.09,0,0,1-.8.8.87.87,0,0,1-1.1-.7v-.2a1.28,1.28,0,0,1,.4-1l.8-.9.3.3C53.5,80,53.7,80.7,53.5,81.4Zm-.8-3.7H31.5L20.9,59.5,31.4,41.1H52.6L63.2,59.4Zm12.4,24.1a1.09,1.09,0,0,1-.8.8.87.87,0,0,1-1.1-.7v-.2a1.54,1.54,0,0,1,1-1.5.35.35,0,0,0,.2-.1l.4-.1.2.5A1.78,1.78,0,0,1,65.1,101.8Zm24.4,0a1.09,1.09,0,0,1-.8.8,1,1,0,0,1-1.2-.8v-.2a1.61,1.61,0,0,1,.3-.9l.4-.6.6-.1c.2,0,.3,0,.4.1C89.6,100.3,89.8,101,89.5,101.8Zm8-21.8L86.9,98.3H65.8L56.5,81.6a4.49,4.49,0,0,0-.7-3.2l8.7-15.1c.1.1.2.1.3.2A3.91,3.91,0,0,0,69.9,62H85v.2a4.06,4.06,0,0,0,3.9,3.2ZM65.6,59.6l.2-.5a2,2,0,0,1,.9-.9c.4-.2.6,0,.6,0a2,2,0,0,1,.3,1.8,1.06,1.06,0,0,1-.6.7.62.62,0,0,1-.7-.1,1,1,0,0,1-.5-.6Zm22.5,1.7a.6.6,0,0,1,.1-.4l.4-1.4,1,.2q.15,0,.3.3a2.15,2.15,0,0,1,.1,1.6,1.09,1.09,0,0,1-.8.8,1,1,0,0,1-1.2-.8A.77.77,0,0,0,88.1,61.3Zm-.4-2.4h-17A4.45,4.45,0,0,0,69.3,56a3.47,3.47,0,0,0-3.8-.5h0a4.05,4.05,0,0,0-.9.5L56.7,42.4a3.84,3.84,0,0,0,1.8-2.5,5.07,5.07,0,0,0-.7-4.2l8.5-13.2.1-.2H87.7L98.2,40.7ZM24.5,61.1c2.2,4.7,4.7,9.3,7.3,13.8l2.6-1.5q-3.9-6.6-7.2-13.5ZM59.4,36.4l2.7,1.3a32,32,0,0,1,8-10.6l-2-2.3A34.41,34.41,0,0,0,59.4,36.4ZM81.1,67.2l.2-3A116.29,116.29,0,0,0,68.1,64l.1,3A111.08,111.08,0,0,1,81.1,67.2ZM67.7,96.5H83.2v-3H67.7Z" transform="translate(-13.8 -14.46)" fill="#1d0e4c"/></svg>