<svg id="Layer_1" data-name="Layer 1" xmlns="http://www.w3.org/2000/svg" viewBox="0 0 120 120"><title>hormone</title><path d="M69.21,60.41H86.71a2.86,2.86,0,0,0-.13.85,2.6,2.6,0,0,0,.06.55,2.49,2.49,0,0,0,4.87,0c.43-1.55-.22-3.35-1.62-3.62l9.83-17c0,.08,0,.16,0,.24a2.49,2.49,0,0,0,4.87,0c.55-2-.67-4.39-3-3.46a3.25,3.25,0,0,0-1.87,2.15L89.06,21.52a2.61,2.61,0,0,0,3-1.92c.55-2-.67-4.39-3-3.46a3.22,3.22,0,0,0-2,2.91,2.59,2.59,0,0,0,.06.55,2.72,2.72,0,0,0,.56,1.16h-21a2.73,2.73,0,0,0,.64-1.15c.55-2-.67-4.39-3-3.46a3.22,3.22,0,0,0-2,2.91,2.6,2.6,0,0,0,.06.55,2.36,2.36,0,0,0,2.75,2l-8.82,13.8" style="fill:none;stroke:#50439b;stroke-miterlimit:10;stroke-width:3px"/><path d="M54.91,81.82l9.24,16.64a2.85,2.85,0,0,0-.53.15,3.22,3.22,0,0,0-2,2.91,2.59,2.59,0,0,0,.06.55,2.49,2.49,0,0,0,4.87,0,3.6,3.6,0,0,0-.12-2.27H86.62a3.06,3.06,0,0,0-.54,1.72,2.6,2.6,0,0,0,.06.55,2.49,2.49,0,0,0,4.87,0c.5-1.82-.48-4-2.42-3.62L99.27,80,89.84,63.65" style="fill:none;stroke:#50439b;stroke-miterlimit:10;stroke-width:3px"/><path d="M101.16,77.86a3.22,3.22,0,0,0-2,2.91,2.6,2.6,0,0,0,.06.55,2.49,2.49,0,0,0,4.87,0C104.67,79.34,103.46,76.94,101.16,77.86Z" style="fill:none;stroke:#50439b;stroke-miterlimit:10;stroke-width:3px"/><path d="M66.12,56.85a3.24,3.24,0,0,0-1.69,1.65L54.55,41.4a2.63,2.63,0,0,0,2.64-2c.55-2-.67-4.39-3-3.46a3.22,3.22,0,0,0-2,2.91,2.59,2.59,0,0,0,.06.55c0,.07,0,.13.06.2H32a2.81,2.81,0,0,0,.25-.6c.55-2-.67-4.39-3-3.46a3.22,3.22,0,0,0-2,2.91,2.59,2.59,0,0,0,.06.55,2.36,2.36,0,0,0,2.42,2L20.15,57.75a2.06,2.06,0,0,0-2.93-1.43,3.22,3.22,0,0,0-2,2.91,2.6,2.6,0,0,0,.06.55,2.45,2.45,0,0,0,4.52.8L30,78.16a2.69,2.69,0,0,0-.82.2,3.22,3.22,0,0,0-2,2.91,2.59,2.59,0,0,0,.06.55,2.49,2.49,0,0,0,4.87,0,3.53,3.53,0,0,0-.25-2.55H50.72a3.12,3.12,0,0,0-.75,2,2.6,2.6,0,0,0,.06.55,2.49,2.49,0,0,0,4.87,0A3.14,3.14,0,0,0,54,78.49L64.3,60.61a2.48,2.48,0,0,0,4.78-.29C69.62,58.33,68.41,55.93,66.12,56.85Z" style="fill:none;stroke:#50439b;stroke-miterlimit:10;stroke-width:3px"/><path d="M25.84,60.43q3.29,7,7.22,13.65" style="fill:none;stroke:#50439b;stroke-miterlimit:10;stroke-width:3px"/><path d="M60.74,37a34.6,34.6,0,0,1,8.38-11.1" style="fill:none;stroke:#50439b;stroke-miterlimit:10;stroke-width:3px"/><path d="M85.25,52a62.36,62.36,0,0,1,7.27-11.17" style="fill:none;stroke:#50439b;stroke-miterlimit:10;stroke-width:3px"/><path d="M68.19,65.55a105.38,105.38,0,0,1,13,.17" style="fill:none;stroke:#50439b;stroke-miterlimit:10;stroke-width:3px"/><path d="M67.69,95h15.5" style="fill:none;stroke:#50439b;stroke-miterlimit:10;stroke-width:3px"/></svg>