<svg id="Layer_1" data-name="Layer 1" xmlns="http://www.w3.org/2000/svg" viewBox="0 0 68.97 67.6"><title>itch</title><path d="M76.9,73.4c-2-1.7-4.7-2.2-6.8-2.5l-9.7-1.6a4.19,4.19,0,0,1-1.5-.4,3.57,3.57,0,0,1-1-1.1,55.93,55.93,0,0,1-7.3-13.9c-.2-2.5.1-5.5.9-6.2,2.3-2.1,5.7-4.1,7.5-3.9a7.85,7.85,0,0,1,4.4,2.5,21,21,0,0,1,4.7,7c.2.5.7,1.7,1.2,3,1.7,4.5,3,8,4.3,9.4a6.76,6.76,0,0,0,4.8,2.2A5,5,0,0,0,82,66.6c1.8-1.8,1.8-4.4,1.6-6.7-.1-.5-.1-1.1-.2-1.7-.4-4.2-1-9.9-2.9-13.3l-.1-.1A148.28,148.28,0,0,0,66.5,28.1l-2.2,2.1A141.55,141.55,0,0,1,77.9,46.5c1.6,2.9,2.1,8.2,2.5,12.1.1.6.1,1.2.2,1.7.2,1.6.2,3.4-.7,4.2a1.84,1.84,0,0,1-1.5.5,3.68,3.68,0,0,1-2.7-1.3c-.9-1-2.7-5.8-3.6-8.4-.5-1.5-1-2.6-1.2-3.2a29.53,29.53,0,0,0-5.2-7.8,10.38,10.38,0,0,0-6.1-3.4c-4.1-.6-9.4,4.1-10,4.6-2.2,2-2,7.3-1.8,8.9l.1.4a57.88,57.88,0,0,0,7.7,14.8,8.13,8.13,0,0,0,1.8,1.9l.2.1a7.86,7.86,0,0,0,2.6.8L69.8,74c1.9.3,4,.6,5.4,1.8a3.71,3.71,0,0,1,1.2,2.3,1.68,1.68,0,0,1-.4,1.3c-.8.8-2.5.7-4,.6L52.3,77.5A81,81,0,0,0,42.1,64.2a14.6,14.6,0,0,1-2.6-3.4,11.43,11.43,0,0,1-.7-3.2l-1.2-8.8-3,.4L35.8,58a11.75,11.75,0,0,0,1,4.1l.1.2a14.64,14.64,0,0,0,3.2,4.2A82.54,82.54,0,0,1,50.2,79.9l.4.6,15.1,1.9h.2c2,.3,3.9.6,5.2,1.7a3.15,3.15,0,0,1,1.1,2.3,1.68,1.68,0,0,1-.4,1.3c-.8.8-2.4.7-4,.5L48,85.7A86.31,86.31,0,0,0,37.9,72.4,14.6,14.6,0,0,1,35.3,69a11.43,11.43,0,0,1-.7-3.2L33.4,57l-3,.4,1.2,8.8a14.48,14.48,0,0,0,1,4.1l.1.2a14.64,14.64,0,0,0,3.2,4.2,76.61,76.61,0,0,1,10,13.4l.4.6,17.9,2.2a2.33,2.33,0,0,1-.8,1.2,7.26,7.26,0,0,1-3.8.8h-.2a67,67,0,0,1-8.9-.4c-1.3-.1-5.8-1.1-8.1-1.5-6-9.1-12.6-19.2-13.1-20.6a60.73,60.73,0,0,1-.6-8.5c0-1.4,1.2-8,2.3-13.9,1.4-7.8,2.3-13,2.4-14.5l-3-.1c0,1.4-1.2,8.1-2.3,14-1.4,7.9-2.3,12.8-2.3,14.3a69.53,69.53,0,0,0,.6,9.1v.1c.4,1.8,9.8,16,13.9,22.1l.3.5.6.1a88.91,88.91,0,0,0,9.1,1.7c3,.3,6.1.4,9.1.4H60a10.05,10.05,0,0,0,4.8-1.2l.1-.1a5.05,5.05,0,0,0,2.2-3.3h.3a11.49,11.49,0,0,0,2.1.2,5.76,5.76,0,0,0,4.4-1.6,4.91,4.91,0,0,0,1.3-3.5,6.3,6.3,0,0,0-1-3,6.08,6.08,0,0,0,4.1-1.6,4.91,4.91,0,0,0,1.3-3.5A10.8,10.8,0,0,0,76.9,73.4Z" transform="translate(-25.8 -28.1)" fill="#1d0e4c"/><path d="M86.2,80l-2.8-1.1a6.45,6.45,0,0,1-2.4,3l1.6,2.5A8.65,8.65,0,0,0,86.2,80Z" transform="translate(-25.8 -28.1)" fill="#1d0e4c"/><path d="M83.2,86.1l1.4,2.6A17,17,0,0,0,91.9,81l-2.7-1.3A13.33,13.33,0,0,1,83.2,86.1Z" transform="translate(-25.8 -28.1)" fill="#1d0e4c"/><path d="M89.9,68.4a9.29,9.29,0,0,0-1.5-5.6L86,64.4a6.21,6.21,0,0,1,1,3.8Z" transform="translate(-25.8 -28.1)" fill="#1d0e4c"/><path d="M92.8,58.9l-2.7,1.4a14.26,14.26,0,0,1,1.5,8.6l3,.4A17,17,0,0,0,92.8,58.9Z" transform="translate(-25.8 -28.1)" fill="#1d0e4c"/></svg>