<svg id="Layer_1" data-name="Layer 1" xmlns="http://www.w3.org/2000/svg" viewBox="0 0 109.57 102.7"><title>lung</title><path d="M114.5,102.7l-5.6-21.1v-.2c-3.2-12.2-6.6-24.9-12.7-36.3-1.7-3.3-3.9-6.9-7.3-9.3-3.2-2.3-8.2-3.5-12.2-1.3a9.29,9.29,0,0,0-5,6.9c-3.2-3-6.2-7.4-6.2-15.9,0-5-.1-6.4-.2-7.7s-.2-2.6-.2-7.6V8.7h-3v1.5c0,5,.1,6.4.2,7.7s.2,2.6.2,7.6C62.5,38.3,68.6,43,73,46.4a30,30,0,0,1,3.1,2.7l1,1.1,2.3-2-1-1.1A27.74,27.74,0,0,0,74.8,44c-.2-.1-.3-.3-.5-.4l.1-.4c.4-3,1.1-4.6,3.7-6.1s6.2-.9,9,1.1,4.9,5.3,6.4,8.3c5.9,11.1,9.2,23.6,12.4,35.7l5.6,21.3c.4,1.6.7,3.1,0,4s-2.8,1-4.5.8l-35.2-4.1h-.1a4.7,4.7,0,0,1-2.6-.8,5.22,5.22,0,0,1-1-3.1,112,112,0,0,1,1.8-35.6c.4-2.1.8-3.9,1.1-5.6q.3-1.65.6-3.6a31.55,31.55,0,0,1,1.9,2.7l.9,1.2,2.5-1.7L76,56.5c-6-8.9-10.9-13.4-14.8-14.1v-.1H58.7v.1c-3.9.7-8.8,5.2-14.8,13.9L43,57.5l2.5,1.7.9-1.2c.8-1.2,1.6-2.2,2.3-3.2.3,1.5.5,2.8.7,4.1.3,1.7.6,3.5,1.1,5.6a112,112,0,0,1,1.8,35.6,5.3,5.3,0,0,1-1,3.2,5,5,0,0,1-2.6.8l-35.3,4.1c-1.7.2-3.7.3-4.5-.8-.7-.9-.4-2.4,0-4l5.6-21.3C17.7,70,21,57.5,26.9,46.4c1.6-2.9,3.5-6.2,6.4-8.3s6.6-2.5,9-1.1c2.6,1.5,3.3,3.1,3.7,6.1v.1a3.59,3.59,0,0,1-1,.7A21.46,21.46,0,0,0,41.5,47l-1,1.1,2.3,2,1-1.1a17.58,17.58,0,0,1,3.1-2.7c4.4-3.4,10.5-8.1,10.5-20.9,0-4.9.1-6.3.2-7.6s.2-2.7.2-7.7V8.7h-3v1.5c0,4.9-.1,6.3-.2,7.6s-.2,2.7-.2,7.7c0,8.2-2.7,12.5-5.8,15.5a9.21,9.21,0,0,0-4.9-6.5c-4-2.3-9-1-12.2,1.3-3.4,2.4-5.6,6.1-7.3,9.3-6.1,11.4-9.4,24.1-12.7,36.3L6,102.7c-.4,1.6-1.2,4.4.5,6.6a6.2,6.2,0,0,0,5.1,2.1c.8,0,1.6-.1,2.1-.1l35.1-4.1a7.6,7.6,0,0,0,4.3-1.4l.1-.1a7.94,7.94,0,0,0,2.1-5.1,116,116,0,0,0-1.8-36.7c-.4-2-.7-3.8-1-5.5s-.6-3.5-1-5.5l-.2-1.1c4.7-5.5,7.3-6.5,8.6-6.5h.5c1.3,0,4.1,1.1,9,7l-.1.6c-.4,2.1-.7,3.8-1,5.5s-.6,3.5-1,5.5a115.23,115.23,0,0,0-1.9,36.6c.2,1.8.5,3.8,2.1,5.1l.1.1a7.6,7.6,0,0,0,4.3,1.4l35.1,4.1a12.79,12.79,0,0,0,2.1.1,6.2,6.2,0,0,0,5.1-2.1C115.6,107.1,114.9,104.2,114.5,102.7Z" transform="translate(-5.46 -8.7)" fill="#1d0e4c"/><path d="M23.6,75.7a4.79,4.79,0,0,1,2.8-3.9,7.22,7.22,0,0,0,2-.9l.2-.2a6.33,6.33,0,0,0,1.6-2.4,27.72,27.72,0,0,0,1.8-7c0-.3.1-.6.1-.9a8.32,8.32,0,0,1,.9-3.6c1.2-1.9,4.1-2.2,7.1-2.3h1.5l-.1-3H40c-2.4.1-7.3.2-9.6,3.7A11,11,0,0,0,29,60.1c0,.3-.1.6-.1.8a26.48,26.48,0,0,1-1.6,6.3v.1a2.59,2.59,0,0,1-.7,1.1c-.4.2-.8.4-1.3.6h-.1a7.59,7.59,0,0,0-4.6,6.4l-.1,1.5,3,.3Z" transform="translate(-5.46 -8.7)" fill="#1d0e4c"/><path d="M46.9,84.3a1.1,1.1,0,0,1-1-.6,9.92,9.92,0,0,1-.6-2.6c-.4-3.8-1.5-6.5-3.5-8.3a14.31,14.31,0,0,0-1.5-1.1,6.23,6.23,0,0,1-1.2-.9,4.86,4.86,0,0,1-.8-5.9l.8-1.3-2.6-1.5-.8,1.3A7.88,7.88,0,0,0,37,73a8.35,8.35,0,0,0,1.6,1.2l1.2.9c1.4,1.2,2.2,3.3,2.5,6.2a8.53,8.53,0,0,0,.8,3.5,3.93,3.93,0,0,0,3.7,2.4h.4l1.5-.1-.3-3Z" transform="translate(-5.46 -8.7)" fill="#1d0e4c"/><path d="M17.5,99.1l-.3,1.5,2.9.7.3-1.5a1.82,1.82,0,0,1,1.1-1.3A18.67,18.67,0,0,0,24.7,97l.2-.1a7.84,7.84,0,0,0,2.6-4.1c.4-1.2.7-2.5,1-3.7.6-2.8,1.2-5.4,3-7.1.6-.6,1.3-.9,1.7-.7l1.3.7,1.4-2.6-1.3-.7a4.31,4.31,0,0,0-5.2,1.2c-2.4,2.3-3.1,5.5-3.8,8.6a35.77,35.77,0,0,1-.9,3.5,5.44,5.44,0,0,1-1.6,2.6,14.24,14.24,0,0,1-2.5,1.2A4.5,4.5,0,0,0,17.5,99.1Z" transform="translate(-5.46 -8.7)" fill="#1d0e4c"/><path d="M48.6,102.6l.1-1.5a2.78,2.78,0,0,0-.8-2.1,4.1,4.1,0,0,0-2.8-1.3,9.15,9.15,0,0,0-1.7.1,5.74,5.74,0,0,1-1.2.1,3.51,3.51,0,0,1-2.4-1.7,12.34,12.34,0,0,1-1.2-3.7,7.26,7.26,0,0,0-1-2.8,3.28,3.28,0,0,0-3.9-1.1l-1.4.6,1.2,2.7,1.4-.6H35a2.46,2.46,0,0,1,.5,1.5A16.1,16.1,0,0,0,37,97.5a6.22,6.22,0,0,0,4.6,3.2,6.56,6.56,0,0,0,2-.1,5.28,5.28,0,0,1,1.2-.1,1.38,1.38,0,0,1,.7.2l-.1,1.5Z" transform="translate(-5.46 -8.7)" fill="#1d0e4c"/><path d="M95.7,69l-.2-.1a3.79,3.79,0,0,1-1.3-.6,2.59,2.59,0,0,1-.7-1.1v-.1a22.44,22.44,0,0,1-1.6-6.3c0-.3-.1-.5-.1-.8a11.39,11.39,0,0,0-1.4-4.9c-2.3-3.5-7.2-3.6-9.6-3.7H79.3l-.1,3h1.5c3,.1,5.9.4,7.1,2.3a9.05,9.05,0,0,1,.9,3.6c0,.3.1.6.1.9a27.72,27.72,0,0,0,1.8,7,5.65,5.65,0,0,0,1.6,2.4l.2.2a7.22,7.22,0,0,0,2,.9,4.79,4.79,0,0,1,2.8,3.9l.1,1.5,3-.3-.1-1.5A7.29,7.29,0,0,0,95.7,69Z" transform="translate(-5.46 -8.7)" fill="#1d0e4c"/><path d="M75.7,81.2a6,6,0,0,1-.5,2.4,1.1,1.1,0,0,1-1,.6l-1.5-.1-.3,3,1.5.1h.4A4,4,0,0,0,78,84.8a8.44,8.44,0,0,0,.8-3.4c.3-3,1.1-5.1,2.5-6.3a7.3,7.3,0,0,1,1.3-.9A13.28,13.28,0,0,0,84.2,73a7.72,7.72,0,0,0,1.2-9.6l-.8-1.3L82,63.6l.8,1.3a5,5,0,0,1-.7,5.9l-1.2.9a9.55,9.55,0,0,0-1.6,1.2C77.2,74.7,76,77.4,75.7,81.2Z" transform="translate(-5.46 -8.7)" fill="#1d0e4c"/><path d="M92.5,89.1c.3,1.2.6,2.5.9,3.6A7.47,7.47,0,0,0,96,96.8l.2.1a18.67,18.67,0,0,0,3.2,1.5,1.63,1.63,0,0,1,1.1,1.3l.3,1.5,2.9-.7-.3-1.5a4.89,4.89,0,0,0-3-3.4,15.08,15.08,0,0,1-2.6-1.2,5.44,5.44,0,0,1-1.6-2.6,33.74,33.74,0,0,1-.9-3.4c-.7-3.1-1.4-6.2-3.7-8.5-1.6-1.6-3.7-2.1-5.2-1.3l-1.3.7,1.4,2.6,1.3-.7c.3-.2,1.1.1,1.7.8C91.3,83.7,91.9,86.3,92.5,89.1Z" transform="translate(-5.46 -8.7)" fill="#1d0e4c"/><path d="M77.2,100.8a7,7,0,0,0,2.1.1,6.41,6.41,0,0,0,4.6-3.2A13,13,0,0,0,85.4,93a3.36,3.36,0,0,1,.5-1.4s.1-.1.1,0l1.4.6,1.2-2.7-1.4-.6A3.15,3.15,0,0,0,83.3,90a6.82,6.82,0,0,0-1,2.7,12.34,12.34,0,0,1-1.2,3.7A3.12,3.12,0,0,1,78.7,98a6.15,6.15,0,0,1-1.3-.1,9.15,9.15,0,0,0-1.7-.1,4.1,4.1,0,0,0-2.8,1.3,3.23,3.23,0,0,0-.8,2.1l.1,1.5,3-.1-.1-1.5a1.21,1.21,0,0,1,.8-.3A2.84,2.84,0,0,1,77.2,100.8Z" transform="translate(-5.46 -8.7)" fill="#1d0e4c"/></svg>