<svg id="Layer_1" data-name="Layer 1" xmlns="http://www.w3.org/2000/svg" viewBox="0 0 120 120"><title>lung</title><path d="M47.6,43c-.45-3.21-1.25-5.41-4.46-7.21s-7.56-1-10.62,1.18-5.12,5.48-6.88,8.8c-6,11.32-9.3,23.82-12.58,36.19L7.48,103.06c-.47,1.78-.89,3.85.23,5.31,1.27,1.66,3.74,1.58,5.82,1.34l35.19-4.06a6.35,6.35,0,0,0,3.54-1.15c1.14-1,1.41-2.65,1.58-4.16A113.81,113.81,0,0,0,52,64.25c-.88-4.1-1.21-7-2.08-11.07" style="fill:none;stroke:#50439b;stroke-linecap:square;stroke-linejoin:bevel;stroke-width:3px"/><path d="M72.9,43c.45-3.21,1.25-5.41,4.46-7.21s7.56-1,10.62,1.18,5.12,5.48,6.88,8.8c6,11.32,9.3,23.82,12.58,36.19L113,103.06c.47,1.78.89,3.85-.23,5.31-1.27,1.66-3.74,1.58-5.82,1.34l-35.19-4.06a6.35,6.35,0,0,1-3.54-1.15c-1.14-1-1.41-2.65-1.58-4.16a113.81,113.81,0,0,1,1.87-36.08c.88-4.1,1.21-7,2.08-11.07" style="fill:none;stroke:#50439b;stroke-linecap:square;stroke-linejoin:bevel;stroke-width:3px"/><path d="M45.15,57.19c2.1-3,9.4-13.39,14.6-13.39" style="fill:none;stroke:#50439b;stroke-linecap:square;stroke-linejoin:bevel;stroke-width:3px"/><path d="M56.33,10.16c0,9.91-.32,5.37-.32,15.29,0,15.68-9.56,18.38-13.21,22.63" style="fill:none;stroke:#50439b;stroke-linecap:square;stroke-linejoin:bevel;stroke-width:3px"/><path d="M74.85,57.19c-2.1-3-9.4-13.39-14.6-13.39" style="fill:none;stroke:#50439b;stroke-linecap:square;stroke-linejoin:bevel;stroke-width:3px"/><path d="M63.67,10.16c0,9.91.32,5.37.32,15.29,0,15.68,9.56,18.38,13.21,22.63" style="fill:none;stroke:#50439b;stroke-linecap:square;stroke-linejoin:bevel;stroke-width:3px"/><path d="M40.09,53c-3.08.08-6.67.42-8.33,3-.95,1.47-1,3.32-1.22,5.06a25.43,25.43,0,0,1-1.75,6.65,4.32,4.32,0,0,1-1.2,1.84,7.54,7.54,0,0,1-1.74.81,6.36,6.36,0,0,0-3.76,5.2" style="fill:none;stroke:#50439b;stroke-linecap:square;stroke-linejoin:bevel;stroke-width:3px"/><path d="M36.94,64.14A6.37,6.37,0,0,0,38,71.92c.86.79,1.92,1.32,2.79,2.09,2,1.79,2.74,4.62,3,7.3a8.51,8.51,0,0,0,.68,3A2.5,2.5,0,0,0,47,85.79" style="fill:none;stroke:#50439b;stroke-linecap:square;stroke-linejoin:bevel;stroke-width:3px"/><path d="M33.85,79.94c-1.13-.61-2.54.06-3.46,1-2.93,2.88-3,7.48-4.27,11.39A6.75,6.75,0,0,1,24,95.72a16.79,16.79,0,0,1-2.92,1.41A3.31,3.31,0,0,0,19,99.47" style="fill:none;stroke:#50439b;stroke-linecap:square;stroke-linejoin:bevel;stroke-width:3px"/><path d="M34.33,90.15a1.62,1.62,0,0,1,2,.56,4.91,4.91,0,0,1,.76,2.1A12.8,12.8,0,0,0,38.46,97a4.84,4.84,0,0,0,3.47,2.44c1,.11,2.09-.24,3.13-.19s2.22.77,2.16,1.81" style="fill:none;stroke:#50439b;stroke-linecap:square;stroke-linejoin:bevel;stroke-width:3px"/><path d="M80.88,53c3.08.08,6.67.42,8.33,3,.95,1.47,1,3.32,1.22,5.06a25.43,25.43,0,0,0,1.75,6.65,4.32,4.32,0,0,0,1.2,1.84,7.54,7.54,0,0,0,1.74.81,6.36,6.36,0,0,1,3.76,5.2" style="fill:none;stroke:#50439b;stroke-linecap:square;stroke-linejoin:bevel;stroke-width:3px"/><path d="M84,64.14A6.37,6.37,0,0,1,83,71.92C82.1,72.7,81,73.23,80.17,74c-2,1.79-2.74,4.62-3,7.3a8.51,8.51,0,0,1-.68,3,2.5,2.5,0,0,1-2.51,1.46" style="fill:none;stroke:#50439b;stroke-linecap:square;stroke-linejoin:bevel;stroke-width:3px"/><path d="M87.13,79.94c1.13-.61,2.54.06,3.46,1,2.93,2.88,3,7.48,4.27,11.39A6.75,6.75,0,0,0,97,95.72a16.79,16.79,0,0,0,2.92,1.41A3.31,3.31,0,0,1,102,99.47" style="fill:none;stroke:#50439b;stroke-linecap:square;stroke-linejoin:bevel;stroke-width:3px"/><path d="M86.65,90.15a1.62,1.62,0,0,0-2,.56,4.91,4.91,0,0,0-.76,2.1A12.8,12.8,0,0,1,82.52,97,4.84,4.84,0,0,1,79,99.4c-1,.11-2.09-.24-3.13-.19s-2.22.77-2.16,1.81" style="fill:none;stroke:#50439b;stroke-linecap:square;stroke-linejoin:bevel;stroke-width:3px"/></svg>