<svg id="Layer_1" data-name="Layer 1" xmlns="http://www.w3.org/2000/svg" viewBox="0 0 120 120"><title>medicine</title><rect x="34.19" y="57.74" width="10.75" height="28.9" rx="5.37" ry="5.37" transform="translate(-38.89 97.14) rotate(-78.92)" style="fill:none;stroke:#50439b;stroke-miterlimit:10;stroke-width:3px"/><path d="M40.11,66.6a9.22,9.22,0,0,0-3.63,7.53,4.45,4.45,0,0,0,1.15,3.14" style="fill:none;stroke:#50439b;stroke-miterlimit:10;stroke-width:3px"/><rect x="54.52" y="35.73" width="10.75" height="28.9" rx="5.37" ry="5.37" transform="translate(54.13 -27.75) rotate(45.82)" style="fill:none;stroke:#50439b;stroke-miterlimit:10;stroke-width:3px"/><path d="M64.18,53.81a9.22,9.22,0,0,0-4.12-7.28,4.45,4.45,0,0,0-3.24-.84" style="fill:none;stroke:#50439b;stroke-miterlimit:10;stroke-width:3px"/><path d="M31.75,57.4a7.68,7.68,0,0,0,5.71-13.51C33.7,40.7,26.74,42.16,24.91,47,23.2,51.46,27.2,56.95,31.75,57.4Z" style="fill:none;stroke:#50439b;stroke-miterlimit:10;stroke-width:3px"/><path d="M69.34,81.48a21.56,21.56,0,0,0,15.24-8.72,6.4,6.4,0,0,0,1.54-4.51c-.36-2.35-2.87-3.8-5.24-4.1a17,17,0,0,0-9,1.85,21.13,21.13,0,0,0-5.79,3.66c-1.73,1.62-4.49,5-4.25,7.57C62.21,80.86,66.41,81.75,69.34,81.48Z" style="fill:none;stroke:#50439b;stroke-miterlimit:10;stroke-width:3px"/><path d="M35.76,43,28.6,54.71" style="fill:none;stroke:#50439b;stroke-miterlimit:10;stroke-width:3px"/><path d="M80.44,48.31a7.68,7.68,0,0,0,12.64,7.44c3.65-3.32,3.13-10.41-1.39-12.84C87.45,40.61,81.48,43.86,80.44,48.31Z" style="fill:none;stroke:#50439b;stroke-miterlimit:10;stroke-width:3px"/><path d="M94.19,54.17,83.51,45.54" style="fill:none;stroke:#50439b;stroke-miterlimit:10;stroke-width:3px"/></svg>