<svg id="Layer_1" data-name="Layer 1" xmlns="http://www.w3.org/2000/svg" viewBox="0 0 73.96 46.04"><title>medicine</title><path d="M48.5,80.8a5.7,5.7,0,0,1-1.3-.1L29.4,77.2A7.07,7.07,0,0,1,25,74.3a6.8,6.8,0,0,1-1-5.2h0a7.07,7.07,0,0,1,2.9-4.4,6.8,6.8,0,0,1,5.2-1l17.8,3.5a6.88,6.88,0,0,1,5.4,8.1A7,7,0,0,1,48.5,80.8ZM30.6,66.6a3.6,3.6,0,0,0-2.2.7,3.8,3.8,0,0,0-1.6,2.5h0a3.82,3.82,0,0,0,3.1,4.5l17.8,3.5a3.86,3.86,0,0,0,4.5-3.1,4,4,0,0,0-3.1-4.6L31.3,66.6Z" transform="translate(-23.02 -36.96)" fill="#1d0e4c"/><path d="M36.5,78.3A5.88,5.88,0,0,1,35,74.1a10.79,10.79,0,0,1,4.2-8.7L41,67.8a7.41,7.41,0,0,0-3,6.3,2.86,2.86,0,0,0,.8,2.2Z" transform="translate(-23.02 -36.96)" fill="#1d0e4c"/><path d="M53.4,63.4a6.66,6.66,0,0,1-4.9-2.1,6.91,6.91,0,0,1,.1-9.7l13-12.7a6.91,6.91,0,0,1,9.7.1h0a6.71,6.71,0,0,1,1.9,4.9,6.84,6.84,0,0,1-2.1,4.8l-13,12.7A6.68,6.68,0,0,1,53.4,63.4ZM66.4,40a4,4,0,0,0-2.7,1.1l-13,12.7a3.89,3.89,0,0,0,5.4,5.6l13-12.7A4,4,0,0,0,70.3,44a4.3,4.3,0,0,0-1.1-2.8h0A4,4,0,0,0,66.4,40Z" transform="translate(-23.02 -36.96)" fill="#1d0e4c"/><path d="M62.7,53.9a7.82,7.82,0,0,0-3.4-6.1,3.1,3.1,0,0,0-2.2-.6l-.4-3A6,6,0,0,1,61,45.3a10.43,10.43,0,0,1,4.7,8.4Z" transform="translate(-23.02 -36.96)" fill="#1d0e4c"/><path d="M32.5,58.9h-.9a9.69,9.69,0,0,1-7.1-4.8A8.42,8.42,0,0,1,29.9,41a9.39,9.39,0,0,1,8.5,1.7,9.19,9.19,0,0,1-.1,14.1A8.81,8.81,0,0,1,32.5,58.9Zm-.6-3a5.81,5.81,0,0,0,4.5-1.4,5.66,5.66,0,0,0,2.2-4.2A6,6,0,0,0,36.4,45a6.67,6.67,0,0,0-5.9-1.1,5.49,5.49,0,0,0-3.6,8.6,7.51,7.51,0,0,0,5,3.4Z" transform="translate(-23.02 -36.96)" fill="#1d0e4c"/><path d="M68.3,83c-3.8,0-7.6-1.7-8-5.6s4.2-8.3,4.7-8.8a20.26,20.26,0,0,1,6.2-3.9,19.27,19.27,0,0,1,9.7-2c3,.4,6.1,2.2,6.6,5.4v.1a7.87,7.87,0,0,1-1.9,5.5A23.56,23.56,0,0,1,69.3,83h-1ZM79.7,65.6a16.12,16.12,0,0,0-7.1,1.7h-.1a19,19,0,0,0-5.4,3.4c-1.9,1.8-3.9,4.6-3.8,6.3.3,2.7,3.9,3.1,5.9,2.9a20.17,20.17,0,0,0,14.2-8.1l.1-.1a5,5,0,0,0,1.2-3.4c-.3-1.5-2.2-2.5-3.9-2.8A4.91,4.91,0,0,1,79.7,65.6Z" transform="translate(-23.02 -36.96)" fill="#1d0e4c"/><rect x="25.35" y="47.4" width="13.7" height="3" transform="translate(-49.34 13.91) rotate(-58.57)" fill="#1d0e4c"/><path d="M87.9,59.2a14.92,14.92,0,0,1-2.1-.2,9.18,9.18,0,0,1-5.7-4.1A8.82,8.82,0,0,1,79,48h0a9.61,9.61,0,0,1,5.6-6.4,8.56,8.56,0,0,1,7.8.1,8.93,8.93,0,0,1,4.5,7A9.8,9.8,0,0,1,94.1,57,9.77,9.77,0,0,1,87.9,59.2Zm.7-15.5a7.44,7.44,0,0,0-2.8.6,6.74,6.74,0,0,0-3.9,4.4h0a6,6,0,0,0,.8,4.7,6.17,6.17,0,0,0,9.4,1.4A7,7,0,0,0,94,49.1a6,6,0,0,0-3-4.7A3.41,3.41,0,0,0,88.6,43.7Z" transform="translate(-23.02 -36.96)" fill="#1d0e4c"/><rect x="87.38" y="42.97" width="3" height="13.7" transform="translate(-28.75 50.67) rotate(-51.06)" fill="#1d0e4c"/></svg>