<svg id="Layer_1" data-name="Layer 1" xmlns="http://www.w3.org/2000/svg" viewBox="0 0 120 120"><title>polen</title><path d="M31.39,94.4c-4.9-21.12,4.14-33.84,5.93-40.31" style="fill:none;stroke:#50439b;stroke-miterlimit:10;stroke-width:3px"/><line x1="37.16" y1="55.88" x2="63.21" y2="64.55" style="fill:none;stroke:#50439b;stroke-miterlimit:10;stroke-width:3px"/><line x1="37.16" y1="55.88" x2="61.71" y2="43.59" style="fill:none;stroke:#50439b;stroke-miterlimit:10;stroke-width:3px"/><line x1="37.16" y1="55.88" x2="45.83" y2="29.83" style="fill:none;stroke:#50439b;stroke-miterlimit:10;stroke-width:3px"/><line x1="37.49" y1="55.99" x2="25.2" y2="31.44" style="fill:none;stroke:#50439b;stroke-miterlimit:10;stroke-width:3px"/><line x1="37.49" y1="55.99" x2="11.44" y2="47.32" style="fill:none;stroke:#50439b;stroke-miterlimit:10;stroke-width:3px"/><path d="M74.62,42.18a11.38,11.38,0,0,1-1.66-6" style="fill:none;stroke:#50439b;stroke-miterlimit:10;stroke-width:3px"/><path d="M91.57,32.75a11.38,11.38,0,0,1,1,6.17" style="fill:none;stroke:#50439b;stroke-miterlimit:10;stroke-width:3px"/><path d="M75.87,51.22a11.38,11.38,0,0,1-6,1.79" style="fill:none;stroke:#50439b;stroke-miterlimit:10;stroke-width:3px"/><path d="M93.32,25.6a11.38,11.38,0,0,1-6,1.79" style="fill:none;stroke:#50439b;stroke-miterlimit:10;stroke-width:3px"/><path d="M78.86,27a11.38,11.38,0,0,1-6,1.79" style="fill:none;stroke:#50439b;stroke-miterlimit:10;stroke-width:3px"/><path d="M56.53,29.71a11.38,11.38,0,0,1,6-1.79" style="fill:none;stroke:#50439b;stroke-miterlimit:10;stroke-width:3px"/><path d="M102.56,28.81a11.38,11.38,0,0,1,6-1.79" style="fill:none;stroke:#50439b;stroke-miterlimit:10;stroke-width:3px"/><path d="M81.53,41.77a11.38,11.38,0,0,1,6-1.79" style="fill:none;stroke:#50439b;stroke-miterlimit:10;stroke-width:3px"/><line x1="37.49" y1="55.99" x2="17.54" y2="37.13" style="fill:none;stroke:#50439b;stroke-miterlimit:10;stroke-width:3px"/><line x1="37.49" y1="55.99" x2="54.24" y2="35.26" style="fill:none;stroke:#50439b;stroke-miterlimit:10;stroke-width:3px"/><line x1="37.49" y1="55.99" x2="64.07" y2="54.03" style="fill:none;stroke:#50439b;stroke-miterlimit:10;stroke-width:3px"/><line x1="37.49" y1="55.99" x2="35.53" y2="29.41" style="fill:none;stroke:#50439b;stroke-miterlimit:10;stroke-width:3px"/></svg>