<svg id="Layer_1" data-name="Layer 1" xmlns="http://www.w3.org/2000/svg" viewBox="0 0 97.5 70.3"><title>polen</title><path d="M74.5,36.2h-3A12.72,12.72,0,0,0,73.4,43L76,41.4A8.3,8.3,0,0,1,74.5,36.2Z" transform="translate(-11 -24.4)" fill="#1d0e4c"/><path d="M90.2,33.4a10,10,0,0,1,.9,5.4l3,.4a13,13,0,0,0-1.1-7Z" transform="translate(-11 -24.4)" fill="#1d0e4c"/><path d="M69.9,51.5v3a12.57,12.57,0,0,0,6.8-2L75.1,50A9.8,9.8,0,0,1,69.9,51.5Z" transform="translate(-11 -24.4)" fill="#1d0e4c"/><path d="M94.1,26.9l-1.6-2.5A10.91,10.91,0,0,1,87.3,26v3A13.59,13.59,0,0,0,94.1,26.9Z" transform="translate(-11 -24.4)" fill="#1d0e4c"/><path d="M72.8,27.3v3a12.57,12.57,0,0,0,6.8-2L78,25.8A10.19,10.19,0,0,1,72.8,27.3Z" transform="translate(-11 -24.4)" fill="#1d0e4c"/><path d="M62.5,29.4v-3a12.57,12.57,0,0,0-6.8,2l1.6,2.5A10.78,10.78,0,0,1,62.5,29.4Z" transform="translate(-11 -24.4)" fill="#1d0e4c"/><path d="M108.5,25.5a12.57,12.57,0,0,0-6.8,2l1.6,2.5a10.91,10.91,0,0,1,5.2-1.6Z" transform="translate(-11 -24.4)" fill="#1d0e4c"/><path d="M80.7,40.5,82.3,43a10.91,10.91,0,0,1,5.2-1.6v-3A13.9,13.9,0,0,0,80.7,40.5Z" transform="translate(-11 -24.4)" fill="#1d0e4c"/><path d="M64,52.5,44.3,54l18.1-9.1L61,42.2,43.3,51l12-14.9L53,34.2,40.9,49.4l6.3-19.1-2.8-.9-6,18.1L37,29.3l-3,.2,1.4,19L26.5,30.7,23.8,32l8.5,17L18.6,36l-2.1,2.2,15,14.2L11.9,45.9,11,48.7l23.8,7.9c-.2.5-.5,1.1-.7,1.7-3,7.2-8.1,19.2-4.1,36.4l2.9-.7c-3.8-16.3.9-27.2,4-34.5.3-.7.6-1.3.8-1.9l25,8.4.9-2.8L45,57l19.1-1.4Z" transform="translate(-11 -24.4)" fill="#1d0e4c"/></svg>