<svg id="Layer_1" data-name="Layer 1" xmlns="http://www.w3.org/2000/svg" viewBox="0 0 60.05 111"><title>skinrash</title><path d="M58.9,54a4.2,4.2,0,1,0,4.2,4.2A4.29,4.29,0,0,0,58.9,54Zm0,5.3a1.22,1.22,0,0,1-1.2-1.2,1.2,1.2,0,0,1,2.4,0A1.22,1.22,0,0,1,58.9,59.3Z" transform="translate(-29.94 -4.6)" fill="#1d0e4c"/><path d="M50.7,51.3A4.7,4.7,0,1,0,46,56,4.69,4.69,0,0,0,50.7,51.3Zm-6.4,0A1.7,1.7,0,1,1,46,53,1.69,1.69,0,0,1,44.3,51.3Z" transform="translate(-29.94 -4.6)" fill="#1d0e4c"/><path d="M49.6,60.7a5,5,0,0,0-5,5,5.08,5.08,0,0,0,5,5,5,5,0,1,0,0-10Zm0,7a2,2,0,1,1,2-2A1.94,1.94,0,0,1,49.6,67.7Z" transform="translate(-29.94 -4.6)" fill="#1d0e4c"/><path d="M57.2,50.5A4.2,4.2,0,1,0,53,46.3,4.29,4.29,0,0,0,57.2,50.5Zm0-5.4A1.2,1.2,0,1,1,56,46.3,1.29,1.29,0,0,1,57.2,45.1Z" transform="translate(-29.94 -4.6)" fill="#1d0e4c"/><path d="M89.9,32.8h0A7.81,7.81,0,0,0,88.2,29l.1-.1-.6-.6a5.07,5.07,0,0,1,.2-.9c.5-1.9,1.3-5.1-.2-7.4a5.33,5.33,0,0,0-3.6-2.3,7.09,7.09,0,0,0-4.7.8,7.49,7.49,0,0,0-1-3.3,4.8,4.8,0,0,0-3.4-2,7.54,7.54,0,0,0-4.9.4,6.56,6.56,0,0,0-1.2-3,5.28,5.28,0,0,0-3.7-2A8,8,0,0,0,60,10.1a4.64,4.64,0,0,0-1.2-2.3A5.22,5.22,0,0,0,55,6.4c-3.6,0-5.6,1.1-6.7,2.5A7.7,7.7,0,0,0,41,4.6c-3.2,0-6,1.4-8.7,4.3-2.3,2.6-2.5,6.2-2.3,9.5a21.31,21.31,0,0,0,3,9.1l.2.3A9.6,9.6,0,0,0,31,33.2c-.6,3.8.5,7.8,1.6,11.7.5,1.8,1,3.6,1.3,5.2,1.2,7,2.4,14.2,3.3,21.3,1,7.8,1.9,15.8,2.6,23.6.4,4.3.8,9.2,4.1,13.3a20.48,20.48,0,0,0,10.3,6.5,16.85,16.85,0,0,0,5.4.8,21,21,0,0,0,4.3-.5H64a14.19,14.19,0,0,0,4.8-2.7c6.3-5.1,7.8-12.2,9-18L89.4,39.5A19.18,19.18,0,0,0,89.9,32.8Zm-3.4,5.8-11.6,55c-1.4,6.7-2.9,12.2-8,16.3a11.13,11.13,0,0,1-3.8,2.2,15.92,15.92,0,0,1-8.1-.3,17,17,0,0,1-8.8-5.5c-2.7-3.4-3-7.6-3.4-11.7-.7-7.9-1.5-15.9-2.6-23.8-1-7.1-2.1-14.3-3.3-21.4a54.73,54.73,0,0,0-1.3-5.5c-1-3.6-2-7.3-1.5-10.4s1.6-4.6,3.9-5.4l1.4-.5-1.1-2.8-1.4.5-1.2.6a17.53,17.53,0,0,1-2.5-7.6c-.1-2.6,0-5.5,1.6-7.3,2.1-2.3,4.1-3.3,6.4-3.3,4.8,0,5.6,4.5,5.6,7.2V16a23.76,23.76,0,0,0,.3,3.9c.1.7.2,1.4.3,2.3l.1,1.5,3-.3-.1-1.5q-.15-1.35-.3-2.4a18.16,18.16,0,0,1-.3-3.2h0V14.5c.2-2.9.4-5.2,5.4-5.2,1.2,0,1.5.4,1.6.5.5.5.7,1.5.6,3.2-.1,1.3-.1,2.2-.2,3a24.22,24.22,0,0,0-.2,3.7v3h3v-3a29.17,29.17,0,0,1,.2-3.3h0a6,6,0,0,1,1.6-3.8,4.47,4.47,0,0,1,3.4-.9,2.16,2.16,0,0,1,1.6.8c1.1,1.4.8,4.4.5,6.6-.2.8-.3,1.6-.5,2.6l-.2,1.5h0l3,.5.3-1.5c0-.2.1-.4.1-.6.1-.6.3-1.3.4-2.1.9-3.7,1.9-3.7,4.5-3.3a1.68,1.68,0,0,1,1.4.8c1,1.4.4,4.4.1,5.8a2,2,0,0,0-.1.7h0L75.7,25h.1v.1l1.5.2,1.4.3v-.1h.1l.2-1.4a5.2,5.2,0,0,1,1.9-2.8,3.41,3.41,0,0,1,2.7-.6,2.6,2.6,0,0,1,1.7,1c.7,1.2.2,3.4-.1,4.8l-1-.5-1.4,2.7,1.3.7a2.73,2.73,0,0,1,1.2.9l.2.2a5.58,5.58,0,0,1,1.6,2.9A19.79,19.79,0,0,1,86.5,38.6Z" transform="translate(-29.94 -4.6)" fill="#1d0e4c"/></svg>