<svg id="Layer_1" data-name="Layer 1" xmlns="http://www.w3.org/2000/svg" viewBox="0 0 120 120"><title>skinrash</title><circle cx="58.87" cy="58.16" r="2.66" style="fill:none;stroke:#50439b;stroke-linecap:square;stroke-linejoin:bevel;stroke-width:3px"/><circle cx="45.97" cy="51.31" r="3.19" style="fill:none;stroke:#50439b;stroke-linecap:square;stroke-linejoin:bevel;stroke-width:3px"/><circle cx="49.64" cy="65.68" r="3.53" style="fill:none;stroke:#50439b;stroke-linecap:square;stroke-linejoin:bevel;stroke-width:3px"/><circle cx="57.24" cy="46.28" r="2.68" style="fill:none;stroke:#50439b;stroke-linecap:square;stroke-linejoin:bevel;stroke-width:3px"/><path d="M86.2,29a7.47,7.47,0,0,0-1.56-1.07" style="fill:none;stroke:#50439b;stroke-linecap:square;stroke-linejoin:bevel;stroke-width:3px"/><path d="M37.3,26.68c-3.43,1.29-4.45,4-4.85,6.62-.79,5.18,2,11.22,2.89,16.36Q37.22,60.31,38.65,71q1.58,11.83,2.58,23.7c.36,4.28.74,8.74,3.71,12.46a19,19,0,0,0,9.59,6,16.36,16.36,0,0,0,8.89.3A12.71,12.71,0,0,0,67.79,111c5.7-4.61,7.21-11.05,8.5-17.13l11.64-55a15.67,15.67,0,0,0,.49-5.9,7,7,0,0,0-2.22-4" style="fill:none;stroke:#50439b;stroke-linecap:square;stroke-linejoin:bevel;stroke-width:3px"/><path d="M86.18,28.12c.33-1.92,2.78-7.87-2.36-8.93-3.34-.69-6,2.23-6.42,4.57" style="fill:none;stroke:#50439b;stroke-linecap:square;stroke-linejoin:bevel;stroke-width:3px"/><path d="M77.4,23.76c.22-1.53,2.17-8.24-2.61-9C70.17,14,69.07,15.52,68,22" style="fill:none;stroke:#50439b;stroke-linecap:square;stroke-linejoin:bevel;stroke-width:3px"/><path d="M48.65,22c-.29-2.93-.75-4.35-.54-7.24S48.32,7.83,55,7.83c3.17,0,3.85,2.07,3.72,5.24-.15,3.67-.36,4.38-.36,8.2" style="fill:none;stroke:#50439b;stroke-linecap:square;stroke-linejoin:bevel;stroke-width:3px"/><path d="M58.39,21.27c0-3.25-.74-11.71,6.73-11,5.56.51,3.34,9.34,2.9,11.76" style="fill:none;stroke:#50439b;stroke-linecap:square;stroke-linejoin:bevel;stroke-width:3px"/><path d="M48.06,14.77c0-1.61-.26-8.7-7.06-8.7-3.2,0-5.58,1.66-7.54,3.83s-2.09,5.44-1.95,8.37a18.68,18.68,0,0,0,2.78,8.39" style="fill:none;stroke:#50439b;stroke-linecap:square;stroke-linejoin:bevel;stroke-width:3px"/></svg>