<svg id="Layer_1" data-name="Layer 1" xmlns="http://www.w3.org/2000/svg" viewBox="0 0 120 120"><title>soap</title><path d="M34.86,41.49A2,2,0,0,0,32.52,40a3.3,3.3,0,0,0-2.26,1.88A2.57,2.57,0,0,0,30.54,45c1.08.91,2.73.18,4.1.49,1.67.37,2.61,2.25,2.62,4A5.07,5.07,0,0,1,35.93,53a3.55,3.55,0,0,1-3.6.94,2.75,2.75,0,0,1-1.78-3.11" style="fill:none;stroke:#50439b;stroke-miterlimit:10;stroke-width:3px"/><path d="M42.31,50.83a3.6,3.6,0,0,0,1.54,2.78c1.24.64,2.77-.16,3.73-1.18a8.79,8.79,0,0,0,.92-10.51c-1.71-2.61-4.26-1.12-5.39,1.18A13.89,13.89,0,0,0,42.31,50.83Z" style="fill:none;stroke:#50439b;stroke-miterlimit:10;stroke-width:3px"/><path d="M67.86,54.45q0-6.76.37-13.52a6.66,6.66,0,0,1,4.2-.89,2,2,0,0,1,1.62.83,1.89,1.89,0,0,1,.18.91,5,5,0,0,1-6,4.95" style="fill:none;stroke:#50439b;stroke-miterlimit:10;stroke-width:3px"/><path d="M54.39,54.45C55.12,49.8,57,42.2,58.5,40.24c1.27,1.26,3.21,9.6,4.19,14.56" style="fill:none;stroke:#50439b;stroke-miterlimit:10;stroke-width:3px"/><path d="M55.63,47.53q2.4-.29,4.81-.39c.13,0,.31.09.23.19" style="fill:none;stroke:#50439b;stroke-miterlimit:10;stroke-width:3px"/><ellipse cx="51.81" cy="47.09" rx="35.7" ry="19.23" style="fill:none;stroke:#50439b;stroke-miterlimit:10;stroke-width:3px"/><path d="M87.5,47.09V57c0,10.62-16,19.23-35.7,19.23S16.11,67.67,16.11,57v-10" style="fill:none;stroke:#50439b;stroke-miterlimit:10;stroke-width:3px"/><path d="M21.53,67.16c-.9,4-1.52,8.24-.69,12.29s3.33,8,7.17,9.5c5,2,10.64-.36,15.68-2.38S54.92,83,59.2,86.38c1.61,1.26,2.72,3.07,4.38,4.27,4.42,3.21,10.83.82,14.76-3s6.6-8.81,10.9-12.18c2.86-2.24,6.29-3.63,9.24-5.74s5.55-5.31,5.4-8.94c-.16-4.13-3.77-7.44-4.25-11.55a13.94,13.94,0,0,0-.48-3.72c-.83-2-3.34-2.91-5.5-2.59a14.87,14.87,0,0,0-5.87,2.79" style="fill:none;stroke:#50439b;stroke-miterlimit:10;stroke-width:3px"/></svg>