<svg id="Layer_1" data-name="Layer 1" xmlns="http://www.w3.org/2000/svg" viewBox="0 0 90.81 67.4"><title>soap</title><path d="M29.6,46.1a4.67,4.67,0,0,0,3.5.8,5.63,5.63,0,0,1,1.3,0c.9.2,1.4,1.4,1.4,2.6a3.41,3.41,0,0,1-.9,2.4,1.92,1.92,0,0,1-2,.6,1.23,1.23,0,0,1-.8-1.4l-2.9-.6A4.23,4.23,0,0,0,32,55.3a7.72,7.72,0,0,0,1.5.2,5.23,5.23,0,0,0,3.7-1.6,6.34,6.34,0,0,0,1.7-4.5c0-2.3-1.3-4.9-3.8-5.5a7.58,7.58,0,0,0-2.1-.1c-.5,0-1.1.1-1.3-.1a.91.91,0,0,1,0-1.2l.1-.2a1.72,1.72,0,0,1,1.2-1c.3-.1.5.1.6.4l2.9-.7a3.45,3.45,0,0,0-4.1-2.6A4.67,4.67,0,0,0,29.2,41a4.08,4.08,0,0,0,.5,4.8Z" transform="translate(-14.6 -26.4)" fill="#1d0e4c"/><path d="M43,54.8l.2.1a3.29,3.29,0,0,0,1.7.4,5.82,5.82,0,0,0,3.9-1.9,10.39,10.39,0,0,0,1.1-12.3A4.1,4.1,0,0,0,46.3,39a5.67,5.67,0,0,0-4.4,3.4v.1A15.41,15.41,0,0,0,41,51,4.22,4.22,0,0,0,43,54.8Zm1.5-11.1A3.14,3.14,0,0,1,46.3,42c.3,0,.6.2.9.7a7.38,7.38,0,0,1-.7,8.7,2.25,2.25,0,0,1-1.9.9,1.9,1.9,0,0,1-.8-1.5v-.2A12.54,12.54,0,0,1,44.5,43.7Z" transform="translate(-14.6 -26.4)" fill="#1d0e4c"/><path d="M69.4,48.3a6.51,6.51,0,0,0,6.3-6.5,4.15,4.15,0,0,0-.3-1.6l-.1-.2a3.73,3.73,0,0,0-2.7-1.5,8.33,8.33,0,0,0-5.1,1.1l-.7.4v.8c-.2,4.5-.4,9.1-.4,13.6h3C69.4,52.4,69.4,50.4,69.4,48.3Zm.3-6.4a4.59,4.59,0,0,1,2.6-.3h.2a.37.37,0,0,1,.3.1v.2a3.49,3.49,0,0,1-3.2,3.5C69.6,44.2,69.6,43,69.7,41.9Z" transform="translate(-14.6 -26.4)" fill="#1d0e4c"/><path d="M57,48.9a26.35,26.35,0,0,1,2.8-.2c.5,1.9.9,4,1.4,6.4l2.9-.6c-.8-4-2.8-13.6-4.6-15.3L58.3,38l-1,1.4c-1.9,2.5-3.8,11.3-4.4,14.9l3,.5C56.2,52.9,56.6,50.9,57,48.9Zm2.3-1,.3-.1c.1.2.1.4.2.6A1.21,1.21,0,0,1,59.3,47.9Zm-.8-4.1c.2.5.4,1.2.6,1.9a4.87,4.87,0,0,0-1.2.1C58.1,45.1,58.3,44.4,58.5,43.8Z" transform="translate(-14.6 -26.4)" fill="#1d0e4c"/><path d="M103.1,54.1a15,15,0,0,1-1.9-4.9,17.52,17.52,0,0,0-.5-4l-.1-.2c-1.2-2.8-4.5-3.9-7.1-3.5h-.1a17.44,17.44,0,0,0-4.9,2c-3-9.8-18-17.1-36.6-17.1-20.9,0-37.2,9-37.3,20.6h0V57c0,4,1.9,7.7,5.3,10.8-.7,3.5-1.4,7.8-.5,12,1,5,4.1,9,8.1,10.6,5.4,2.2,11.3-.2,16.4-2.2l.4-.1c6.5-2.6,11.1-2.7,14-.4a11.38,11.38,0,0,1,1.9,1.9A19,19,0,0,0,62.7,92a9.88,9.88,0,0,0,5.7,1.8c3.9,0,8.1-2.1,11-4.9a40.27,40.27,0,0,0,4.7-5.5,32.11,32.11,0,0,1,6.1-6.6,38.8,38.8,0,0,1,4.8-3,39.92,39.92,0,0,0,4.4-2.7c4-2.8,6.2-6.6,6-10.2A14.86,14.86,0,0,0,103.1,54.1ZM51.8,29.4C70.3,29.4,86,37.5,86,47.1h0v.2c-.2,9.5-15.8,17.5-34.2,17.5S17.6,56.7,17.6,47.1,33.3,29.4,51.8,29.4ZM17.6,57V55.4c5.6,7.4,18.7,12.4,34.2,12.4s28.5-5,34.2-12.4V57c0,9.6-15.7,17.7-34.2,17.7C32.9,74.7,17.6,66.8,17.6,57Zm80,11.5c-1.3.9-2.7,1.7-4.1,2.5a49.94,49.94,0,0,0-5.2,3.3,40.31,40.31,0,0,0-6.6,7.1,44.13,44.13,0,0,1-4.5,5.2C73.7,90,68,92.1,64.4,89.5a19.36,19.36,0,0,1-2.1-2A16.07,16.07,0,0,0,60,85.3c-3.9-3.1-9.4-3.1-17,0l-.4.1c-4.9,1.9-9.9,4-14.2,2.2-3.6-1.4-5.6-5.3-6.2-8.4a25.71,25.71,0,0,1,.2-9.2c6.8,4.8,17.3,7.8,29.3,7.8C72.7,77.7,89,68.6,89,57V46.7a13.72,13.72,0,0,1,4.9-2.3c1.4-.2,3.2.3,3.8,1.6a11.7,11.7,0,0,1,.4,3.2v.2a17.42,17.42,0,0,0,2.3,6,13.23,13.23,0,0,1,2,5.4C102.5,64.6,99.1,67.4,97.6,68.5Z" transform="translate(-14.6 -26.4)" fill="#1d0e4c"/></svg>