<svg id="Layer_1" data-name="Layer 1" xmlns="http://www.w3.org/2000/svg" viewBox="0 0 120 120"><title>tea</title><path d="M29.61,61a10.72,10.72,0,0,0,4.83,3.8,57.17,57.17,0,0,0,40.35,3.69,13.38,13.38,0,0,0,6.15-3.14,8.63,8.63,0,0,0,2.4-7.44c-.65-3.29-3.38-5.1-5.88-6.28a49.57,49.57,0,0,0-28.1-4.33C45.26,47.84,23.75,51.56,29.61,61Z" style="fill:none;stroke:#50439b;stroke-miterlimit:10;stroke-width:3px"/><path d="M28.61,57.8c2.13,7.36,2.59,18.31,5.68,25.1A23.45,23.45,0,0,0,48,95.6a25.45,25.45,0,0,0,17.19-.92,20.93,20.93,0,0,0,9.18-6.41,33.51,33.51,0,0,0,4.77-9.67c2-5.69,4.56-11.85,4.3-18.07" style="fill:none;stroke:#50439b;stroke-miterlimit:10;stroke-width:3px"/><path d="M81.79,67.38A6.41,6.41,0,0,1,88,67.15a6.12,6.12,0,0,1,3,3.15c1.17,2.88,0,6.59-2,8.64s-9.69,4.71-12.17,5.45" style="fill:none;stroke:#50439b;stroke-miterlimit:10;stroke-width:3px"/><polygon points="82.49 105.11 73.91 101.03 78.99 92.78 87 95.62 82.49 105.11" style="fill:none;stroke:#50439b;stroke-miterlimit:10;stroke-width:3px"/><path d="M52.51,68.57c0,.13-.22.14-.25,0s.08-.25.18-.34a20.58,20.58,0,0,1,6.31-4.31c2.41-.88,5.37-.71,7.2,1.08a7.19,7.19,0,0,1,1.85,5.26,30.84,30.84,0,0,1-.9,5.65,22.25,22.25,0,0,0-.41,7.81c.84,5.38,4.62,9.88,9,13.16" style="fill:none;stroke:#50439b;stroke-miterlimit:10;stroke-width:3px"/><path d="M47.07,55a14.75,14.75,0,0,1,1-6.75c.9-2.24,2.37-4.32,2.59-6.73a14.68,14.68,0,0,0-.34-3.78q-.71-4.21-1-8.47" style="fill:none;stroke:#50439b;stroke-miterlimit:10;stroke-width:3px"/><path d="M61.38,39.29c1.53-1.68,1.2-4.34.36-6.45s-2.09-4.15-2.15-6.42c-.05-2,.82-3.86,1.47-5.74s1-4,.11-5.79" style="fill:none;stroke:#50439b;stroke-miterlimit:10;stroke-width:3px"/><path d="M68.6,54.23a13.35,13.35,0,0,1,0-8.38c.73-2.21,2-4.21,2.53-6.48a19.16,19.16,0,0,0-.19-6.93" style="fill:none;stroke:#50439b;stroke-miterlimit:10;stroke-width:3px"/></svg>