<svg id="Layer_1" data-name="Layer 1" xmlns="http://www.w3.org/2000/svg" viewBox="0 0 65.88 92.7"><title>tea</title><path d="M75.5,89.2h0a28.36,28.36,0,0,0,2.2-3.5c2-.6,10-3.3,12.3-5.7s3.8-6.6,2.3-10.3a7.41,7.41,0,0,0-3.7-3.9,8,8,0,0,0-4-.8,22.62,22.62,0,0,0,.2-4.5h-.1a14,14,0,0,0,0-2.9c-.9-4.6-5.3-6.7-6.7-7.3a52.07,52.07,0,0,0-8.3-3.1,2.92,2.92,0,0,0,.2-.9c.3-.9.7-1.7,1.1-2.6a19.31,19.31,0,0,0,1.5-4v-.1a21,21,0,0,0-.2-7.5l-2.9.6a19.06,19.06,0,0,1,.2,6.3,29.23,29.23,0,0,1-1.3,3.4c-.4.9-.8,1.9-1.2,2.9-.1.4-.2.7-.3,1.1A49.17,49.17,0,0,0,51,45.6a10.39,10.39,0,0,0,1.2-4,14,14,0,0,0-.4-4.1,75.25,75.25,0,0,1-1-8.3l-3,.2a85.83,85.83,0,0,0,1,8.7,12.68,12.68,0,0,1,.3,3.3,11.37,11.37,0,0,1-1.5,4.1l-.3.6c-4.8.8-16.9,3.4-19.7,9.2a6.41,6.41,0,0,0,.1,5.6c.5,2.3.9,4.8,1.4,7.4.9,5.4,1.8,11.1,3.7,15.3A25.73,25.73,0,0,0,47.6,97a25.37,25.37,0,0,0,7.8,1.1A26.48,26.48,0,0,0,65.8,96a25.31,25.31,0,0,0,4.4-2.1,35.52,35.52,0,0,0,4.1,3.8l-2.4,3.9L83.3,107l5.9-12.3L78.3,91l-2.6,4.2a17.85,17.85,0,0,1-3.2-3A21.27,21.27,0,0,0,75.5,89.2Zm4.1,5.4,5.3,1.9-3.2,6.6L76,100.4Zm7.8-26.1a4.89,4.89,0,0,1,2.3,2.4c1,2.3-.1,5.4-1.7,7-1.1,1.2-5.1,2.8-8.4,4,.4-.9.7-1.9,1-2.8.2-.7.5-1.4.7-2.1a67.18,67.18,0,0,0,2.8-9A5.49,5.49,0,0,1,87.4,68.5ZM46.1,49.4a16.13,16.13,0,0,0-.5,5.8l3-.3a12.81,12.81,0,0,1,.9-6.1h.1a45.67,45.67,0,0,1,16.9.7,15.78,15.78,0,0,0,.7,5.3l2.8-.9a10.88,10.88,0,0,1-.6-3.6,41.57,41.57,0,0,1,7.4,2.8c3,1.4,4.6,3.1,5,5.2a7.2,7.2,0,0,1-1.9,6.1,11.13,11.13,0,0,1-5.5,2.8,48.75,48.75,0,0,1-5.2,1.2,8.7,8.7,0,0,0-2.1-4.3c-2.1-2-5.5-2.6-8.9-1.4a22.22,22.22,0,0,0-6.7,4.6,2.11,2.11,0,0,0-.7,1.3,58.42,58.42,0,0,1-15.7-4.9H35a9.36,9.36,0,0,1-4.1-3.2c-.1-.1-.1-.2-.2-.3-.2-.8-.4-1.5-.6-2.2a3.54,3.54,0,0,1,.3-1.1C32,53.1,39.8,50.6,46.1,49.4ZM52,68.6c-.3,0-.6-.1-.9-.1a1.38,1.38,0,0,1,1.2-1.2h.1a1.29,1.29,0,0,1,1.3,1.1v.3H52Zm14.2.1a55.3,55.3,0,0,1-12.2.1,20.31,20.31,0,0,1,5.3-3.5c1.8-.6,4.2-.7,5.6.7A6.78,6.78,0,0,1,66.2,68.7ZM64.6,93.3a23.52,23.52,0,0,1-16.1.9A21.76,21.76,0,0,1,35.7,82.3c-1.8-3.9-2.6-9.3-3.5-14.5-.2-.9-.3-1.8-.5-2.7a21.16,21.16,0,0,0,2.1,1.1,59.3,59.3,0,0,0,25.7,5.9,50.2,50.2,0,0,0,6.7-.4c-.2,1.3-.4,2.6-.7,3.9a23.56,23.56,0,0,0-.4,8.4,19.66,19.66,0,0,0,3.2,7.7A24.3,24.3,0,0,1,64.6,93.3Zm6-3.4a16.09,16.09,0,0,1-2.7-6.3,20,20,0,0,1,.4-7.3,40.14,40.14,0,0,0,.9-5c2-.3,3.9-.8,5.9-1.3a16.75,16.75,0,0,0,6.2-2.9,77.6,77.6,0,0,1-2.8,9c-.3.7-.5,1.4-.8,2.2a31.48,31.48,0,0,1-4.5,9.2A30.76,30.76,0,0,1,70.6,89.9Z" transform="translate(-27.01 -14.3)" fill="#1d0e4c"/><path d="M60.3,33.4c.3.8,1.2,3.5-.1,4.9l2.2,2c1.7-1.9,1.9-4.8.6-8-.2-.6-.5-1.1-.7-1.7A10.64,10.64,0,0,1,61,26.4a12.92,12.92,0,0,1,1-4.1c.1-.4.3-.7.4-1.1q1.5-4.2,0-6.9l-2.7,1.3c.6,1.1.5,2.6-.2,4.6a4.18,4.18,0,0,1-.4,1,14.67,14.67,0,0,0-1.2,5.2,14.12,14.12,0,0,0,1.6,5.4A7.93,7.93,0,0,1,60.3,33.4Z" transform="translate(-27.01 -14.3)" fill="#1d0e4c"/></svg>