<svg id="Layer_1" data-name="Layer 1" xmlns="http://www.w3.org/2000/svg" viewBox="0 0 30.4 81.61"><title>temperature</title><path d="M64.5,83.7v-.1a5.69,5.69,0,0,0-.4-2.6,7.61,7.61,0,0,0-1.2-1.9l-.1-.1,3.7-54.9v-.4A6.28,6.28,0,0,0,60,18.4a6.84,6.84,0,0,0-6.4,5.1l-.1.2L55.3,79a6.48,6.48,0,0,0-1.8,3.7,5.37,5.37,0,0,0,1.4,4.7l.2.2a5.1,5.1,0,0,0,3.1,1.1h.3a6.5,6.5,0,0,0,3.1-.8A5.53,5.53,0,0,0,64.5,83.7Zm-4.3,1.4a4.14,4.14,0,0,1-1.9.5,2,2,0,0,1-1.3-.4,2.14,2.14,0,0,1-.5-2v-.1a3.16,3.16,0,0,1,1.3-2.2l.6-.5L56.5,24.2a4,4,0,0,1,3.6-2.7,3.25,3.25,0,0,1,3.4,2.6l-.2,2.6c-1.4,0-3.7-.1-4.5-.1v3c.7,0,3,0,4.3.1L63,31.9c-1.4,0-3.5-.1-4.2-.1v3c.7,0,2.6,0,4,.1l-.1,2.2c-1.4,0-3.2-.1-3.8-.1v3c.6,0,2.3,0,3.6.1l-.1,2.2c-1.2,0-2.8-.1-3.5-.1v3c.6,0,2.1,0,3.3.1l-.1,2.2c-1.1,0-2.5-.1-3.1-.1v3h2.9l-.1,2.2-2.7-.1-.1,3,2.6.1-.1,2.2-2.4-.1-.1,3,2.3.1L61.2,63l-2-.1-.1,3L61,66l-.1,2.2-2-.2-.1,3,1.6.1-.1,2.2H58.9l-.1,3H60l-.3,4.2.6.5.3.3a4.7,4.7,0,0,1,.6.9v.1a2.54,2.54,0,0,1,.2,1.2A2.07,2.07,0,0,1,60.2,85.1Z" transform="translate(-44.6 -18.39)" fill="#1d0e4c"/><path d="M47.1,88.1a12.13,12.13,0,0,1-2.5,2.1l1.3,2.7a17.22,17.22,0,0,0,3.3-2.6,7.48,7.48,0,0,1,3-2.2l-.8-2.9A9.16,9.16,0,0,0,47.1,88.1Z" transform="translate(-44.6 -18.39)" fill="#1d0e4c"/><path d="M54.8,90.8a70.6,70.6,0,0,0,0,9.2l3-.2a64.61,64.61,0,0,1,0-8.8Z" transform="translate(-44.6 -18.39)" fill="#1d0e4c"/><path d="M60.3,91.2a62.4,62.4,0,0,1,4.9,8.3l2.7-1.3a68.33,68.33,0,0,0-5.1-8.7Z" transform="translate(-44.6 -18.39)" fill="#1d0e4c"/><path d="M73,87.7a3.41,3.41,0,0,1-2.4-.5c-.2-.1-.4-.3-.6-.4a9.22,9.22,0,0,0-.8-.5,4.39,4.39,0,0,0-2.7-.7l.4,3a1,1,0,0,1,.7.2,3,3,0,0,1,.7.5,3.51,3.51,0,0,0,.8.5,6.74,6.74,0,0,0,3.4,1,3.75,3.75,0,0,0,1.1-.1h.2a.85.85,0,0,1,.7,0l.5-3A4.49,4.49,0,0,0,73,87.7Z" transform="translate(-44.6 -18.39)" fill="#1d0e4c"/></svg>