<svg id="Layer_1" data-name="Layer 1" xmlns="http://www.w3.org/2000/svg" viewBox="0 0 120 120"><title>temperature</title><path d="M62.68,81.58a4.42,4.42,0,0,0-.87-1.43,4.84,4.84,0,0,0-.53-.47L65,24.06a4.73,4.73,0,0,0-5-4,5.32,5.32,0,0,0-5,4l1.85,55.61A4.68,4.68,0,0,0,55,82.89,3.9,3.9,0,0,0,56,86.33a3.61,3.61,0,0,0,2.4.74,5.49,5.49,0,0,0,2.49-.65,3.82,3.82,0,0,0,2.12-2.92A4.32,4.32,0,0,0,62.68,81.58Z" style="fill:none;stroke:#50439b;stroke-miterlimit:10;stroke-width:3px"/><path d="M58.81,28.2c.93,0,4.27.06,5.21.09" style="fill:none;stroke:#50439b;stroke-miterlimit:10;stroke-width:3px"/><path d="M58.81,33.37c.93,0,4.27.06,5.21.09" style="fill:none;stroke:#50439b;stroke-miterlimit:10;stroke-width:3px"/><path d="M58.81,38.53c.93,0,4.27.06,5.21.09" style="fill:none;stroke:#50439b;stroke-miterlimit:10;stroke-width:3px"/><path d="M58.81,43.69c.93,0,4,.06,4.88.09" style="fill:none;stroke:#50439b;stroke-miterlimit:10;stroke-width:3px"/><path d="M58.81,48.86c.93,0,3.6.06,4.54.09" style="fill:none;stroke:#50439b;stroke-miterlimit:10;stroke-width:3px"/><path d="M58.81,54l4.19.09" style="fill:none;stroke:#50439b;stroke-miterlimit:10;stroke-width:3px"/><path d="M58.81,59.19l2.8.09" style="fill:none;stroke:#50439b;stroke-miterlimit:10;stroke-width:3px"/><path d="M58.81,64.35l2.8.09" style="fill:none;stroke:#50439b;stroke-miterlimit:10;stroke-width:3px"/><path d="M58.81,69.52l2.8.09" style="fill:none;stroke:#50439b;stroke-miterlimit:10;stroke-width:3px"/><path d="M58.81,74.68l2.8.09" style="fill:none;stroke:#50439b;stroke-miterlimit:10;stroke-width:3px"/><path d="M51.83,86.53c-2.67.76-4.08,3.76-6.56,5" style="fill:none;stroke:#50439b;stroke-miterlimit:10;stroke-width:3px"/><path d="M56.28,90.94a69.69,69.69,0,0,0,0,9" style="fill:none;stroke:#50439b;stroke-miterlimit:10;stroke-width:3px"/><path d="M61.51,90.33a62.59,62.59,0,0,1,5,8.52" style="fill:none;stroke:#50439b;stroke-miterlimit:10;stroke-width:3px"/><path d="M66.65,87.13a2.48,2.48,0,0,1,1.7.42c.51.31,1,.71,1.47,1a5.07,5.07,0,0,0,3.51.66,2.94,2.94,0,0,1,1.39-.09" style="fill:none;stroke:#50439b;stroke-miterlimit:10;stroke-width:3px"/></svg>