<svg id="Layer_1" data-name="Layer 1" xmlns="http://www.w3.org/2000/svg" viewBox="0 0 77.2 72.9"><title>vaccine</title><path d="M78.2,84.7,28.5,47.2l8.1-11.4L85.7,73.1ZM32.6,46.6,77.4,80.4l4.2-6.5L37.2,40Z" transform="translate(-21.3 -23.6)" fill="#1d0e4c"/><path d="M33.3,44.1A53.71,53.71,0,0,0,26,39.8l1.3-2.7A53.47,53.47,0,0,1,35,41.6Z" transform="translate(-21.3 -23.6)" fill="#1d0e4c"/><path d="M90,86.9A97.23,97.23,0,0,1,80.1,80L82,77.7a91.51,91.51,0,0,0,9.6,6.7Z" transform="translate(-21.3 -23.6)" fill="#1d0e4c"/><path d="M24,44.5l-2.5-1.6c2.7-4.1,5.5-8.1,8.3-12.1l2.4,1.8C29.4,36.5,26.6,40.5,24,44.5Z" transform="translate(-21.3 -23.6)" fill="#1d0e4c"/><rect x="41.98" y="45.25" width="4.8" height="3" transform="translate(-40.91 30.94) rotate(-53.44)" fill="#1d0e4c"/><rect x="50" y="50.68" width="4.8" height="3" transform="translate(-42.1 39.1) rotate(-53.06)" fill="#1d0e4c"/><rect x="56.89" y="56.23" width="4.8" height="3" transform="translate(-43.78 46.83) rotate(-53.06)" fill="#1d0e4c"/><path d="M62.9,71l-2.6-1.5c.3-.5.9-1.3,1.6-2.4a50.52,50.52,0,0,0,4.3-6.9L69,61.4a51.74,51.74,0,0,1-4.6,7.4C63.7,69.8,63.1,70.6,62.9,71Z" transform="translate(-21.3 -23.6)" fill="#1d0e4c"/><path d="M53.9,40.7q-1.2-8.4-2.1-16.8l3-.3c.6,5.5,1.3,11.2,2.1,16.7Z" transform="translate(-21.3 -23.6)" fill="#1d0e4c"/><path d="M66.7,46.2l-2.5-1.7c3-4.4,6.1-8.9,9.3-13.2l2.4,1.8C72.8,37.4,69.7,41.8,66.7,46.2Z" transform="translate(-21.3 -23.6)" fill="#1d0e4c"/><path d="M74.3,54.5l-.3-3c8.1-.9,16.3-1.5,24.4-1.7l.1,3C90.4,53,82.3,53.6,74.3,54.5Z" transform="translate(-21.3 -23.6)" fill="#1d0e4c"/><path d="M22,72.7l-.7-2.9c5.4-1.3,10.9-2.8,16.2-4.4l.9,2.9C32.9,69.9,27.4,71.4,22,72.7Z" transform="translate(-21.3 -23.6)" fill="#1d0e4c"/><path d="M37.8,94.6l-2.7-1.2a165,165,0,0,0,6.7-16.9l1.8-5.1,2.8,1-1.8,5.1A148.42,148.42,0,0,1,37.8,94.6Z" transform="translate(-21.3 -23.6)" fill="#1d0e4c"/><path d="M57.4,96.5a167.66,167.66,0,0,1-2-19.9l3-.1A158.92,158.92,0,0,0,60.3,96Z" transform="translate(-21.3 -23.6)" fill="#1d0e4c"/></svg>