<svg id="Layer_1" data-name="Layer 1" xmlns="http://www.w3.org/2000/svg" viewBox="0 0 120 120"><title>vaccine</title><polygon points="83.65 73.47 77.81 82.5 30.52 46.89 36.85 37.91 83.65 73.47" style="fill:none;stroke:#50439b;stroke-miterlimit:10;stroke-width:3px"/><path d="M34.16,42.85a54.1,54.1,0,0,0-7.52-4.41" style="fill:none;stroke:#50439b;stroke-miterlimit:10;stroke-width:3px"/><path d="M81,78.78a91.85,91.85,0,0,0,9.75,6.83" style="fill:none;stroke:#50439b;stroke-miterlimit:10;stroke-width:3px"/><path d="M22.74,43.69q4-6.1,8.27-12" style="fill:none;stroke:#50439b;stroke-miterlimit:10;stroke-width:3px"/><path d="M45.87,44.81,43,48.68" style="fill:none;stroke:#50439b;stroke-miterlimit:10;stroke-width:3px"/><path d="M53.83,50.26l-2.91,3.87" style="fill:none;stroke:#50439b;stroke-miterlimit:10;stroke-width:3px"/><path d="M60.78,55.79l-2.91,3.87" style="fill:none;stroke:#50439b;stroke-miterlimit:10;stroke-width:3px"/><path d="M67.6,60.86c-1.23,2.82-5.1,7.9-6,9.41" style="fill:none;stroke:#50439b;stroke-miterlimit:10;stroke-width:3px"/><path d="M55.39,40.51q-1.21-8.35-2.08-16.74" style="fill:none;stroke:#50439b;stroke-miterlimit:10;stroke-width:3px"/><path d="M65.5,45.35Q70,38.67,74.76,32.18" style="fill:none;stroke:#50439b;stroke-miterlimit:10;stroke-width:3px"/><path d="M74.13,53q12.08-1.39,24.25-1.69" style="fill:none;stroke:#50439b;stroke-miterlimit:10;stroke-width:3px"/><path d="M37.91,66.88q-8.09,2.39-16.29,4.38" style="fill:none;stroke:#50439b;stroke-miterlimit:10;stroke-width:3px"/><path d="M45,71.88,43.19,77A174.53,174.53,0,0,1,36.45,94" style="fill:none;stroke:#50439b;stroke-miterlimit:10;stroke-width:3px"/><path d="M56.89,76.52a161.42,161.42,0,0,0,1.95,19.71" style="fill:none;stroke:#50439b;stroke-miterlimit:10;stroke-width:3px"/></svg>