<svg id="Layer_1" data-name="Layer 1" xmlns="http://www.w3.org/2000/svg" viewBox="0 0 75.39 82.34"><title>virus</title><path d="M95.6,76.9c-.2-.5-.5-.9-.7-1.4-1-2-.3-3.8.6-6.1l.3-.8a24.38,24.38,0,0,0,1.3-8.5,33.43,33.43,0,0,0-3-13.9A29.26,29.26,0,0,0,92,42.7c-1.4-2.1-3.5-5.2-3.1-6.6a7,7,0,0,1,1.5-1.9l.1-.1A18.85,18.85,0,0,0,93,31l.6-1.1-.9-.8c-1-.9-1.4-.7-6,2.4l-1,.7a2.86,2.86,0,0,1-2.7.1,25.65,25.65,0,0,1-4-2.1,25.06,25.06,0,0,0-4.9-2.5,16.09,16.09,0,0,0-3.7-.7,17.3,17.3,0,0,1-2.7-.4A4.35,4.35,0,0,1,67,26l-.1-.1a4.68,4.68,0,0,1-.3-2.2c0-1.4-.1-3.5-1.9-4.2a2.36,2.36,0,0,0-2.4-.5c-1.5.5-1.9,2.2-2.2,3.5a6.21,6.21,0,0,1-.3,1v.1a8.36,8.36,0,0,1-1.2,2.3c-.7.8-2.8,1-4.5,1.2a17.68,17.68,0,0,0-3.6.7,48.14,48.14,0,0,0-9.4,4.6l-.1.1a1.08,1.08,0,0,1-.7.3,2.1,2.1,0,0,1-1.1-.8l-2.6-3.1H36a3,3,0,0,0-2.7,3.2v.2a5,5,0,0,0,.5,1.3c.9,2.3,0,5.1-.9,7C29.5,47.8,28,53.8,28,60.2a12.72,12.72,0,0,1-1.1,6.2c-.2.1-.6.1-.9.2-1.1.1-3.7.5-3.7,3.5a2.55,2.55,0,0,0,.5,1.9c.8,1,2.2,1.1,3.5,1.2a5,5,0,0,1,1.9.3L31.4,76a18.94,18.94,0,0,1,4,4.8,23.82,23.82,0,0,0,4.3,5.3,33,33,0,0,0,12.8,7.1,27.63,27.63,0,0,0,5.4.9c3.1.3,6.2.6,7.8,2a5.44,5.44,0,0,1,.4,2c.2,1.3.3,2.4,1.4,2.9a1.85,1.85,0,0,0,.7.2,1.88,1.88,0,0,0,.8-.2c2-.6,2.4-2.9,2.7-4.9s.7-3.6,1.7-3.8a21.91,21.91,0,0,0,12-6.5,6.57,6.57,0,0,0,1.2-1.7,6.79,6.79,0,0,1,2.1-2.3,4,4,0,0,1,2.6.3c.4.2.8.4,1.3.7a12.29,12.29,0,0,0,2.3,1.1,2,2,0,0,0,2.2-.4C98.3,82.4,97.5,80.7,95.6,76.9ZM94.2,60.2a20.14,20.14,0,0,1-1.1,7.4l-.3.7c-1,2.5-2.1,5.3-.5,8.5.2.5.5.9.7,1.4s.5,1.1.8,1.7a5.9,5.9,0,0,0-.8-.4,6.4,6.4,0,0,0-4.9-.5H88a8.47,8.47,0,0,0-3.6,3.4,7.34,7.34,0,0,1-1,1.3A19.69,19.69,0,0,1,73,89.3c-3.1.7-3.7,3.9-4,6.2v.2a3.68,3.68,0,0,0-1.1-1.9c-2.3-2-6-2.4-9.5-2.7a42,42,0,0,1-4.8-.7,31.41,31.41,0,0,1-11.7-6.5,25.2,25.2,0,0,1-3.8-4.7,20.52,20.52,0,0,0-4.7-5.5l-3.2-2.5a5.72,5.72,0,0,0-3.6-.9,4.87,4.87,0,0,1-1.2-.1v-.3a2.51,2.51,0,0,1,1-.2,3.87,3.87,0,0,0,3.2-1.6c1.4-2.5,1.5-5.1,1.5-7.7,0-5.9,1.4-11.5,4.5-18.3a12.44,12.44,0,0,0,1.3-8.4v.1a4.72,4.72,0,0,0,3.2,2.1h.4A5.81,5.81,0,0,0,43,35a47.8,47.8,0,0,1,8.8-4.3,15.74,15.74,0,0,1,3-.6c2.4-.3,4.9-.6,6.4-2.2A10.62,10.62,0,0,0,63,24.6a5.73,5.73,0,0,0,.4-1.4c.1-.3.2-.7.3-1l.3.1a6.62,6.62,0,0,1,.1,1.5,5.88,5.88,0,0,0,1,4,5.48,5.48,0,0,0,1.8,1.6l.1.1a11,11,0,0,0,3.6.7,12.5,12.5,0,0,1,3,.5A19.89,19.89,0,0,1,77.9,33a27,27,0,0,0,4.4,2.4,6.12,6.12,0,0,0,4,.2c-.8,2.8,1.5,6.2,3.5,9.1a23.5,23.5,0,0,1,1.9,3,32.42,32.42,0,0,1,2.5,12.5Z" transform="translate(-22.28 -18.86)" fill="#1d0e4c"/><path d="M67.8,40.3c1-.6,1.5-.9,2.4-.6s2.8,1.9,4.2,3c2,1.7,2.9,2.4,3.9,2.4v-3a.44.44,0,0,1,.3.1c-.4-.2-1.5-1.1-2.3-1.7-1.8-1.5-3.7-3.1-5.3-3.6a5.5,5.5,0,0,0-4.7.9,4.73,4.73,0,0,1-3.1.9l-.4,3A9,9,0,0,0,67.8,40.3Z" transform="translate(-22.28 -18.86)" fill="#1d0e4c"/><path d="M77.3,53.3a1.23,1.23,0,0,1,.1-1.3l-2.3-2a4.26,4.26,0,0,0-.5,4.7,6.29,6.29,0,0,0,2.9,2.7l.3.2a5.3,5.3,0,0,1,1,.6,6.36,6.36,0,0,0-2.4,2.2l-.2.3a9.6,9.6,0,0,0-.6,3.3A3.89,3.89,0,0,1,74,66l1.6,2.6a6.3,6.3,0,0,0,2.9-3.9l.1-.2v-.2a7.8,7.8,0,0,1,.3-2.2,4.5,4.5,0,0,1,1.9-1.4,1.55,1.55,0,0,0,1.1-.8l.1-.2.1-.2a1.7,1.7,0,0,0,0-1c-.2-1.9-2-2.8-3.1-3.4l-.4-.2A7,7,0,0,1,77.3,53.3Z" transform="translate(-22.28 -18.86)" fill="#1d0e4c"/><path d="M53.3,81.8c-.1.1-.2.3-.3.4a6.72,6.72,0,0,0-.3-2.8l-.1-.3A5.71,5.71,0,0,0,50,76.6a34.82,34.82,0,0,0-4.3-2.2l-1.2,2.8a35.54,35.54,0,0,1,3.9,2l.1.1a3.74,3.74,0,0,1,1.3,1.2,4.08,4.08,0,0,1,.1,1.9v.4a4.3,4.3,0,0,0,.8,3.1,2,2,0,0,0,1.5.6c1.4,0,2.3-1.3,3.5-3.1,1.1-1.6,2.6-3.8,4-4.1L59,76.4C56.5,77.1,54.7,79.7,53.3,81.8Z" transform="translate(-22.28 -18.86)" fill="#1d0e4c"/><path d="M43,67.3a2.91,2.91,0,0,0-2-1.1,10.09,10.09,0,0,0,.7-1.5l.1-.2v-.3A12,12,0,0,0,40.3,59l-2.6,1.5a8.9,8.9,0,0,1,1.1,3.6,2.51,2.51,0,0,1-.4.7,2.74,2.74,0,0,0-.3,3l.1.2a3.08,3.08,0,0,0,2.2,1.2.37.37,0,0,1,.3.1,15.55,15.55,0,0,1,.8,2.3l2.9-.7a16.29,16.29,0,0,0-1.1-3.1Z" transform="translate(-22.28 -18.86)" fill="#1d0e4c"/><path d="M88.5,54.1a8.68,8.68,0,0,1-.1-2.8v-.2A7.18,7.18,0,0,0,85,45.5L83.4,48a4.29,4.29,0,0,1,2,3.2,14.52,14.52,0,0,0,.2,3.6l.1.3a17.61,17.61,0,0,0,1.4,2.3,1.23,1.23,0,0,1,.2,1l2.9.6a4.06,4.06,0,0,0-.8-3.5A8.51,8.51,0,0,1,88.5,54.1Z" transform="translate(-22.28 -18.86)" fill="#1d0e4c"/><path d="M68.1,66.5a3,3,0,0,1,1.6-3.1l-1.4-2.7c-2.5,1.3-3.9,4.4-3,6.8.2.7.1,1-1.3,1.9a4.36,4.36,0,0,0-1,.8L65.4,72l-.1.1c.1-.1.2-.1.4-.2C66.5,71.3,69.2,69.7,68.1,66.5Z" transform="translate(-22.28 -18.86)" fill="#1d0e4c"/><path d="M65.1,48.8a4.82,4.82,0,0,1,3,1.1l1.8-2.4A8.54,8.54,0,0,0,65,45.8h-.2a10.38,10.38,0,0,0-3.1,1.1l1.5,2.6A4,4,0,0,1,65.1,48.8Z" transform="translate(-22.28 -18.86)" fill="#1d0e4c"/><path d="M54.8,36.7a5.82,5.82,0,0,0,3.9-1.9l-2.3-2a3.1,3.1,0,0,1-1.8.9,8.11,8.11,0,0,0-3.8,1.2l1.6,2.5A6.11,6.11,0,0,1,54.8,36.7Z" transform="translate(-22.28 -18.86)" fill="#1d0e4c"/><path d="M48.2,58.2a16,16,0,0,0-.9-5.3c-.2-1.1-.4-2.6.3-3.5A5.87,5.87,0,0,1,50.1,48a16.32,16.32,0,0,0,1.9-.9,8.4,8.4,0,0,0,3.8-4.5l-2.8-1a5.47,5.47,0,0,1-2.5,2.9,7.74,7.74,0,0,1-1.6.7,8.91,8.91,0,0,0-3.7,2.3q-1.65,2.25-.9,6v.1A13.08,13.08,0,0,1,45,58Z" transform="translate(-22.28 -18.86)" fill="#1d0e4c"/><path d="M61.3,57.7A10.35,10.35,0,0,1,54.1,62a13.8,13.8,0,0,0-2,.3l-.1.1A7.58,7.58,0,0,0,49,65l2.5,1.6a3.64,3.64,0,0,1,1.6-1.4,5.07,5.07,0,0,1,1.3-.2,13.65,13.65,0,0,0,9.4-5.6Z" transform="translate(-22.28 -18.86)" fill="#1d0e4c"/><path d="M42.4,43.7l-2.1-2.1a11.76,11.76,0,0,0-3.4,9.3l3-.2A8.5,8.5,0,0,1,42.4,43.7Z" transform="translate(-22.28 -18.86)" fill="#1d0e4c"/><path d="M80.1,74.8h0V75a3.4,3.4,0,0,1-.2,1.4,1.34,1.34,0,0,1-.7.6,16,16,0,0,1-3.5,1.1c-.6.1-1.2.3-1.8.4-2.8.8-4.8,2.3-5.6,4.3l2.8,1.1c.6-1.5,2.5-2.2,3.6-2.5a10.46,10.46,0,0,1,1.7-.4,15.73,15.73,0,0,0,4.2-1.3,4.84,4.84,0,0,0,2.1-1.9l.1-.2a6.35,6.35,0,0,0,.4-2.7,10.91,10.91,0,0,1,2.5-6.5l-2.3-1.9A12.55,12.55,0,0,0,80.1,74.8Z" transform="translate(-22.28 -18.86)" fill="#1d0e4c"/></svg>