<svg id="Layer_1" data-name="Layer 1" xmlns="http://www.w3.org/2000/svg" viewBox="0 0 120 120"><title>virus</title><path d="M95.69,60.19a23.16,23.16,0,0,1-1.24,8c-1,2.63-2.22,5.14-.85,8,1.54,3.21,3.62,7,2,6.37-1.2-.45-2.25-1.2-3.4-1.75a4.77,4.77,0,0,0-3.7-.4c-1.86.73-2.76,3-4,4.39a20.71,20.71,0,0,1-11.18,6c-3.86.81-2,8.13-4.66,8.75-1.17.8-.51-3.46-1.77-4.55-3.14-2.71-9.94-2-13.84-3.19a33.12,33.12,0,0,1-12.24-6.81c-3.42-3-5-7.61-8.41-10.23l-3.23-2.5c-1.56-1.2-5.74.16-5.31-2.11-.08-3.1,3.49-1.36,4.38-3,1.22-2.23,1.31-4.58,1.31-7,0-6.85,1.84-12.82,4.68-18.91,1.22-2.6,2-5.66.92-8.3a3.76,3.76,0,0,1-.36-1,1.5,1.5,0,0,1,1.37-1.59l2,2.32a3.43,3.43,0,0,0,2.27,1.52,3.23,3.23,0,0,0,1.71-.62,48.64,48.64,0,0,1,9.12-4.43c2.44-.86,7-.5,8.69-2.33A8.76,8.76,0,0,0,61.49,24c.57-1.39.64-5.1,2.8-3.25,2,.48.41,4.26,1.8,6a3.6,3.6,0,0,0,1.28,1.14c1.68.72,4.51.44,6.52,1.17,3.2,1.16,5.75,3.49,8.82,4.66a4.44,4.44,0,0,0,3.94-.22c1.66-1.08,5.48-3.66,5.2-3.2a15.29,15.29,0,0,1-2.23,2.81,7.36,7.36,0,0,0-2,2.45c-1.16,3.13,4,8.48,5.24,11.28A33.12,33.12,0,0,1,95.69,60.19Z" style="fill:none;stroke:#50439b;stroke-miterlimit:10;stroke-width:3px"/><path d="M63,40.06c3.64.43,4.64-2.7,7.57-1.82,2.29.68,6.66,5.32,7.65,5.32" style="fill:none;stroke:#50439b;stroke-miterlimit:10;stroke-width:3px"/><path d="M76.26,51a2.66,2.66,0,0,0-.33,3,5.16,5.16,0,0,0,2.33,2.15c1.1.58,2.5,1.19,2.61,2.43a.56.56,0,0,1,0,.31.68.68,0,0,1-.35.26,5.32,5.32,0,0,0-2.78,2.11,7.5,7.5,0,0,0-.46,3A5.12,5.12,0,0,1,75,67.3" style="fill:none;stroke:#50439b;stroke-miterlimit:10;stroke-width:3px"/><path d="M45.11,75.88A31.75,31.75,0,0,1,49.25,78a4.6,4.6,0,0,1,2,1.93,6.4,6.4,0,0,1,.21,2.68c0,.91-.1,2.48.84,2.48,1.43,0,3.72-6.3,7.15-7.16" style="fill:none;stroke:#50439b;stroke-miterlimit:10;stroke-width:3px"/><path d="M39,59.75a10,10,0,0,1,1.28,4.54,4.33,4.33,0,0,1-.71,1.36,1.43,1.43,0,0,0-.16,1.46c.49.76,1.86.39,2.39,1.11a18.19,18.19,0,0,1,1,2.9" style="fill:none;stroke:#50439b;stroke-miterlimit:10;stroke-width:3px"/><path d="M84.2,46.76a5.85,5.85,0,0,1,2.68,4.48,12.61,12.61,0,0,0,.2,3.33,10.11,10.11,0,0,0,1.24,2,2.75,2.75,0,0,1,.52,2.25" style="fill:none;stroke:#50439b;stroke-miterlimit:10;stroke-width:3px"/><path d="M69,62.05c-1.73.88-2.92,3.17-2.3,4.93.92,2.64-2.17,3.59-2.58,4.13" style="fill:none;stroke:#50439b;stroke-miterlimit:10;stroke-width:3px"/><path d="M62.34,48.19A8.37,8.37,0,0,1,65,47.25a6.83,6.83,0,0,1,4,1.36" style="fill:none;stroke:#50439b;stroke-miterlimit:10;stroke-width:3px"/><path d="M51.59,36.21a6.43,6.43,0,0,1,3.09-1,4.08,4.08,0,0,0,2.86-1.38" style="fill:none;stroke:#50439b;stroke-miterlimit:10;stroke-width:3px"/><path d="M46.69,58.19a16.58,16.58,0,0,0-.82-4.89c-.36-1.62-.44-3.47.58-4.78s3.17-1.76,4.79-2.65a7,7,0,0,0,3.17-3.71" style="fill:none;stroke:#50439b;stroke-miterlimit:10;stroke-width:3px"/><path d="M50.27,65.79a5.59,5.59,0,0,1,2.32-2,7.22,7.22,0,0,1,1.62-.28,12.13,12.13,0,0,0,8.35-4.94" style="fill:none;stroke:#50439b;stroke-miterlimit:10;stroke-width:3px"/><path d="M41.32,42.6a10.46,10.46,0,0,0-3,8.1" style="fill:none;stroke:#50439b;stroke-miterlimit:10;stroke-width:3px"/><path d="M69.68,83.25c.72-1.82,2.68-2.85,4.57-3.36s3.9-.71,5.65-1.61A3.16,3.16,0,0,0,81.31,77a4.78,4.78,0,0,0,.31-2.16,12,12,0,0,1,2.86-7.51" style="fill:none;stroke:#50439b;stroke-miterlimit:10;stroke-width:3px"/></svg>